<mxfile host="app.diagrams.net" modified="2024-03-21T10:02:52.201Z" agent="Mozilla/5.0 (Windows NT 10.0; Win64; x64) AppleWebKit/537.36 (KHTML, like Gecko) Chrome/122.0.0.0 Safari/537.36" etag="DhVnafzpQ-7H6kLvHW61" version="24.0.2" type="github">
  <diagram name="Copy of MPG-3" id="3KPE2uxdrxkgs8o_WkRF">
    <mxGraphModel dx="1120" dy="1261" grid="1" gridSize="10" guides="1" tooltips="1" connect="1" arrows="1" fold="1" page="1" pageScale="1" pageWidth="1169" pageHeight="827" math="0" shadow="0">
      <root>
        <mxCell id="F-L6EfSc8vcWyVoIchHZ-0" />
        <mxCell id="F-L6EfSc8vcWyVoIchHZ-1" parent="F-L6EfSc8vcWyVoIchHZ-0" />
        <mxCell id="F-L6EfSc8vcWyVoIchHZ-2" value="" style="rounded=0;whiteSpace=wrap;html=1;fillColor=#f5f5f5;fontColor=#333333;strokeColor=#666666;dashed=1;" parent="F-L6EfSc8vcWyVoIchHZ-1" vertex="1">
          <mxGeometry x="40" y="56.88" width="930" height="503.12" as="geometry" />
        </mxCell>
        <mxCell id="F-L6EfSc8vcWyVoIchHZ-3" value="" style="rounded=1;whiteSpace=wrap;html=1;fillColor=#D5E8D4;" parent="F-L6EfSc8vcWyVoIchHZ-1" vertex="1">
          <mxGeometry x="283" y="236" width="647" height="210" as="geometry" />
        </mxCell>
        <mxCell id="F-L6EfSc8vcWyVoIchHZ-4" value="" style="edgeStyle=orthogonalEdgeStyle;rounded=0;orthogonalLoop=1;jettySize=auto;html=1;entryX=0.5;entryY=0;entryDx=0;entryDy=0;" parent="F-L6EfSc8vcWyVoIchHZ-1" edge="1">
          <mxGeometry relative="1" as="geometry">
            <mxPoint x="1572.31" y="450.5" as="targetPoint" />
          </mxGeometry>
        </mxCell>
        <mxCell id="F-L6EfSc8vcWyVoIchHZ-5" value="" style="rounded=1;whiteSpace=wrap;html=1;" parent="F-L6EfSc8vcWyVoIchHZ-1" vertex="1">
          <mxGeometry x="275" y="76" width="520" height="90" as="geometry" />
        </mxCell>
        <mxCell id="F-L6EfSc8vcWyVoIchHZ-6" value="" style="rounded=1;whiteSpace=wrap;html=1;" parent="F-L6EfSc8vcWyVoIchHZ-1" vertex="1">
          <mxGeometry x="313" y="91" width="80" height="55" as="geometry" />
        </mxCell>
        <mxCell id="F-L6EfSc8vcWyVoIchHZ-7" value="&lt;font style=&quot;font-size: 10px;&quot;&gt;&lt;b&gt;API &lt;br&gt;Management Gateway&lt;/b&gt;&lt;/font&gt;" style="text;html=1;align=center;verticalAlign=middle;resizable=0;points=[];autosize=1;strokeColor=none;fillColor=none;spacing=0;" parent="F-L6EfSc8vcWyVoIchHZ-1" vertex="1">
          <mxGeometry x="683" y="92" width="120" height="40" as="geometry" />
        </mxCell>
        <mxCell id="F-L6EfSc8vcWyVoIchHZ-8" value="&lt;span style=&quot;font-size: 10px;&quot;&gt;API&amp;nbsp; 1&lt;/span&gt;" style="text;html=1;align=center;verticalAlign=middle;resizable=0;points=[];autosize=1;strokeColor=none;fillColor=none;" parent="F-L6EfSc8vcWyVoIchHZ-1" vertex="1">
          <mxGeometry x="328" y="121" width="50" height="30" as="geometry" />
        </mxCell>
        <mxCell id="F-L6EfSc8vcWyVoIchHZ-9" value="" style="image;aspect=fixed;html=1;points=[];align=center;fontSize=12;image=img/lib/azure2/other/API_Proxy.svg;" parent="F-L6EfSc8vcWyVoIchHZ-1" vertex="1">
          <mxGeometry x="325" y="97" width="53.68" height="30" as="geometry" />
        </mxCell>
        <mxCell id="F-L6EfSc8vcWyVoIchHZ-10" style="edgeStyle=orthogonalEdgeStyle;rounded=0;orthogonalLoop=1;jettySize=auto;html=1;entryX=0.06;entryY=0.014;entryDx=0;entryDy=0;entryPerimeter=0;strokeColor=#e54915;" parent="F-L6EfSc8vcWyVoIchHZ-1" source="F-L6EfSc8vcWyVoIchHZ-11" target="F-L6EfSc8vcWyVoIchHZ-36" edge="1">
          <mxGeometry relative="1" as="geometry">
            <mxPoint x="450.6470588235293" y="256" as="targetPoint" />
          </mxGeometry>
        </mxCell>
        <mxCell id="F-L6EfSc8vcWyVoIchHZ-11" value="" style="rounded=1;whiteSpace=wrap;html=1;" parent="F-L6EfSc8vcWyVoIchHZ-1" vertex="1">
          <mxGeometry x="410" y="91" width="80" height="55" as="geometry" />
        </mxCell>
        <mxCell id="F-L6EfSc8vcWyVoIchHZ-12" value="&lt;font style=&quot;font-size: 10px;&quot;&gt;API 2&amp;nbsp;&lt;/font&gt;" style="text;html=1;align=center;verticalAlign=middle;resizable=0;points=[];autosize=1;strokeColor=none;fillColor=none;" parent="F-L6EfSc8vcWyVoIchHZ-1" vertex="1">
          <mxGeometry x="424" y="121" width="50" height="30" as="geometry" />
        </mxCell>
        <mxCell id="F-L6EfSc8vcWyVoIchHZ-13" value="" style="image;aspect=fixed;html=1;points=[];align=center;fontSize=12;image=img/lib/azure2/other/API_Proxy.svg;" parent="F-L6EfSc8vcWyVoIchHZ-1" vertex="1">
          <mxGeometry x="422" y="97" width="53.68" height="30" as="geometry" />
        </mxCell>
        <mxCell id="F-L6EfSc8vcWyVoIchHZ-14" style="edgeStyle=orthogonalEdgeStyle;rounded=0;orthogonalLoop=1;jettySize=auto;html=1;entryX=0.289;entryY=0.031;entryDx=0;entryDy=0;entryPerimeter=0;strokeColor=#e54915;" parent="F-L6EfSc8vcWyVoIchHZ-1" edge="1">
          <mxGeometry relative="1" as="geometry">
            <mxPoint x="350.69000000000005" y="269.24000000000024" as="targetPoint" />
            <mxPoint x="350" y="149" as="sourcePoint" />
          </mxGeometry>
        </mxCell>
        <mxCell id="F-L6EfSc8vcWyVoIchHZ-15" style="edgeStyle=orthogonalEdgeStyle;rounded=0;orthogonalLoop=1;jettySize=auto;html=1;entryX=0.977;entryY=0.2;entryDx=0;entryDy=0;entryPerimeter=0;strokeColor=#e54915;" parent="F-L6EfSc8vcWyVoIchHZ-1" source="F-L6EfSc8vcWyVoIchHZ-16" target="F-L6EfSc8vcWyVoIchHZ-37" edge="1">
          <mxGeometry relative="1" as="geometry">
            <mxPoint x="546.6470588235293" y="256" as="targetPoint" />
          </mxGeometry>
        </mxCell>
        <mxCell id="F-L6EfSc8vcWyVoIchHZ-16" value="" style="rounded=1;whiteSpace=wrap;html=1;" parent="F-L6EfSc8vcWyVoIchHZ-1" vertex="1">
          <mxGeometry x="506" y="91" width="80" height="55" as="geometry" />
        </mxCell>
        <mxCell id="F-L6EfSc8vcWyVoIchHZ-17" value="&lt;font style=&quot;font-size: 10px;&quot;&gt;API 3&lt;/font&gt;" style="text;html=1;align=center;verticalAlign=middle;resizable=0;points=[];autosize=1;strokeColor=none;fillColor=none;" parent="F-L6EfSc8vcWyVoIchHZ-1" vertex="1">
          <mxGeometry x="520" y="121" width="50" height="30" as="geometry" />
        </mxCell>
        <mxCell id="F-L6EfSc8vcWyVoIchHZ-18" value="" style="image;aspect=fixed;html=1;points=[];align=center;fontSize=12;image=img/lib/azure2/other/API_Proxy.svg;" parent="F-L6EfSc8vcWyVoIchHZ-1" vertex="1">
          <mxGeometry x="518" y="97" width="53.68" height="30" as="geometry" />
        </mxCell>
        <mxCell id="F-L6EfSc8vcWyVoIchHZ-19" value="HTTP Rest" style="text;html=1;align=center;verticalAlign=middle;resizable=0;points=[];autosize=1;strokeColor=none;fillColor=none;spacing=0;fontSize=10;" parent="F-L6EfSc8vcWyVoIchHZ-1" vertex="1">
          <mxGeometry x="346" y="171" width="70" height="20" as="geometry" />
        </mxCell>
        <mxCell id="F-L6EfSc8vcWyVoIchHZ-20" value="HTTP Rest" style="text;html=1;align=center;verticalAlign=middle;resizable=0;points=[];autosize=1;strokeColor=none;fillColor=none;spacing=0;fontSize=10;" parent="F-L6EfSc8vcWyVoIchHZ-1" vertex="1">
          <mxGeometry x="543" y="168" width="70" height="20" as="geometry" />
        </mxCell>
        <mxCell id="F-L6EfSc8vcWyVoIchHZ-21" value="" style="rounded=1;whiteSpace=wrap;html=1;" parent="F-L6EfSc8vcWyVoIchHZ-1" vertex="1">
          <mxGeometry x="603" y="91" width="80" height="55" as="geometry" />
        </mxCell>
        <mxCell id="F-L6EfSc8vcWyVoIchHZ-22" value="&lt;span style=&quot;font-size: 10px;&quot;&gt;API..N&lt;/span&gt;" style="text;html=1;align=center;verticalAlign=middle;resizable=0;points=[];autosize=1;strokeColor=none;fillColor=none;" parent="F-L6EfSc8vcWyVoIchHZ-1" vertex="1">
          <mxGeometry x="617" y="121" width="50" height="30" as="geometry" />
        </mxCell>
        <mxCell id="F-L6EfSc8vcWyVoIchHZ-23" value="" style="image;aspect=fixed;html=1;points=[];align=center;fontSize=12;image=img/lib/azure2/other/API_Proxy.svg;" parent="F-L6EfSc8vcWyVoIchHZ-1" vertex="1">
          <mxGeometry x="615" y="97" width="53.68" height="30" as="geometry" />
        </mxCell>
        <mxCell id="F-L6EfSc8vcWyVoIchHZ-24" value="" style="shape=image;verticalLabelPosition=bottom;labelBackgroundColor=default;verticalAlign=top;aspect=fixed;imageAspect=0;image=data:image/png,iVBORw0KGgoAAAANSUhEUgAAALIAAADoCAYAAABLn775AAAV3UlEQVR4Ae2dr48dNxCAj4cFBQWeFHboykpOYaEhhUGRwgOPhUSFgUFBYf0HKuUPKCguCorCCluQSq/6XjNXP589Y+/u8669Y+luf71dz4w/e8dj7+7FIZO+fft24M9KS/+O/L5+/Wple5TN5Uubaev2Q+qff/45LfzEvRfWeZ8+fTq8fv36cHl5eXjw4MHh4uLC/zq3AWV5e3t7+P33363i7+Z4FmQAvrq6cmg7h9ZqeF69enX4559/ugE2J2gS5I8fPzrAgwMcAv7jjz92D/M9kH/99VeHeEcQC9C9w3wC8p9//ukQ7xDiEOa//vord/fe9P4TkN++fesg7xhkgP7hhx+6dDNOQJaa6ct9R2Z6dDPuQP7tt9/M1pgoxtOnTw83Nzf+15ENKLPr62uzfMMGDJh7cjPuQH737p2qKLFkT/1a4JdfflHLN4RY1nuC+Q5kQBUFUsuRguf94jhd8vfv36vlmypz9vXiZtyB/Pz5c1VRIhqe+rXAVJB7gfkOZHqruVrJfk99W2AOyJQ/fGzZZ74j1EHuG1RL+rkgC8xbHc52kC0CBjm+BMjAvFWf2UEeBFRLDQtk5tc8fvxYdS8BWWDempvhIFsEDHLcAvmPP/44fPny5fDw4cMuYXaQBwHVUsMCWcKrnz9/LgJ5az6zg2wRMMjxUpBRtwbmrfjMDvIgoFpq1IAsMJe6GVsIzTnIFgGDHK8FuRbmtYezHeRBQLXUmAKywCzRCmu5ppvhIFsEDHJ8Ksi9wOwgDwKqpcYckAXmLfvMDrJFwCDH54IsMFvuhRynA9hyONtBHgRUS40lQK6FuaXP7CBbBAxyfCmQBebSl/W0imY4yIOAaqmxJMgCc6nP3AJmB9kiYJDjS4MsMItPbC3P7TM7yIOAaqlxDpBrYT6nz+wgWwQMcvxcIAvMpW7GuYazHeRBQLXUOCfIAvOaHUAH2SJgkOPnBllgtnxlOb60m+EgDwKqpUYLkNeE2UG2CBjkeCuQBebWPrODPAiolhotQRaYxY2wlkuE5hxki4BBjrcGuRbmuT6zgzwIqJYaa4AsMJe6GXNGAB1ki4BBjq8FciuYHeRBQLXUWBNkgdnyleX4FDfDQbYIGOT42iCfG2YHeRBQLTW2ALLAXOoz1wxnO8gWAYMc3wrIAnPpcHZpaM5BHgRUS40tgSwwi09sLUt8ZgfZImCQ41sDWWAubZktmB3kQUC11NgiyAJzqc+sxZkdZIuAQY5vFWTMy1tAHz16VPTyxJzP7CAPAqqlhgUyHwvly09r/PHZ6Ddv3hSBjD/N5/HiVw04yBYBgxy3QLY6XFs7zrcDw+Qgh9YYeH00kKlY3EUkOchiicGXI4IMzPIJiF2ATGcC34/vZPCFV3yykdKnT5+Oen348OGoJy/qjtOoIFOupGFBpjMAuJeXl8lOxJMnTw69fwST1oiQVMp/JT4L2NJijQoyncRhQeYD8YCaKuBwX9xhOFqko3+vXr0ydSSshT2o1KHuo6zzxd4hQa4tsJ5b5RoYib/W/L6X3xKKGw5k/KXaApCvGR2t0dE//P5aXV+8eHFsnfGpe/mjodH0pIIOBTLfidMUzh2LA+sdsTxJX+zUW8qVHfuHAxlfSVM4dYwIRs9pyh3o+vq6O5VTZSf7hgIZ90AUK13Six8hTYG5t/CjVqZDgfz69WsTZFpsCjAVYx0BaHxm9CuJZDx79qwrlXcDsjWnVWKNXZXeDGGJH2uFz7Ge+gaaLsO0yFavFsj3mHIDJQJFT50+kTm1HAZkK1qB27HHZI3kEX7rJaUAln3DgGx19Ebp1NVCZ3UCe+rwCbSppYNcS0Znv3eQLy6SHYWtlqO3yOmScZAd5DQZne11kB3kzpBNi+sgO8hpMjrb6yA7yJ0hmxbXQXaQ02RU7uXJDAZr5AmNytNn/9xBdpBnQcQATTwTjydReEqjZXKQHeTJvFlPp4SPr0/OpPBEB9lBLkTl9GfWULmMSrUaGnaQHeRTQgu3Sh52FZgLLznrZw6yg1wNUO3zcy2eE3SQHeRqkK1hcmmJZdliwo6D7CBXg1zqHwvILfxkB9lBrgaZEwTSkmWLpzMc5M5AJj6rwUNIrEWywBEZWz25TasveaaWyNtLSskv+4aZjwwYolRq2eI2LkD89NNPqiw8ftQqWe5OT0/OpMpV9g0DsvVsWuunpnOPGLUcDKGy4L5IYaeWjx8/7uYB1JT8sm8IkOn9i0K5ZQt/NG5lCcdxJ+BpZmRke410dXWl2gf5eki5smV/9yAzIcf6GtDt7W0P5XQ2GS23CxBa37GmKDssyLRwJV8BajHwMKVgWp1TOlCDP73lNBzItMIlrQyK9/Y2nXOBVPLmIezFS2zWcoEs3bsHGT8TA798+fIIpqZQfGzrrYxVeEsdL22VxX5MOcXeuGUtRiBL9BTZUsvN+8ilLUlKuZ5CSyUFOfc3uUhKynbxPnkj/FwZ5pwfyxRubxpka15vqEi87i5FGpk5DUPr0GGsQVzG4famQY6fsAgF19Y5b41wW2z4rW5PhXntdyprZb5pkGlVNeFzx3qJi64FekncPWVb5lqv2UCkZJJ9mwa55H3Hoki83EoHZS1Yc/nWTjUN7bq2uxbKEq9vGmTrVbGxMvF26wc9c/BsZT+DHrGNarbXHjTRZN00yABA2Giqr9zTPIIWsBNS02DIHaMl3sKgUk4+9m8eZClgeT8EBqX3rCkVHlu7py3yr72siQARs+duxh2Rv62ksFzj9W5Ajo1JpwODxwqltrc6UhXrdK5tGgHrsxTYjWjGWi+SKdE9Vbayr1uQRfGS72TsPYpREqXo4c4l0KaW3YMM0AyjppSTfWt/a3rNkBX2YahZbJFa8iXUHlJKdtk3BMj4cdatcw1fjzkizAVmhh4x2FaPW8VQSmHnlmtHI2J5c9s5+dk/BMgobo1WtQ7F5Vwe/PqWyZostHZsuMYWuwDZ8gNbPmRJ668ZvWXn03oot6ePBGk2HaZFtgqsZYfPeuCz5aijVcFbylLT+qZ+uwuQraHXli0PvrFm9JaVyno9gYOcqjIr7nOQ08Z3kDt7QYuD7CBjgQsxA06zdluU321t6SCnS8RbZG+R02QU7HUfucBIE36iNbDDRC28RU6T4S2yt8hpMgr2eotcYKQJP/EW+eLi4OG39LfFPfw2oUad8xR3LdLWddfCXYs0GQV73bUoMNKEn7hr4a5FNqTqrsWEGnXOU7bkWljzPlpO53TXwl2LyfXOmjrZ8n10DrKDPBlkTsw9ldF6/q+D7CDPApmHOONvifB5iNZPqjjIg4Hc6itKMf08RkSHqqU7EcpggUyEpZe0i6iF9Radm5ubXsprUTmtR8DoJPeSdgEyt3JNUY71VGhLwGV1OrFJy8eu5uqkle8wk4YwkvVKKJ607ulWOqfgcWUuLy/Vyo09ekq7AbnmtVB0xPCbW3e+zgUOdyTmk+SiJSkIengpS2ivlA6yb6gWucS9EMXD5VodsbCQ5qzjHpR83SrUmfWe3ArsE8sfbg8FMsrm3icRKh2v89bOnhOx6Vgna7v1+zWWsK+m03AgYzBeAaUpnTrWy9t2YiB4HVdKH20f8ey1X+MV61Gyrek0JMgUEuE2TfH4WK/uhfUymFhPOoC99gtiXcLtIUGmdgNzTctc0iJs9Tel/jFRHfoRvaYQ3Hh9WJClsBhVswqa0a+ekzXbjkLvXUfKJ4Y33B4eZAGUwubjOrwdk9srcOMrjhJXZrCHFhe96LyiJ6N6o+jnIAvJ0bLnW2ykysnmqHqhZNgCx+u7aZFPSts3urRADG+47SB3WaT7FDoEN153kPfJRJdax/CG2w5yl0W6T6FDcON1B3mfTHSpdQxvuO0gd1mk+xQ6BDded5D3yUSXWsfwhtsOcpdFuk+hQ3DjdQd5n0x0qXUMb7jtIHdZpPsUOgQ3XneQ98lEl1rH8IbbDnKXRbpPoUNw43UHeZ9MdKl1DG+47SB3WaT7FDoEN153kPfJRJdax/CG2w5yl0W6T6FDcON1B3mfTHSpdQxvuO0gd1mk+xQ6BDded5D3yUSXWsfwhtsOcpdFuk+hQ3DjdQd5n0x0qXUMb7jtIHdZpPsUOgQ3Xq8Gmdex+p/bYA0GYnjD7WqQw5N9Pf19Z7dLe7s4yJmP/jiM7WGcY3MH2UFW3+AzB66W5zrIDrKD3LLGeV593epbl5e3yN4ie4vcutZ5ft4q5xiobpEJxfM2eP9zG7RkAO5yELN/Esj7HFdyrde2gIO8dgl4/otYwEFexIx+kbUt4CCvXQKe/yIWcJAXMaNfZG0LOMhrl4Dnv4gFHORFzOgXWdsCDvLaJeD5L2IBB3kRM/pF1rbAECDz0XM+x5v6W8rAfGzx8+fPB74iyh95ss0IVqsUykD+vX4A/Rz2GgLk29vb5BDlw4cPZ9kMUN6/f3/8nK9mKD6LyyeA+abzkl8XpZLwmV0+t6vlz+eGP3z4cPjy5cssfcOTyRudsG34xz4ajKmJyp+77hz5Nft0M0T95s2bZEE/efJkkr2BMVc5NIPJsXfv3k3KV04CIq4h16tZPn/+/HinkGtNXSKDlu/UCqt95J27zNSkybpLkDEmH1bXDGMde/v27dTyOLbAc/NHPio3ME5NFsi0qlOSg6xYbakWmdueBWnJ8am+68ePHxfJX2R89uyZYjX9kAUyeWCv2uQgKxZbAmRulfjUAsHU5VS3glZ8ap7aedfX15P89hKQcWNqk4OsWGwJkHPXEEiePn167FBJtILWiD8iGHQIr66ujiAqYmYP0XmSfHJLbuV0/MiTFp+OEbLQyaOzlzuP/bxnojaVgMy1kakmOciKtXIQlnb2rEIDVCvRok/prADlgwcPsiC+ePGiKBoB0BrMuC01ybKJ5FVqY8nbQRZLJJZzQdZaRAA5Z6K1FCjiJWG3mkTrGF8j3K4Jb5WCzPVrbOQgKyU6F+SXL18mAZjiAypi3jtECx6CFq5P7agRyw6vE67XRBpqQCaP0nCcg3wPg/93zAUZaMICl3WgOGfKVSDyr2k9Yxnx50WHeFkKXC3IxN1LkoOsWGkuyNJRiwt9SnhJEfPkEL5xnJ9s17ScJxf9vqG19CX+PpepBRnZS+zlIKdK7Pu+uSDf3NwkoartkSsi3jukxYyndBrjDHKRDMJxJWkKyCXREQdZsf5ckHNzGUpvl4po2UNEI6QFDpcAuESi5Q2vG66XuC0ayFq8HVC15CAr1pkLsha6KrldKqJlD+WGoZeqPJp7YcGG0BrIWiWxwnEOchaJw3FeQdjiyLplVLkkHSA5J7UsacHkWiVLKkcqH/Yt1cHU4tMlo48ayMioVX4tZu0gK4TMbZG5dO4aApxWOIpoyUNaYS55B8j5yURLrKSBLLagoRD7xMtcdETTfU7fIM4/3N7d7DctbIVhOE5BzE3awMWSrX9usAX/3EolIGt60DCkkoOcssr3fbnWtNS1kEtzO86F4sIaDtBzIhq5iAWdKGRYKuU6sSWDLSUgIyeDRqFtwvXU3cVBVkp3KZDJglti7pYcFhLrQD8F6NykeTqAuVuyon72UO7hAEJwgKqlUpC1TmWq5XeQFasvCbJkk4MthpltfLAa/y4HmPhyIsPcZU4HHs2yKkwpyMjIAE7KLuyLXTEHWSnVc4BMdtwatWHkuPBKR81y8tLCWy2lYoZ7h3JznHG5lgSZa8W2kO3YvXOQ7xXT/ztyYMRG/P+MujXmHFsdQSk4ZLFSLg5LS7mkj5xrKXGdrApT0yKjb04n7BKGFB1khY5zgyxZUwjc/gXa3NJqmSnY1LnMS14yapEbPSyZ1VcLMr+n4cjpJXcAB1loSixbgSxZA6I2TEth0ornklaYS4Kcm9WX6oTFstaCzPnavG55IFfTvaafEcubqkCyT/oeF3KS1RrJ71ovW4OMfrgAWuhJgwXIxcjxkoJeImktZMnsuikgI3eu8qAnlVTT3UFe+L0WNSDlBh0ouJy/y/4YYNkuGT4ukW/uMPhUkLVwHHFtB1kpvTVaZBGHAs+5GdobeXKx6pLhY8lbW869hU8FGZlyAzFU1lxIkGPeIq/YIlNwuTCXzElIAZc7hwKVjlHqvNJ9OZiIjACpleaArN1xtAdtHeSVQc4NOWtugtZihuEqC7jUcS2uq/nu4bXmgMx1tJZX3Kh46SBvFGTr6eJc68RQ9ZykTbEs7UzOBZnKlJtzHQMs27sHOXcbZaSsRcr56FbLmmvJKVirEuT00m7rNRVkLsjIp4XjBN5wOQTIGG5KouY/evQoGQXgWbwWCb8zLBBZt2LCmgvANaYUrBb+sipWaKslQOZ6pSOiU/UVmcXmqWXTODKtKv6bNpAgQofL3AQcFCqNAAAUPh3L2pTrtInxrOtprTKuRynMgKfFtYmS1KSlQEb+FFypfaW6pvRIXU/2SVmcfUAknqBNAQII+1NwYWR8Pau2l06xDPMHfm6JqXxDA3Jcq0Ra6C28DutaLJrCwBaaPCW3cOvuEMu0FMhct3TiVfcg5zo9UqO4dXPLpMVmLq3st5Zx4eS2cz1sWjH8X+ZOcFum9QSq3GQckadkLkMoC36tZQOujf7kjzwlcog8NS6FyLUkyJrfLjKy7BpkrVULlaxdr2kRc4MTtXny+6kz2Ggxc772FDnkHCrflLQkyOSfayxETpZdg6xN/wuVrFmnFS1Npa1Faf61t/BQTmQpedSqVJaayhzKwfrSIOMaWRW1a5AxGkoCn6VoSQFOCVvhb9fGPGNZ8AMp/CWSFgeO801tIwuVYk5aGmRkwcVJySv7ugdZDI7xgIoIRm5uqygdLoEQF2VO4ZE3hsYPDa9trQPNnAIQ3eMluuAHl7o9hCCxW+mAR5xfvH0OkMlD02eOHbVyaha1iI3INq00t2ngokABld49oNHZYh/+H8prPfrUta19QMR1pXPH3YI8kYF88fcAZk7FsWSQ4wCFHWilyRdZQhuILEvbgHy5Nq5f+Me+OcBxbu66c+y5WZClIH3pFiixgINcYiX/zeYt4CBvvohcwBILOMglVvLfbN4CDvLmi8gFLLGAg1xiJf/N5i1QBbI1z2HKYMTmLeQCbt4C1gCSfG7ibvZb7lsbYW1giJVZafzW/9wG52QAzkqG9JGBdAfyuSb4hBXB1y+qRhbdXra94PYEZO2dBG5Q26Buo3VsJA9r3LXIUF07F8ELb53Cc7v/Z3d4lXQCMmP6VqfPjejwboEBOA3noJyADN1MKMk9ubwFBVwGr0jwCadhugeyHGR2WM10SwfMATs3A/CYeyomC7IAzZRGpjlykZJnz86tjF9/PxUG3uAO/qy52FmQv337duDPSkv/jvy+fv1qZXuUzeVLm2mP9nOQv7NQWiG9oqUrz9r2c5Ad5DSZlXZxkBNm3OOtMWGGk11rg3IiTGJjbfkuRIB4+ffffx/4i/fH20v/juvzHFucT7y9dL6l13P5/us7TS2Pc9mvKciJiuy73AKLWOBfEJrP5jh8RLgAAAAASUVORK5CYII=;" parent="F-L6EfSc8vcWyVoIchHZ-1" vertex="1">
          <mxGeometry x="355.6600000000001" y="188" width="23.02" height="30" as="geometry" />
        </mxCell>
        <mxCell id="F-L6EfSc8vcWyVoIchHZ-25" value="" style="shape=image;verticalLabelPosition=bottom;labelBackgroundColor=default;verticalAlign=top;aspect=fixed;imageAspect=0;image=data:image/png,iVBORw0KGgoAAAANSUhEUgAAALIAAADoCAYAAABLn775AAAV3UlEQVR4Ae2dr48dNxCAj4cFBQWeFHboykpOYaEhhUGRwgOPhUSFgUFBYf0HKuUPKCguCorCCluQSq/6XjNXP589Y+/u8669Y+luf71dz4w/e8dj7+7FIZO+fft24M9KS/+O/L5+/Wple5TN5Uubaev2Q+qff/45LfzEvRfWeZ8+fTq8fv36cHl5eXjw4MHh4uLC/zq3AWV5e3t7+P33363i7+Z4FmQAvrq6cmg7h9ZqeF69enX4559/ugE2J2gS5I8fPzrAgwMcAv7jjz92D/M9kH/99VeHeEcQC9C9w3wC8p9//ukQ7xDiEOa//vord/fe9P4TkN++fesg7xhkgP7hhx+6dDNOQJaa6ct9R2Z6dDPuQP7tt9/M1pgoxtOnTw83Nzf+15ENKLPr62uzfMMGDJh7cjPuQH737p2qKLFkT/1a4JdfflHLN4RY1nuC+Q5kQBUFUsuRguf94jhd8vfv36vlmypz9vXiZtyB/Pz5c1VRIhqe+rXAVJB7gfkOZHqruVrJfk99W2AOyJQ/fGzZZ74j1EHuG1RL+rkgC8xbHc52kC0CBjm+BMjAvFWf2UEeBFRLDQtk5tc8fvxYdS8BWWDempvhIFsEDHLcAvmPP/44fPny5fDw4cMuYXaQBwHVUsMCWcKrnz9/LgJ5az6zg2wRMMjxUpBRtwbmrfjMDvIgoFpq1IAsMJe6GVsIzTnIFgGDHK8FuRbmtYezHeRBQLXUmAKywCzRCmu5ppvhIFsEDHJ8Ksi9wOwgDwKqpcYckAXmLfvMDrJFwCDH54IsMFvuhRynA9hyONtBHgRUS40lQK6FuaXP7CBbBAxyfCmQBebSl/W0imY4yIOAaqmxJMgCc6nP3AJmB9kiYJDjS4MsMItPbC3P7TM7yIOAaqlxDpBrYT6nz+wgWwQMcvxcIAvMpW7GuYazHeRBQLXUOCfIAvOaHUAH2SJgkOPnBllgtnxlOb60m+EgDwKqpUYLkNeE2UG2CBjkeCuQBebWPrODPAiolhotQRaYxY2wlkuE5hxki4BBjrcGuRbmuT6zgzwIqJYaa4AsMJe6GXNGAB1ki4BBjq8FciuYHeRBQLXUWBNkgdnyleX4FDfDQbYIGOT42iCfG2YHeRBQLTW2ALLAXOoz1wxnO8gWAYMc3wrIAnPpcHZpaM5BHgRUS40tgSwwi09sLUt8ZgfZImCQ41sDWWAubZktmB3kQUC11NgiyAJzqc+sxZkdZIuAQY5vFWTMy1tAHz16VPTyxJzP7CAPAqqlhgUyHwvly09r/PHZ6Ddv3hSBjD/N5/HiVw04yBYBgxy3QLY6XFs7zrcDw+Qgh9YYeH00kKlY3EUkOchiicGXI4IMzPIJiF2ATGcC34/vZPCFV3yykdKnT5+Oen348OGoJy/qjtOoIFOupGFBpjMAuJeXl8lOxJMnTw69fwST1oiQVMp/JT4L2NJijQoyncRhQeYD8YCaKuBwX9xhOFqko3+vXr0ydSSshT2o1KHuo6zzxd4hQa4tsJ5b5RoYib/W/L6X3xKKGw5k/KXaApCvGR2t0dE//P5aXV+8eHFsnfGpe/mjodH0pIIOBTLfidMUzh2LA+sdsTxJX+zUW8qVHfuHAxlfSVM4dYwIRs9pyh3o+vq6O5VTZSf7hgIZ90AUK13Six8hTYG5t/CjVqZDgfz69WsTZFpsCjAVYx0BaHxm9CuJZDx79qwrlXcDsjWnVWKNXZXeDGGJH2uFz7Ge+gaaLsO0yFavFsj3mHIDJQJFT50+kTm1HAZkK1qB27HHZI3kEX7rJaUAln3DgGx19Ebp1NVCZ3UCe+rwCbSppYNcS0Znv3eQLy6SHYWtlqO3yOmScZAd5DQZne11kB3kzpBNi+sgO8hpMjrb6yA7yJ0hmxbXQXaQ02RU7uXJDAZr5AmNytNn/9xBdpBnQcQATTwTjydReEqjZXKQHeTJvFlPp4SPr0/OpPBEB9lBLkTl9GfWULmMSrUaGnaQHeRTQgu3Sh52FZgLLznrZw6yg1wNUO3zcy2eE3SQHeRqkK1hcmmJZdliwo6D7CBXg1zqHwvILfxkB9lBrgaZEwTSkmWLpzMc5M5AJj6rwUNIrEWywBEZWz25TasveaaWyNtLSskv+4aZjwwYolRq2eI2LkD89NNPqiw8ftQqWe5OT0/OpMpV9g0DsvVsWuunpnOPGLUcDKGy4L5IYaeWjx8/7uYB1JT8sm8IkOn9i0K5ZQt/NG5lCcdxJ+BpZmRke410dXWl2gf5eki5smV/9yAzIcf6GtDt7W0P5XQ2GS23CxBa37GmKDssyLRwJV8BajHwMKVgWp1TOlCDP73lNBzItMIlrQyK9/Y2nXOBVPLmIezFS2zWcoEs3bsHGT8TA798+fIIpqZQfGzrrYxVeEsdL22VxX5MOcXeuGUtRiBL9BTZUsvN+8ilLUlKuZ5CSyUFOfc3uUhKynbxPnkj/FwZ5pwfyxRubxpka15vqEi87i5FGpk5DUPr0GGsQVzG4famQY6fsAgF19Y5b41wW2z4rW5PhXntdyprZb5pkGlVNeFzx3qJi64FekncPWVb5lqv2UCkZJJ9mwa55H3Hoki83EoHZS1Yc/nWTjUN7bq2uxbKEq9vGmTrVbGxMvF26wc9c/BsZT+DHrGNarbXHjTRZN00yABA2Giqr9zTPIIWsBNS02DIHaMl3sKgUk4+9m8eZClgeT8EBqX3rCkVHlu7py3yr72siQARs+duxh2Rv62ksFzj9W5Ajo1JpwODxwqltrc6UhXrdK5tGgHrsxTYjWjGWi+SKdE9Vbayr1uQRfGS72TsPYpREqXo4c4l0KaW3YMM0AyjppSTfWt/a3rNkBX2YahZbJFa8iXUHlJKdtk3BMj4cdatcw1fjzkizAVmhh4x2FaPW8VQSmHnlmtHI2J5c9s5+dk/BMgobo1WtQ7F5Vwe/PqWyZostHZsuMYWuwDZ8gNbPmRJ668ZvWXn03oot6ePBGk2HaZFtgqsZYfPeuCz5aijVcFbylLT+qZ+uwuQraHXli0PvrFm9JaVyno9gYOcqjIr7nOQ08Z3kDt7QYuD7CBjgQsxA06zdluU321t6SCnS8RbZG+R02QU7HUfucBIE36iNbDDRC28RU6T4S2yt8hpMgr2eotcYKQJP/EW+eLi4OG39LfFPfw2oUad8xR3LdLWddfCXYs0GQV73bUoMNKEn7hr4a5FNqTqrsWEGnXOU7bkWljzPlpO53TXwl2LyfXOmjrZ8n10DrKDPBlkTsw9ldF6/q+D7CDPApmHOONvifB5iNZPqjjIg4Hc6itKMf08RkSHqqU7EcpggUyEpZe0i6iF9Radm5ubXsprUTmtR8DoJPeSdgEyt3JNUY71VGhLwGV1OrFJy8eu5uqkle8wk4YwkvVKKJ607ulWOqfgcWUuLy/Vyo09ekq7AbnmtVB0xPCbW3e+zgUOdyTmk+SiJSkIengpS2ivlA6yb6gWucS9EMXD5VodsbCQ5qzjHpR83SrUmfWe3ArsE8sfbg8FMsrm3icRKh2v89bOnhOx6Vgna7v1+zWWsK+m03AgYzBeAaUpnTrWy9t2YiB4HVdKH20f8ey1X+MV61Gyrek0JMgUEuE2TfH4WK/uhfUymFhPOoC99gtiXcLtIUGmdgNzTctc0iJs9Tel/jFRHfoRvaYQ3Hh9WJClsBhVswqa0a+ekzXbjkLvXUfKJ4Y33B4eZAGUwubjOrwdk9srcOMrjhJXZrCHFhe96LyiJ6N6o+jnIAvJ0bLnW2ykysnmqHqhZNgCx+u7aZFPSts3urRADG+47SB3WaT7FDoEN153kPfJRJdax/CG2w5yl0W6T6FDcON1B3mfTHSpdQxvuO0gd1mk+xQ6BDded5D3yUSXWsfwhtsOcpdFuk+hQ3DjdQd5n0x0qXUMb7jtIHdZpPsUOgQ3XneQ98lEl1rH8IbbDnKXRbpPoUNw43UHeZ9MdKl1DG+47SB3WaT7FDoEN153kPfJRJdax/CG2w5yl0W6T6FDcON1B3mfTHSpdQxvuO0gd1mk+xQ6BDded5D3yUSXWsfwhtsOcpdFuk+hQ3DjdQd5n0x0qXUMb7jtIHdZpPsUOgQ3Xq8Gmdex+p/bYA0GYnjD7WqQw5N9Pf19Z7dLe7s4yJmP/jiM7WGcY3MH2UFW3+AzB66W5zrIDrKD3LLGeV593epbl5e3yN4ie4vcutZ5ft4q5xiobpEJxfM2eP9zG7RkAO5yELN/Esj7HFdyrde2gIO8dgl4/otYwEFexIx+kbUt4CCvXQKe/yIWcJAXMaNfZG0LOMhrl4Dnv4gFHORFzOgXWdsCDvLaJeD5L2IBB3kRM/pF1rbAECDz0XM+x5v6W8rAfGzx8+fPB74iyh95ss0IVqsUykD+vX4A/Rz2GgLk29vb5BDlw4cPZ9kMUN6/f3/8nK9mKD6LyyeA+abzkl8XpZLwmV0+t6vlz+eGP3z4cPjy5cssfcOTyRudsG34xz4ajKmJyp+77hz5Nft0M0T95s2bZEE/efJkkr2BMVc5NIPJsXfv3k3KV04CIq4h16tZPn/+/HinkGtNXSKDlu/UCqt95J27zNSkybpLkDEmH1bXDGMde/v27dTyOLbAc/NHPio3ME5NFsi0qlOSg6xYbakWmdueBWnJ8am+68ePHxfJX2R89uyZYjX9kAUyeWCv2uQgKxZbAmRulfjUAsHU5VS3glZ8ap7aedfX15P89hKQcWNqk4OsWGwJkHPXEEiePn167FBJtILWiD8iGHQIr66ujiAqYmYP0XmSfHJLbuV0/MiTFp+OEbLQyaOzlzuP/bxnojaVgMy1kakmOciKtXIQlnb2rEIDVCvRok/prADlgwcPsiC+ePGiKBoB0BrMuC01ybKJ5FVqY8nbQRZLJJZzQdZaRAA5Z6K1FCjiJWG3mkTrGF8j3K4Jb5WCzPVrbOQgKyU6F+SXL18mAZjiAypi3jtECx6CFq5P7agRyw6vE67XRBpqQCaP0nCcg3wPg/93zAUZaMICl3WgOGfKVSDyr2k9Yxnx50WHeFkKXC3IxN1LkoOsWGkuyNJRiwt9SnhJEfPkEL5xnJ9s17ScJxf9vqG19CX+PpepBRnZS+zlIKdK7Pu+uSDf3NwkoartkSsi3jukxYyndBrjDHKRDMJxJWkKyCXREQdZsf5ckHNzGUpvl4po2UNEI6QFDpcAuESi5Q2vG66XuC0ayFq8HVC15CAr1pkLsha6KrldKqJlD+WGoZeqPJp7YcGG0BrIWiWxwnEOchaJw3FeQdjiyLplVLkkHSA5J7UsacHkWiVLKkcqH/Yt1cHU4tMlo48ayMioVX4tZu0gK4TMbZG5dO4aApxWOIpoyUNaYS55B8j5yURLrKSBLLagoRD7xMtcdETTfU7fIM4/3N7d7DctbIVhOE5BzE3awMWSrX9usAX/3EolIGt60DCkkoOcssr3fbnWtNS1kEtzO86F4sIaDtBzIhq5iAWdKGRYKuU6sSWDLSUgIyeDRqFtwvXU3cVBVkp3KZDJglti7pYcFhLrQD8F6NykeTqAuVuyon72UO7hAEJwgKqlUpC1TmWq5XeQFasvCbJkk4MthpltfLAa/y4HmPhyIsPcZU4HHs2yKkwpyMjIAE7KLuyLXTEHWSnVc4BMdtwatWHkuPBKR81y8tLCWy2lYoZ7h3JznHG5lgSZa8W2kO3YvXOQ7xXT/ztyYMRG/P+MujXmHFsdQSk4ZLFSLg5LS7mkj5xrKXGdrApT0yKjb04n7BKGFB1khY5zgyxZUwjc/gXa3NJqmSnY1LnMS14yapEbPSyZ1VcLMr+n4cjpJXcAB1loSixbgSxZA6I2TEth0ornklaYS4Kcm9WX6oTFstaCzPnavG55IFfTvaafEcubqkCyT/oeF3KS1RrJ71ovW4OMfrgAWuhJgwXIxcjxkoJeImktZMnsuikgI3eu8qAnlVTT3UFe+L0WNSDlBh0ouJy/y/4YYNkuGT4ukW/uMPhUkLVwHHFtB1kpvTVaZBGHAs+5GdobeXKx6pLhY8lbW869hU8FGZlyAzFU1lxIkGPeIq/YIlNwuTCXzElIAZc7hwKVjlHqvNJ9OZiIjACpleaArN1xtAdtHeSVQc4NOWtugtZihuEqC7jUcS2uq/nu4bXmgMx1tJZX3Kh46SBvFGTr6eJc68RQ9ZykTbEs7UzOBZnKlJtzHQMs27sHOXcbZaSsRcr56FbLmmvJKVirEuT00m7rNRVkLsjIp4XjBN5wOQTIGG5KouY/evQoGQXgWbwWCb8zLBBZt2LCmgvANaYUrBb+sipWaKslQOZ6pSOiU/UVmcXmqWXTODKtKv6bNpAgQofL3AQcFCqNAAAUPh3L2pTrtInxrOtprTKuRynMgKfFtYmS1KSlQEb+FFypfaW6pvRIXU/2SVmcfUAknqBNAQII+1NwYWR8Pau2l06xDPMHfm6JqXxDA3Jcq0Ra6C28DutaLJrCwBaaPCW3cOvuEMu0FMhct3TiVfcg5zo9UqO4dXPLpMVmLq3st5Zx4eS2cz1sWjH8X+ZOcFum9QSq3GQckadkLkMoC36tZQOujf7kjzwlcog8NS6FyLUkyJrfLjKy7BpkrVULlaxdr2kRc4MTtXny+6kz2Ggxc772FDnkHCrflLQkyOSfayxETpZdg6xN/wuVrFmnFS1Npa1Faf61t/BQTmQpedSqVJaayhzKwfrSIOMaWRW1a5AxGkoCn6VoSQFOCVvhb9fGPGNZ8AMp/CWSFgeO801tIwuVYk5aGmRkwcVJySv7ugdZDI7xgIoIRm5uqygdLoEQF2VO4ZE3hsYPDa9trQPNnAIQ3eMluuAHl7o9hCCxW+mAR5xfvH0OkMlD02eOHbVyaha1iI3INq00t2ngokABld49oNHZYh/+H8prPfrUta19QMR1pXPH3YI8kYF88fcAZk7FsWSQ4wCFHWilyRdZQhuILEvbgHy5Nq5f+Me+OcBxbu66c+y5WZClIH3pFiixgINcYiX/zeYt4CBvvohcwBILOMglVvLfbN4CDvLmi8gFLLGAg1xiJf/N5i1QBbI1z2HKYMTmLeQCbt4C1gCSfG7ibvZb7lsbYW1giJVZafzW/9wG52QAzkqG9JGBdAfyuSb4hBXB1y+qRhbdXra94PYEZO2dBG5Q26Buo3VsJA9r3LXIUF07F8ELb53Cc7v/Z3d4lXQCMmP6VqfPjejwboEBOA3noJyADN1MKMk9ubwFBVwGr0jwCadhugeyHGR2WM10SwfMATs3A/CYeyomC7IAzZRGpjlykZJnz86tjF9/PxUG3uAO/qy52FmQv337duDPSkv/jvy+fv1qZXuUzeVLm2mP9nOQv7NQWiG9oqUrz9r2c5Ad5DSZlXZxkBNm3OOtMWGGk11rg3IiTGJjbfkuRIB4+ffffx/4i/fH20v/juvzHFucT7y9dL6l13P5/us7TS2Pc9mvKciJiuy73AKLWOBfEJrP5jh8RLgAAAAASUVORK5CYII=;" parent="F-L6EfSc8vcWyVoIchHZ-1" vertex="1">
          <mxGeometry x="456.68000000000006" y="188" width="23.02" height="30" as="geometry" />
        </mxCell>
        <mxCell id="F-L6EfSc8vcWyVoIchHZ-26" value="" style="shape=image;verticalLabelPosition=bottom;labelBackgroundColor=default;verticalAlign=top;aspect=fixed;imageAspect=0;image=data:image/png,iVBORw0KGgoAAAANSUhEUgAAALIAAADoCAYAAABLn775AAAV3UlEQVR4Ae2dr48dNxCAj4cFBQWeFHboykpOYaEhhUGRwgOPhUSFgUFBYf0HKuUPKCguCorCCluQSq/6XjNXP589Y+/u8669Y+luf71dz4w/e8dj7+7FIZO+fft24M9KS/+O/L5+/Wple5TN5Uubaev2Q+qff/45LfzEvRfWeZ8+fTq8fv36cHl5eXjw4MHh4uLC/zq3AWV5e3t7+P33363i7+Z4FmQAvrq6cmg7h9ZqeF69enX4559/ugE2J2gS5I8fPzrAgwMcAv7jjz92D/M9kH/99VeHeEcQC9C9w3wC8p9//ukQ7xDiEOa//vord/fe9P4TkN++fesg7xhkgP7hhx+6dDNOQJaa6ct9R2Z6dDPuQP7tt9/M1pgoxtOnTw83Nzf+15ENKLPr62uzfMMGDJh7cjPuQH737p2qKLFkT/1a4JdfflHLN4RY1nuC+Q5kQBUFUsuRguf94jhd8vfv36vlmypz9vXiZtyB/Pz5c1VRIhqe+rXAVJB7gfkOZHqruVrJfk99W2AOyJQ/fGzZZ74j1EHuG1RL+rkgC8xbHc52kC0CBjm+BMjAvFWf2UEeBFRLDQtk5tc8fvxYdS8BWWDempvhIFsEDHLcAvmPP/44fPny5fDw4cMuYXaQBwHVUsMCWcKrnz9/LgJ5az6zg2wRMMjxUpBRtwbmrfjMDvIgoFpq1IAsMJe6GVsIzTnIFgGDHK8FuRbmtYezHeRBQLXUmAKywCzRCmu5ppvhIFsEDHJ8Ksi9wOwgDwKqpcYckAXmLfvMDrJFwCDH54IsMFvuhRynA9hyONtBHgRUS40lQK6FuaXP7CBbBAxyfCmQBebSl/W0imY4yIOAaqmxJMgCc6nP3AJmB9kiYJDjS4MsMItPbC3P7TM7yIOAaqlxDpBrYT6nz+wgWwQMcvxcIAvMpW7GuYazHeRBQLXUOCfIAvOaHUAH2SJgkOPnBllgtnxlOb60m+EgDwKqpUYLkNeE2UG2CBjkeCuQBebWPrODPAiolhotQRaYxY2wlkuE5hxki4BBjrcGuRbmuT6zgzwIqJYaa4AsMJe6GXNGAB1ki4BBjq8FciuYHeRBQLXUWBNkgdnyleX4FDfDQbYIGOT42iCfG2YHeRBQLTW2ALLAXOoz1wxnO8gWAYMc3wrIAnPpcHZpaM5BHgRUS40tgSwwi09sLUt8ZgfZImCQ41sDWWAubZktmB3kQUC11NgiyAJzqc+sxZkdZIuAQY5vFWTMy1tAHz16VPTyxJzP7CAPAqqlhgUyHwvly09r/PHZ6Ddv3hSBjD/N5/HiVw04yBYBgxy3QLY6XFs7zrcDw+Qgh9YYeH00kKlY3EUkOchiicGXI4IMzPIJiF2ATGcC34/vZPCFV3yykdKnT5+Oen348OGoJy/qjtOoIFOupGFBpjMAuJeXl8lOxJMnTw69fwST1oiQVMp/JT4L2NJijQoyncRhQeYD8YCaKuBwX9xhOFqko3+vXr0ydSSshT2o1KHuo6zzxd4hQa4tsJ5b5RoYib/W/L6X3xKKGw5k/KXaApCvGR2t0dE//P5aXV+8eHFsnfGpe/mjodH0pIIOBTLfidMUzh2LA+sdsTxJX+zUW8qVHfuHAxlfSVM4dYwIRs9pyh3o+vq6O5VTZSf7hgIZ90AUK13Six8hTYG5t/CjVqZDgfz69WsTZFpsCjAVYx0BaHxm9CuJZDx79qwrlXcDsjWnVWKNXZXeDGGJH2uFz7Ge+gaaLsO0yFavFsj3mHIDJQJFT50+kTm1HAZkK1qB27HHZI3kEX7rJaUAln3DgGx19Ebp1NVCZ3UCe+rwCbSppYNcS0Znv3eQLy6SHYWtlqO3yOmScZAd5DQZne11kB3kzpBNi+sgO8hpMjrb6yA7yJ0hmxbXQXaQ02RU7uXJDAZr5AmNytNn/9xBdpBnQcQATTwTjydReEqjZXKQHeTJvFlPp4SPr0/OpPBEB9lBLkTl9GfWULmMSrUaGnaQHeRTQgu3Sh52FZgLLznrZw6yg1wNUO3zcy2eE3SQHeRqkK1hcmmJZdliwo6D7CBXg1zqHwvILfxkB9lBrgaZEwTSkmWLpzMc5M5AJj6rwUNIrEWywBEZWz25TasveaaWyNtLSskv+4aZjwwYolRq2eI2LkD89NNPqiw8ftQqWe5OT0/OpMpV9g0DsvVsWuunpnOPGLUcDKGy4L5IYaeWjx8/7uYB1JT8sm8IkOn9i0K5ZQt/NG5lCcdxJ+BpZmRke410dXWl2gf5eki5smV/9yAzIcf6GtDt7W0P5XQ2GS23CxBa37GmKDssyLRwJV8BajHwMKVgWp1TOlCDP73lNBzItMIlrQyK9/Y2nXOBVPLmIezFS2zWcoEs3bsHGT8TA798+fIIpqZQfGzrrYxVeEsdL22VxX5MOcXeuGUtRiBL9BTZUsvN+8ilLUlKuZ5CSyUFOfc3uUhKynbxPnkj/FwZ5pwfyxRubxpka15vqEi87i5FGpk5DUPr0GGsQVzG4famQY6fsAgF19Y5b41wW2z4rW5PhXntdyprZb5pkGlVNeFzx3qJi64FekncPWVb5lqv2UCkZJJ9mwa55H3Hoki83EoHZS1Yc/nWTjUN7bq2uxbKEq9vGmTrVbGxMvF26wc9c/BsZT+DHrGNarbXHjTRZN00yABA2Giqr9zTPIIWsBNS02DIHaMl3sKgUk4+9m8eZClgeT8EBqX3rCkVHlu7py3yr72siQARs+duxh2Rv62ksFzj9W5Ajo1JpwODxwqltrc6UhXrdK5tGgHrsxTYjWjGWi+SKdE9Vbayr1uQRfGS72TsPYpREqXo4c4l0KaW3YMM0AyjppSTfWt/a3rNkBX2YahZbJFa8iXUHlJKdtk3BMj4cdatcw1fjzkizAVmhh4x2FaPW8VQSmHnlmtHI2J5c9s5+dk/BMgobo1WtQ7F5Vwe/PqWyZostHZsuMYWuwDZ8gNbPmRJ668ZvWXn03oot6ePBGk2HaZFtgqsZYfPeuCz5aijVcFbylLT+qZ+uwuQraHXli0PvrFm9JaVyno9gYOcqjIr7nOQ08Z3kDt7QYuD7CBjgQsxA06zdluU321t6SCnS8RbZG+R02QU7HUfucBIE36iNbDDRC28RU6T4S2yt8hpMgr2eotcYKQJP/EW+eLi4OG39LfFPfw2oUad8xR3LdLWddfCXYs0GQV73bUoMNKEn7hr4a5FNqTqrsWEGnXOU7bkWljzPlpO53TXwl2LyfXOmjrZ8n10DrKDPBlkTsw9ldF6/q+D7CDPApmHOONvifB5iNZPqjjIg4Hc6itKMf08RkSHqqU7EcpggUyEpZe0i6iF9Radm5ubXsprUTmtR8DoJPeSdgEyt3JNUY71VGhLwGV1OrFJy8eu5uqkle8wk4YwkvVKKJ607ulWOqfgcWUuLy/Vyo09ekq7AbnmtVB0xPCbW3e+zgUOdyTmk+SiJSkIengpS2ivlA6yb6gWucS9EMXD5VodsbCQ5qzjHpR83SrUmfWe3ArsE8sfbg8FMsrm3icRKh2v89bOnhOx6Vgna7v1+zWWsK+m03AgYzBeAaUpnTrWy9t2YiB4HVdKH20f8ey1X+MV61Gyrek0JMgUEuE2TfH4WK/uhfUymFhPOoC99gtiXcLtIUGmdgNzTctc0iJs9Tel/jFRHfoRvaYQ3Hh9WJClsBhVswqa0a+ekzXbjkLvXUfKJ4Y33B4eZAGUwubjOrwdk9srcOMrjhJXZrCHFhe96LyiJ6N6o+jnIAvJ0bLnW2ykysnmqHqhZNgCx+u7aZFPSts3urRADG+47SB3WaT7FDoEN153kPfJRJdax/CG2w5yl0W6T6FDcON1B3mfTHSpdQxvuO0gd1mk+xQ6BDded5D3yUSXWsfwhtsOcpdFuk+hQ3DjdQd5n0x0qXUMb7jtIHdZpPsUOgQ3XneQ98lEl1rH8IbbDnKXRbpPoUNw43UHeZ9MdKl1DG+47SB3WaT7FDoEN153kPfJRJdax/CG2w5yl0W6T6FDcON1B3mfTHSpdQxvuO0gd1mk+xQ6BDded5D3yUSXWsfwhtsOcpdFuk+hQ3DjdQd5n0x0qXUMb7jtIHdZpPsUOgQ3Xq8Gmdex+p/bYA0GYnjD7WqQw5N9Pf19Z7dLe7s4yJmP/jiM7WGcY3MH2UFW3+AzB66W5zrIDrKD3LLGeV593epbl5e3yN4ie4vcutZ5ft4q5xiobpEJxfM2eP9zG7RkAO5yELN/Esj7HFdyrde2gIO8dgl4/otYwEFexIx+kbUt4CCvXQKe/yIWcJAXMaNfZG0LOMhrl4Dnv4gFHORFzOgXWdsCDvLaJeD5L2IBB3kRM/pF1rbAECDz0XM+x5v6W8rAfGzx8+fPB74iyh95ss0IVqsUykD+vX4A/Rz2GgLk29vb5BDlw4cPZ9kMUN6/f3/8nK9mKD6LyyeA+abzkl8XpZLwmV0+t6vlz+eGP3z4cPjy5cssfcOTyRudsG34xz4ajKmJyp+77hz5Nft0M0T95s2bZEE/efJkkr2BMVc5NIPJsXfv3k3KV04CIq4h16tZPn/+/HinkGtNXSKDlu/UCqt95J27zNSkybpLkDEmH1bXDGMde/v27dTyOLbAc/NHPio3ME5NFsi0qlOSg6xYbakWmdueBWnJ8am+68ePHxfJX2R89uyZYjX9kAUyeWCv2uQgKxZbAmRulfjUAsHU5VS3glZ8ap7aedfX15P89hKQcWNqk4OsWGwJkHPXEEiePn167FBJtILWiD8iGHQIr66ujiAqYmYP0XmSfHJLbuV0/MiTFp+OEbLQyaOzlzuP/bxnojaVgMy1kakmOciKtXIQlnb2rEIDVCvRok/prADlgwcPsiC+ePGiKBoB0BrMuC01ybKJ5FVqY8nbQRZLJJZzQdZaRAA5Z6K1FCjiJWG3mkTrGF8j3K4Jb5WCzPVrbOQgKyU6F+SXL18mAZjiAypi3jtECx6CFq5P7agRyw6vE67XRBpqQCaP0nCcg3wPg/93zAUZaMICl3WgOGfKVSDyr2k9Yxnx50WHeFkKXC3IxN1LkoOsWGkuyNJRiwt9SnhJEfPkEL5xnJ9s17ScJxf9vqG19CX+PpepBRnZS+zlIKdK7Pu+uSDf3NwkoartkSsi3jukxYyndBrjDHKRDMJxJWkKyCXREQdZsf5ckHNzGUpvl4po2UNEI6QFDpcAuESi5Q2vG66XuC0ayFq8HVC15CAr1pkLsha6KrldKqJlD+WGoZeqPJp7YcGG0BrIWiWxwnEOchaJw3FeQdjiyLplVLkkHSA5J7UsacHkWiVLKkcqH/Yt1cHU4tMlo48ayMioVX4tZu0gK4TMbZG5dO4aApxWOIpoyUNaYS55B8j5yURLrKSBLLagoRD7xMtcdETTfU7fIM4/3N7d7DctbIVhOE5BzE3awMWSrX9usAX/3EolIGt60DCkkoOcssr3fbnWtNS1kEtzO86F4sIaDtBzIhq5iAWdKGRYKuU6sSWDLSUgIyeDRqFtwvXU3cVBVkp3KZDJglti7pYcFhLrQD8F6NykeTqAuVuyon72UO7hAEJwgKqlUpC1TmWq5XeQFasvCbJkk4MthpltfLAa/y4HmPhyIsPcZU4HHs2yKkwpyMjIAE7KLuyLXTEHWSnVc4BMdtwatWHkuPBKR81y8tLCWy2lYoZ7h3JznHG5lgSZa8W2kO3YvXOQ7xXT/ztyYMRG/P+MujXmHFsdQSk4ZLFSLg5LS7mkj5xrKXGdrApT0yKjb04n7BKGFB1khY5zgyxZUwjc/gXa3NJqmSnY1LnMS14yapEbPSyZ1VcLMr+n4cjpJXcAB1loSixbgSxZA6I2TEth0ornklaYS4Kcm9WX6oTFstaCzPnavG55IFfTvaafEcubqkCyT/oeF3KS1RrJ71ovW4OMfrgAWuhJgwXIxcjxkoJeImktZMnsuikgI3eu8qAnlVTT3UFe+L0WNSDlBh0ouJy/y/4YYNkuGT4ukW/uMPhUkLVwHHFtB1kpvTVaZBGHAs+5GdobeXKx6pLhY8lbW869hU8FGZlyAzFU1lxIkGPeIq/YIlNwuTCXzElIAZc7hwKVjlHqvNJ9OZiIjACpleaArN1xtAdtHeSVQc4NOWtugtZihuEqC7jUcS2uq/nu4bXmgMx1tJZX3Kh46SBvFGTr6eJc68RQ9ZykTbEs7UzOBZnKlJtzHQMs27sHOXcbZaSsRcr56FbLmmvJKVirEuT00m7rNRVkLsjIp4XjBN5wOQTIGG5KouY/evQoGQXgWbwWCb8zLBBZt2LCmgvANaYUrBb+sipWaKslQOZ6pSOiU/UVmcXmqWXTODKtKv6bNpAgQofL3AQcFCqNAAAUPh3L2pTrtInxrOtprTKuRynMgKfFtYmS1KSlQEb+FFypfaW6pvRIXU/2SVmcfUAknqBNAQII+1NwYWR8Pau2l06xDPMHfm6JqXxDA3Jcq0Ra6C28DutaLJrCwBaaPCW3cOvuEMu0FMhct3TiVfcg5zo9UqO4dXPLpMVmLq3st5Zx4eS2cz1sWjH8X+ZOcFum9QSq3GQckadkLkMoC36tZQOujf7kjzwlcog8NS6FyLUkyJrfLjKy7BpkrVULlaxdr2kRc4MTtXny+6kz2Ggxc772FDnkHCrflLQkyOSfayxETpZdg6xN/wuVrFmnFS1Npa1Faf61t/BQTmQpedSqVJaayhzKwfrSIOMaWRW1a5AxGkoCn6VoSQFOCVvhb9fGPGNZ8AMp/CWSFgeO801tIwuVYk5aGmRkwcVJySv7ugdZDI7xgIoIRm5uqygdLoEQF2VO4ZE3hsYPDa9trQPNnAIQ3eMluuAHl7o9hCCxW+mAR5xfvH0OkMlD02eOHbVyaha1iI3INq00t2ngokABld49oNHZYh/+H8prPfrUta19QMR1pXPH3YI8kYF88fcAZk7FsWSQ4wCFHWilyRdZQhuILEvbgHy5Nq5f+Me+OcBxbu66c+y5WZClIH3pFiixgINcYiX/zeYt4CBvvohcwBILOMglVvLfbN4CDvLmi8gFLLGAg1xiJf/N5i1QBbI1z2HKYMTmLeQCbt4C1gCSfG7ibvZb7lsbYW1giJVZafzW/9wG52QAzkqG9JGBdAfyuSb4hBXB1y+qRhbdXra94PYEZO2dBG5Q26Buo3VsJA9r3LXIUF07F8ELb53Cc7v/Z3d4lXQCMmP6VqfPjejwboEBOA3noJyADN1MKMk9ubwFBVwGr0jwCadhugeyHGR2WM10SwfMATs3A/CYeyomC7IAzZRGpjlykZJnz86tjF9/PxUG3uAO/qy52FmQv337duDPSkv/jvy+fv1qZXuUzeVLm2mP9nOQv7NQWiG9oqUrz9r2c5Ad5DSZlXZxkBNm3OOtMWGGk11rg3IiTGJjbfkuRIB4+ffffx/4i/fH20v/juvzHFucT7y9dL6l13P5/us7TS2Pc9mvKciJiuy73AKLWOBfEJrP5jh8RLgAAAAASUVORK5CYII=;" parent="F-L6EfSc8vcWyVoIchHZ-1" vertex="1">
          <mxGeometry x="550.6399999999999" y="187" width="23.02" height="30" as="geometry" />
        </mxCell>
        <mxCell id="F-L6EfSc8vcWyVoIchHZ-27" style="edgeStyle=orthogonalEdgeStyle;rounded=0;orthogonalLoop=1;jettySize=auto;html=1;entryX=0;entryY=0.5;entryDx=0;entryDy=0;" parent="F-L6EfSc8vcWyVoIchHZ-1" edge="1">
          <mxGeometry relative="1" as="geometry">
            <mxPoint x="1528.1800000000003" y="370.5" as="targetPoint" />
          </mxGeometry>
        </mxCell>
        <mxCell id="F-L6EfSc8vcWyVoIchHZ-28" value="" style="image;aspect=fixed;html=1;points=[];align=center;fontSize=12;image=img/lib/azure2/integration/API_Management_Services.svg;" parent="F-L6EfSc8vcWyVoIchHZ-1" vertex="1">
          <mxGeometry x="757" y="80" width="32.5" height="30" as="geometry" />
        </mxCell>
        <mxCell id="F-L6EfSc8vcWyVoIchHZ-29" value="HTTP Rest" style="text;html=1;align=center;verticalAlign=middle;resizable=0;points=[];autosize=1;strokeColor=none;fillColor=none;spacing=0;fontSize=10;" parent="F-L6EfSc8vcWyVoIchHZ-1" vertex="1">
          <mxGeometry x="453.18000000000006" y="168" width="70" height="20" as="geometry" />
        </mxCell>
        <mxCell id="F-L6EfSc8vcWyVoIchHZ-30" value="" style="rounded=1;whiteSpace=wrap;html=1;" parent="F-L6EfSc8vcWyVoIchHZ-1" vertex="1">
          <mxGeometry x="309" y="268.75" width="116" height="158.25" as="geometry" />
        </mxCell>
        <mxCell id="F-L6EfSc8vcWyVoIchHZ-31" value="&lt;b&gt;&lt;font style=&quot;font-size: 10px;&quot;&gt;Workflow &amp;amp; &lt;br&gt;Orchestration&lt;/font&gt;&lt;/b&gt;" style="text;html=1;align=center;verticalAlign=middle;resizable=0;points=[];autosize=1;strokeColor=none;fillColor=none;" parent="F-L6EfSc8vcWyVoIchHZ-1" vertex="1">
          <mxGeometry x="324.67999999999984" y="269" width="90" height="40" as="geometry" />
        </mxCell>
        <mxCell id="F-L6EfSc8vcWyVoIchHZ-32" value="Azure&lt;br&gt;Function" style="text;html=1;align=center;verticalAlign=middle;resizable=0;points=[];autosize=1;strokeColor=none;fillColor=none;" parent="F-L6EfSc8vcWyVoIchHZ-1" vertex="1">
          <mxGeometry x="307.68000000000006" y="310" width="70" height="40" as="geometry" />
        </mxCell>
        <mxCell id="F-L6EfSc8vcWyVoIchHZ-33" value="" style="image;aspect=fixed;html=1;points=[];align=center;fontSize=12;image=img/lib/azure2/compute/Function_Apps.svg;" parent="F-L6EfSc8vcWyVoIchHZ-1" vertex="1">
          <mxGeometry x="372.68000000000006" y="316" width="38.53" height="34" as="geometry" />
        </mxCell>
        <mxCell id="F-L6EfSc8vcWyVoIchHZ-34" value="" style="image;aspect=fixed;html=1;points=[];align=center;fontSize=12;image=img/lib/azure2/integration/Logic_Apps.svg;" parent="F-L6EfSc8vcWyVoIchHZ-1" vertex="1">
          <mxGeometry x="370.68000000000006" y="378.25" width="41.23" height="32" as="geometry" />
        </mxCell>
        <mxCell id="F-L6EfSc8vcWyVoIchHZ-35" value="Logic&amp;nbsp;&lt;br&gt;Apps" style="text;html=1;align=center;verticalAlign=middle;resizable=0;points=[];autosize=1;strokeColor=none;fillColor=none;" parent="F-L6EfSc8vcWyVoIchHZ-1" vertex="1">
          <mxGeometry x="310.68000000000006" y="373.25" width="60" height="40" as="geometry" />
        </mxCell>
        <mxCell id="F-L6EfSc8vcWyVoIchHZ-36" value="" style="rounded=1;whiteSpace=wrap;html=1;" parent="F-L6EfSc8vcWyVoIchHZ-1" vertex="1">
          <mxGeometry x="443" y="267.75" width="116" height="158.25" as="geometry" />
        </mxCell>
        <mxCell id="F-L6EfSc8vcWyVoIchHZ-37" value="&lt;b&gt;&lt;font style=&quot;font-size: 10px;&quot;&gt;Queue, Topics, &lt;br&gt;Subscription &lt;br&gt;&amp;amp; Events&lt;/font&gt;&lt;/b&gt;" style="text;html=1;align=center;verticalAlign=middle;resizable=0;points=[];autosize=1;strokeColor=none;fillColor=none;" parent="F-L6EfSc8vcWyVoIchHZ-1" vertex="1">
          <mxGeometry x="458.67999999999984" y="258" width="90" height="60" as="geometry" />
        </mxCell>
        <mxCell id="F-L6EfSc8vcWyVoIchHZ-38" value="" style="edgeStyle=elbowEdgeStyle;rounded=0;orthogonalLoop=1;jettySize=auto;html=1;shape=flexArrow;startArrow=block;endSize=2;startSize=2;" parent="F-L6EfSc8vcWyVoIchHZ-1" edge="1">
          <mxGeometry relative="1" as="geometry">
            <mxPoint x="560" y="348" as="sourcePoint" />
            <mxPoint x="609.9999999999998" y="347.875" as="targetPoint" />
          </mxGeometry>
        </mxCell>
        <mxCell id="F-L6EfSc8vcWyVoIchHZ-39" value="Service&lt;br&gt;Bus" style="text;html=1;align=center;verticalAlign=middle;resizable=0;points=[];autosize=1;strokeColor=none;fillColor=none;" parent="F-L6EfSc8vcWyVoIchHZ-1" vertex="1">
          <mxGeometry x="498.68000000000006" y="312.5" width="60" height="40" as="geometry" />
        </mxCell>
        <mxCell id="F-L6EfSc8vcWyVoIchHZ-40" value="" style="image;aspect=fixed;html=1;points=[];align=center;fontSize=12;image=img/lib/azure2/integration/Service_Bus.svg;" parent="F-L6EfSc8vcWyVoIchHZ-1" vertex="1">
          <mxGeometry x="454.29999999999995" y="316" width="37.4" height="33" as="geometry" />
        </mxCell>
        <mxCell id="F-L6EfSc8vcWyVoIchHZ-41" value="" style="image;sketch=0;aspect=fixed;html=1;points=[];align=center;fontSize=12;image=img/lib/mscae/Event_Grid.svg;" parent="F-L6EfSc8vcWyVoIchHZ-1" vertex="1">
          <mxGeometry x="459.19999999999993" y="383.39" width="27.61" height="27.61" as="geometry" />
        </mxCell>
        <mxCell id="F-L6EfSc8vcWyVoIchHZ-42" value="Event &lt;br&gt;Grid" style="text;html=1;align=center;verticalAlign=middle;resizable=0;points=[];autosize=1;strokeColor=none;fillColor=none;rotation=0;" parent="F-L6EfSc8vcWyVoIchHZ-1" vertex="1">
          <mxGeometry x="503.68000000000006" y="371" width="50" height="40" as="geometry" />
        </mxCell>
        <UserObject label="&lt;div style=&quot;font-size: 1px&quot;&gt;&lt;/div&gt;" tags="Connector" id="F-L6EfSc8vcWyVoIchHZ-43">
          <mxCell style="vsdxID=1025;edgeStyle=none;dashed=1;startArrow=none;endArrow=block;startSize=9;endSize=9;strokeColor=#000000;spacingTop=0;spacingBottom=0;spacingLeft=0;spacingRight=0;verticalAlign=middle;html=1;labelBackgroundColor=#ffffff;rounded=0;align=center;entryX=0;entryY=0.5208333333333334;entryDx=0;entryDy=0;entryPerimeter=0;fillColor=#000000;" parent="F-L6EfSc8vcWyVoIchHZ-1" edge="1">
            <mxGeometry relative="1" as="geometry">
              <mxPoint as="offset" />
              <Array as="points">
                <mxPoint x="425.0799999999999" y="331.48" />
              </Array>
              <mxPoint x="416" y="331.07" as="sourcePoint" />
              <mxPoint x="462.0799999999999" y="331.48" as="targetPoint" />
            </mxGeometry>
          </mxCell>
        </UserObject>
        <UserObject label="&lt;div style=&quot;font-size: 1px&quot;&gt;&lt;/div&gt;" tags="Connector" id="F-L6EfSc8vcWyVoIchHZ-44">
          <mxCell style="vsdxID=1025;edgeStyle=none;dashed=1;startArrow=none;endArrow=block;startSize=9;endSize=9;strokeColor=#000000;spacingTop=0;spacingBottom=0;spacingLeft=0;spacingRight=0;verticalAlign=middle;html=1;labelBackgroundColor=#ffffff;rounded=0;align=center;fillColor=#000000;" parent="F-L6EfSc8vcWyVoIchHZ-1" target="F-L6EfSc8vcWyVoIchHZ-41" edge="1">
            <mxGeometry relative="1" as="geometry">
              <mxPoint as="offset" />
              <Array as="points">
                <mxPoint x="475.0799999999999" y="348.48" />
              </Array>
              <mxPoint x="466" y="348.07" as="sourcePoint" />
              <mxPoint x="512.0799999999999" y="348.48" as="targetPoint" />
            </mxGeometry>
          </mxCell>
        </UserObject>
        <UserObject label="&lt;div style=&quot;font-size: 1px&quot;&gt;&lt;font style=&quot;font-size:11.29px;font-family:Segoe UI;color:#000000;direction:ltr;letter-spacing:0px;line-height:120%;opacity:1&quot;&gt;&lt;br&gt;&lt;/font&gt;&lt;/div&gt;" tags="Connector" id="F-L6EfSc8vcWyVoIchHZ-45">
          <mxCell style="vsdxID=1026;edgeStyle=none;dashed=1;startArrow=none;endArrow=block;startSize=9;endSize=9;strokeColor=#000000;spacingTop=0;spacingBottom=0;spacingLeft=0;spacingRight=0;verticalAlign=middle;html=1;labelBackgroundColor=#ffffff;rounded=0;align=center;entryX=1;entryY=0.5208333333333334;entryDx=0;entryDy=0;entryPerimeter=0;" parent="F-L6EfSc8vcWyVoIchHZ-1" edge="1">
            <mxGeometry relative="1" as="geometry">
              <mxPoint x="-1" as="offset" />
              <Array as="points" />
              <mxPoint x="455" y="394" as="sourcePoint" />
              <mxPoint x="410" y="394.25" as="targetPoint" />
            </mxGeometry>
          </mxCell>
        </UserObject>
        <UserObject label="" tags="Background" id="F-L6EfSc8vcWyVoIchHZ-46">
          <mxCell style="vsdxID=112;fillColor=none;gradientColor=none;strokeColor=none;strokeWidth=2;spacingTop=-3;spacingBottom=-3;spacingLeft=-3;spacingRight=-3;points=[[-0.03,0.49,0],[0.5,0,0],[1.01,0.49,0],[0.5,1.03,0],[0.5,1.65,0],[0.5,0.5,0]];labelBackgroundColor=none;rounded=0;html=1;whiteSpace=wrap;" parent="F-L6EfSc8vcWyVoIchHZ-1" vertex="1">
            <mxGeometry x="438" y="499" width="59" height="38" as="geometry" />
          </mxCell>
        </UserObject>
        <mxCell id="F-L6EfSc8vcWyVoIchHZ-47" style="vsdxID=113;fillColor=#0078d7;gradientColor=none;shape=stencil(nVfbbhw3DP2afRV4FcXHIk3/I2icelHXDjZO6/59OfcVPfZ4O1gQsyOdmcMjkqJO/OnH/ZfvdyeCH8+Xpz/v/jl/fb4/8a8novPj/d3l/Bx3J/584k/fni53f1yefj5+nf5//zLMHO7+evp7eMPLhHMohAOK4N/piUkBG5/8NgF+/3mZEDhNaLWQMLc62RmMV2hZfuw+Db/QjKXiXBVstG3GzoNm8eJWzUY7D77wjMTCOs/fHjXemMIvQfbh/HjlHUlp1nmXMP8DkOVALSzsqKMVX1xeFBlfIDENq6m0rIgVZa+NJitJESwVxLnFXQXtFQmk9IJoK5YFyXT3vzcPSi3AaFIn2zMNRwmxCoy2J8paKlWECCiy6pC5XuvKG+TW1UuYVwC9bXZBvgXAEbzyPiCrzVz46urVHt7XQN2rGFXNkRHYJcfCZsEhXqzgBoBWI89SurCUWnvBqRWQg+gImBNUltFqzzdiB7dwxG2RtyB4FTwLX4qiYS2crIjuDHOJ2fhqMUx8tRzS9bKGsqZYxvgiqYmrOswpvFIVKxCpKDbaGkvQ00UooOSDj6OFJK/GwntPd4Qc8K0cnEyRJ5sIv/XNmVP14sYqMlpNhGPhHLFhVWtDlUmEoy5T1peK2gFhq0WbMeBoCbCnTFjWghCjvqTHWty8rO6ETZTDH3JRphqhYa9CIgqnpYofkOH/EWW+EjltT+EOmwkpiMC67KvENbJmvaznC4chAAfUhEpTQ6HJblGH/ReWfAoBlmwCplcRqi0WBEYb+npPL1ylpF4k1OGCU7cHW89vfAGjD4nXNILMesL7YFrBSzJSc/4IW8v5lAr4FWgXc7t7Oww/6Nu+MLctxru7WQLsNCL4Tl92tHTQOySxvbQWKQkqNTo5qL1D0DsTjYfjQWRBTyiavSUL0RB7NuEKbhdsPdU87lRmP6AqaVY7ST3MzjtJL3WUGmmd2gmz0wXvdrLzoNeybksce3TugqNEmdaKk82JnQpNtOicGr1lzttq+9CZyLqX56Z0+0j+6iqxRL+99XRJ4m36Uqxtaabe5rSBlhjw0lzQfLBptwsHFKiKTrYn99YpY1Msb3bpVLMTAx84CcXNdo76dn54mI5h1+P53BWPpjMbf/4P);strokeColor=none;strokeWidth=2;spacingTop=-3;spacingBottom=-3;spacingLeft=-3;spacingRight=-3;points=[[-0.03,0.49,0],[0.5,0,0],[1.01,0.49,0],[0.5,1.03,0],[0.5,1.65,0],[0.5,0.5,0]];labelBackgroundColor=none;rounded=0;html=1;whiteSpace=wrap;" parent="F-L6EfSc8vcWyVoIchHZ-46" vertex="1">
          <mxGeometry width="39" height="29" as="geometry" />
        </mxCell>
        <mxCell id="F-L6EfSc8vcWyVoIchHZ-48" style="vsdxID=114;fillColor=#0078d7;gradientColor=none;shape=stencil(rZbbTtwwEIafZm+tOXvmsqLwHqgsZVXKogVa+vadbDZk7QbSSr2Jkvgf+5uT7Q1fPN1dP243BE/Ph/237c/dzfPdhj9viHYPd9vD7jnfNny54Yvb/WH79bB/ebgZvx+vB+Xw9n3/Y5jhdbSrUqQOVgS/xj/EJcY/V6PBl5fDaIGjwKJUAGYKY65yMj4NRnElQqvi1Xwce6VxTHOQSDCU2RUBJtvTOJzkPH6KFz0J+FxwxIJPC2QsxcgxwCMAsCWDFibdBFcx0AhmAaAWBqWQa0UZnwDe0hEUaumYT7zvAyIXocgAVSWJ2gImvXiOuBHYzD8B12LqqNWAzNhaWs6ccM1sJlempkXl4t6iSk5GHev97uGsLtjLlJ1Fkz99E0gEUoxkcOPWN+GCrqoZRsIp1JNnIoVDEU25omPrWU7LIeBuFilaK5GjfCULqsVA3FmO1dKRLq53gjEsXC2XNSRTiugqOHmCyaopes7fwg7GXR6yI0RWaN9dc27HUKjsgUZqXcstujpVVObYZ96IteAOBmvBXU4mfrzinGsXTmey+7IHOtp0JarnvMrAXTeelevEioXswxKHpr47/ULvFlV2CqjugF19ey1KoKSi2OcAoYTXGshD72NEl4bcCLuthQpj682keT/ug9HZhtbizUvQm/ptH6Zq60BCa0BtcM9NFix6eR5DKP9R3kdnMOBwEcMKQSvRSTUpOGdBDvW4Ep2j+l/T5VmwWrN5j0fpWrrefkwQTiWGpzDkoaIt0Kyed561tp1tpj7GAgoBjBhuXaMmvZqTVslNpy8fGmJdgxFY8kDrt5XzG8dUX+2VY6Gc/uKaki/zJed2d38/3pHOx/tLUf4aL1R8+Rs=);strokeColor=none;strokeWidth=2;spacingTop=-3;spacingBottom=-3;spacingLeft=-3;spacingRight=-3;points=[[-0.03,0.49,0],[0.5,0,0],[1.01,0.49,0],[0.5,1.03,0],[0.5,1.65,0],[0.5,0.5,0]];labelBackgroundColor=none;rounded=0;html=1;whiteSpace=wrap;" parent="F-L6EfSc8vcWyVoIchHZ-46" vertex="1">
          <mxGeometry x="12" y="6" width="46" height="31" as="geometry" />
        </mxCell>
        <mxCell id="F-L6EfSc8vcWyVoIchHZ-49" value="&lt;div style=&quot;font-size: 1px&quot;&gt;&lt;font style=&quot;font-size:12.7px;font-family:Segoe UI;color:#000000;direction:ltr;letter-spacing:0px;line-height:120%;opacity:1&quot;&gt;Azure Services&lt;br/&gt;&lt;/font&gt;&lt;/div&gt;" style="text;vsdxID=112;fillColor=none;gradientColor=none;strokeColor=none;strokeWidth=2;spacingTop=-3;spacingBottom=-3;spacingLeft=-3;spacingRight=-3;points=[[-0.03,0.49,0],[0.5,0,0],[1.01,0.49,0],[0.5,1.03,0],[0.5,1.65,0],[0.5,0.5,0]];labelBackgroundColor=none;rounded=0;html=1;whiteSpace=wrap;verticalAlign=top;align=center;overflow=width;;html=1;" parent="F-L6EfSc8vcWyVoIchHZ-46" vertex="1">
          <mxGeometry x="-20.23" y="39" width="84" height="15.25" as="geometry" />
        </mxCell>
        <UserObject label="&lt;div style=&quot;&quot;&gt;&lt;font style=&quot;color: rgb(0, 0, 0); direction: ltr; letter-spacing: 0px; line-height: 120%; opacity: 1;&quot;&gt;&lt;font style=&quot;font-size: 10px;&quot; face=&quot;Helvetica&quot;&gt;Events&lt;/font&gt;&lt;br&gt;&lt;/font&gt;&lt;/div&gt;" tags="Connector" id="F-L6EfSc8vcWyVoIchHZ-50">
          <mxCell style="vsdxID=1026;edgeStyle=none;dashed=1;startArrow=classic;endArrow=classic;startSize=9;endSize=9;strokeColor=#000000;spacingTop=0;spacingBottom=0;spacingLeft=0;spacingRight=0;verticalAlign=middle;html=1;labelBackgroundColor=#ffffff;rounded=0;align=center;exitX=0.5;exitY=0;exitDx=0;exitDy=0;exitPerimeter=0;endFill=1;startFill=1;" parent="F-L6EfSc8vcWyVoIchHZ-1" source="F-L6EfSc8vcWyVoIchHZ-48" edge="1">
            <mxGeometry relative="1" as="geometry">
              <mxPoint x="-1" as="offset" />
              <Array as="points" />
              <mxPoint x="552" y="436" as="sourcePoint" />
              <mxPoint x="473.45851154833235" y="400" as="targetPoint" />
            </mxGeometry>
          </mxCell>
        </UserObject>
        <UserObject label="" tags="Background" id="F-L6EfSc8vcWyVoIchHZ-51">
          <mxCell style="vsdxID=98;fillColor=none;gradientColor=none;strokeColor=none;spacingTop=-3;spacingBottom=-3;spacingLeft=-3;spacingRight=-3;points=[[0.5,1.75,0],[0.5,0,0],[0,0.5,0],[1,0.5,0]];labelBackgroundColor=none;rounded=0;html=1;whiteSpace=wrap;" parent="F-L6EfSc8vcWyVoIchHZ-1" vertex="1">
            <mxGeometry x="524" y="577" width="100" height="40" as="geometry" />
          </mxCell>
        </UserObject>
        <mxCell id="F-L6EfSc8vcWyVoIchHZ-52" style="vsdxID=99;fillColor=#000000;gradientColor=none;shape=stencil(vZTNcoMgEICfhqM7wIrAOU3fg2lQmVp10DTp21eLRtF0eqq3Zf/4dmGX4KkrTWsJp13vm3d7c5e+JPhCOHd1ab3rB4ngmeApb7wtfHOtL+HcmtFzlD6azzHDPcQxSscYTr/COVOg0h/Na3A3/m2w+smdc1AYAvwUgQzSEDHnVBRElBQV8NklMXfXJb7pTe+aOtgnhMr4wibDhUlemSIydTdr2536OaICkW0QNSCLEAUDxIiRHsanYbSt+VIKHCM+jo8iJh+egTiuhxLotocSuIgYNx8HF/sRfPOfW/FJFfdQAZMRo9ag5f8xVq5eTZbMHu+8u/5pUQpQxjUxBoJHNcml8GNq2o2/FrvxFzpi/H2lHND1P/fZICy7MHdVFVbp2r7dnYMq7F08fwM=);strokeColor=none;spacingTop=-3;spacingBottom=-3;spacingLeft=-3;spacingRight=-3;points=[[0.5,1.75,0],[0.5,0,0],[0,0.5,0],[1,0.5,0]];labelBackgroundColor=none;rounded=0;html=1;whiteSpace=wrap;" parent="F-L6EfSc8vcWyVoIchHZ-51" vertex="1">
          <mxGeometry width="54" height="40" as="geometry" />
        </mxCell>
        <mxCell id="F-L6EfSc8vcWyVoIchHZ-53" style="vsdxID=100;fillColor=#e3e3e3;gradientColor=none;shape=stencil(vVHLDsIgEPwajiQI6RfU+h8bu22JCGRB2/69kG1iazx58DazM/vIjjBtmiCi0CplCjecbZ8nYc5Ca+snJJsLEqYTph0C4Ujh4XvmEaqzont41gkL96naodXKrGF6YSfQtUi0OXXDVlqPfJNP6usotUhYbJIUMmQb/GGrAxpRljVycDBuc1hKM2LclX8/7H9nFfB+82Cd45T2+mcspcSRmu4F);strokeColor=none;spacingTop=-3;spacingBottom=-3;spacingLeft=-3;spacingRight=-3;points=[[0.5,1.75,0],[0.5,0,0],[0,0.5,0],[1,0.5,0]];labelBackgroundColor=none;rounded=0;html=1;whiteSpace=wrap;" parent="F-L6EfSc8vcWyVoIchHZ-51" vertex="1">
          <mxGeometry x="13" y="22" width="4" height="4" as="geometry" />
        </mxCell>
        <mxCell id="F-L6EfSc8vcWyVoIchHZ-54" style="vsdxID=101;fillColor=#FFFFFF;gradientColor=none;shape=stencil(nVbLctswDPwaHY0hCT7Pqfsfmlq2NVEsD600zt8XqmzVJMdI2BtFYgVwsQDY4Mvl2J67RonLFMfX7qPfTccGfzRK9adjF/uJVg1uG3zZj7E7xPH9tFu+z+1sOa/ext/zH64LTgoxY5T4XL6NBqf/7vxczIf+xJhrBO2fmwcPWtYAvAVMARjAIANAkJgCJHjFAAKokACkB+cYgAQ0KUCAZwAugLM1AEssZR4sMCRZAS4lSSJYJmvGgEsdiOfGWoPW/28swTCha3FP/zdDRwVSV3AjKb1FtixDvpS54kgP3BVKgBIgLQNwIFI9kEQ1I1GixKcSpSKQTBFkNalBMBfO6p0KjgsFTKiyp2ymABKr4ti099JYAQ4CByjETwUqGHIonTZVhPcQGAClU+kaAKXTZB4QGJKwaEFz22MURBktRM0UJZW7yRtQlfnctpn4DbVkVRM/pVTZCoK8uP9utQ+A3BTwBaN8iZUA6tqe6UNegUlFYfk24U2uU8tPgS8ncTq4DXXS9AISpHm0b+MvOo13VdNYvA3K+Llu3Tyso0uBSjOrwzrBr5v22l82cZzaqR9PSTcZ2njoNuRxsx/aw+1Cy9Hlo+vOxfazGK0qYjRpjMzFq0MU3wgx0/6XtNPi32Nr3w/D8lZ7PM8fZ7S1POxw+wc=);strokeColor=none;spacingTop=-3;spacingBottom=-3;spacingLeft=-3;spacingRight=-3;points=[[0.5,1.75,0],[0.5,0,0],[0,0.5,0],[1,0.5,0]];labelBackgroundColor=none;rounded=0;html=1;whiteSpace=wrap;" parent="F-L6EfSc8vcWyVoIchHZ-51" vertex="1">
          <mxGeometry x="8" y="17" width="15" height="15" as="geometry" />
        </mxCell>
        <mxCell id="F-L6EfSc8vcWyVoIchHZ-55" style="vsdxID=103;fillColor=#FFFFFF;gradientColor=none;shape=stencil(nVbRcqMwDPwaHqORLNvg5177H8yFJEy5kHHoNff3Jw4yrc1FlL4Ze9espZXsgp+up/rSFAavQ+xfm/d2P5wK/lEY055PTWwHGRX8XPDToY/NMfZv5/30falH5Dj61f8ed7hNPEIcOQb/TN/OgeV/My8TvGvPCtxaMPYxPFTgtuArD1SmBATrFQIDc0JgA1gqhJApogoCKXjK8QRoFDxuQfs8PuShrBQ8QpUelxi8e0yQdGYEfAy29ptIAq8k1eIWxZK/zAIrMaGwICD4oBBoQZA0aASToA2qDhO5Pt1ejqSZntJgrjh+UX+K8Ky0vep0ymWv4Tm31uhORfkyMGJ/oxEwqw4pRqspqnJFUu2Kc8xif+kFCp5psT+DUcqbQ35iaXCsmF/S6XMvK2Xo/Lex0plZCb3HLbJ9uTEwFeVpYq0Hhy0ukCRm5V0GCMqdtrxDxJeolJVEI/WNGF8L5uodm17JLkWX4rrElHX8KavxbuK5OcV7dyIo5+jOiDJtXw6BZi/cdvWtve5iP9RD25+TptHV8djs5F+7Q1cf54NMS9f3prkspv+v7qNkPgl0LhH48MCbBeIXBGZlsRJsGXw8nQ5t100vr8/r+VNLpqZnGj//BQ==);strokeColor=none;spacingTop=-3;spacingBottom=-3;spacingLeft=-3;spacingRight=-3;points=[[0.5,1.75,0],[0.5,0,0],[0,0.5,0],[1,0.5,0]];labelBackgroundColor=none;rounded=0;html=1;whiteSpace=wrap;" parent="F-L6EfSc8vcWyVoIchHZ-51" vertex="1">
          <mxGeometry x="21" y="6" width="18" height="18" as="geometry" />
        </mxCell>
        <UserObject label="&lt;div style=&quot;font-size: 1px&quot;&gt;&lt;font style=&quot;font-size:11.29px;font-family:Segoe UI;color:#000000;direction:ltr;letter-spacing:0px;line-height:120%;opacity:1&quot;&gt;Messages&lt;br&gt;&lt;/font&gt;&lt;/div&gt;" tags="Connector" id="F-L6EfSc8vcWyVoIchHZ-56">
          <mxCell style="vsdxID=1026;edgeStyle=orthogonalEdgeStyle;dashed=1;startArrow=classic;endArrow=block;startSize=9;endSize=9;strokeColor=#000000;spacingTop=0;spacingBottom=0;spacingLeft=0;spacingRight=0;verticalAlign=middle;html=1;labelBackgroundColor=#ffffff;rounded=0;align=center;entryX=0.99;entryY=0.495;entryDx=0;entryDy=0;entryPerimeter=0;startFill=1;" parent="F-L6EfSc8vcWyVoIchHZ-1" source="F-L6EfSc8vcWyVoIchHZ-51" target="F-L6EfSc8vcWyVoIchHZ-40" edge="1">
            <mxGeometry x="-0.2761" y="-6" relative="1" as="geometry">
              <mxPoint as="offset" />
              <mxPoint x="530" y="483" as="sourcePoint" />
              <mxPoint x="530.4585115483324" y="416" as="targetPoint" />
            </mxGeometry>
          </mxCell>
        </UserObject>
        <UserObject label="" tags="Background" id="F-L6EfSc8vcWyVoIchHZ-57">
          <mxCell style="vsdxID=112;fillColor=none;gradientColor=none;strokeColor=none;strokeWidth=2;spacingTop=-3;spacingBottom=-3;spacingLeft=-3;spacingRight=-3;points=[[-0.03,0.49,0],[0.5,0,0],[1.01,0.49,0],[0.5,1.03,0],[0.5,1.65,0],[0.5,0.5,0]];labelBackgroundColor=none;rounded=0;html=1;whiteSpace=wrap;" parent="F-L6EfSc8vcWyVoIchHZ-1" vertex="1">
            <mxGeometry x="349" y="576" width="59" height="38" as="geometry" />
          </mxCell>
        </UserObject>
        <mxCell id="F-L6EfSc8vcWyVoIchHZ-58" style="vsdxID=113;fillColor=#0078d7;gradientColor=none;shape=stencil(nVfbbhw3DP2afRV4FcXHIk3/I2icelHXDjZO6/59OfcVPfZ4O1gQsyOdmcMjkqJO/OnH/ZfvdyeCH8+Xpz/v/jl/fb4/8a8novPj/d3l/Bx3J/584k/fni53f1yefj5+nf5//zLMHO7+evp7eMPLhHMohAOK4N/piUkBG5/8NgF+/3mZEDhNaLWQMLc62RmMV2hZfuw+Db/QjKXiXBVstG3GzoNm8eJWzUY7D77wjMTCOs/fHjXemMIvQfbh/HjlHUlp1nmXMP8DkOVALSzsqKMVX1xeFBlfIDENq6m0rIgVZa+NJitJESwVxLnFXQXtFQmk9IJoK5YFyXT3vzcPSi3AaFIn2zMNRwmxCoy2J8paKlWECCiy6pC5XuvKG+TW1UuYVwC9bXZBvgXAEbzyPiCrzVz46urVHt7XQN2rGFXNkRHYJcfCZsEhXqzgBoBWI89SurCUWnvBqRWQg+gImBNUltFqzzdiB7dwxG2RtyB4FTwLX4qiYS2crIjuDHOJ2fhqMUx8tRzS9bKGsqZYxvgiqYmrOswpvFIVKxCpKDbaGkvQ00UooOSDj6OFJK/GwntPd4Qc8K0cnEyRJ5sIv/XNmVP14sYqMlpNhGPhHLFhVWtDlUmEoy5T1peK2gFhq0WbMeBoCbCnTFjWghCjvqTHWty8rO6ETZTDH3JRphqhYa9CIgqnpYofkOH/EWW+EjltT+EOmwkpiMC67KvENbJmvaznC4chAAfUhEpTQ6HJblGH/ReWfAoBlmwCplcRqi0WBEYb+npPL1ylpF4k1OGCU7cHW89vfAGjD4nXNILMesL7YFrBSzJSc/4IW8v5lAr4FWgXc7t7Oww/6Nu+MLctxru7WQLsNCL4Tl92tHTQOySxvbQWKQkqNTo5qL1D0DsTjYfjQWRBTyiavSUL0RB7NuEKbhdsPdU87lRmP6AqaVY7ST3MzjtJL3WUGmmd2gmz0wXvdrLzoNeybksce3TugqNEmdaKk82JnQpNtOicGr1lzttq+9CZyLqX56Z0+0j+6iqxRL+99XRJ4m36Uqxtaabe5rSBlhjw0lzQfLBptwsHFKiKTrYn99YpY1Msb3bpVLMTAx84CcXNdo76dn54mI5h1+P53BWPpjMbf/4P);strokeColor=none;strokeWidth=2;spacingTop=-3;spacingBottom=-3;spacingLeft=-3;spacingRight=-3;points=[[-0.03,0.49,0],[0.5,0,0],[1.01,0.49,0],[0.5,1.03,0],[0.5,1.65,0],[0.5,0.5,0]];labelBackgroundColor=none;rounded=0;html=1;whiteSpace=wrap;" parent="F-L6EfSc8vcWyVoIchHZ-57" vertex="1">
          <mxGeometry width="39" height="29" as="geometry" />
        </mxCell>
        <mxCell id="F-L6EfSc8vcWyVoIchHZ-59" style="vsdxID=114;fillColor=#B5739D;gradientColor=none;shape=stencil(rZbbTtwwEIafZm+tOXvmsqLwHqgsZVXKogVa+vadbDZk7QbSSr2Jkvgf+5uT7Q1fPN1dP243BE/Ph/237c/dzfPdhj9viHYPd9vD7jnfNny54Yvb/WH79bB/ebgZvx+vB+Xw9n3/Y5jhdbSrUqQOVgS/xj/EJcY/V6PBl5fDaIGjwKJUAGYKY65yMj4NRnElQqvi1Xwce6VxTHOQSDCU2RUBJtvTOJzkPH6KFz0J+FxwxIJPC2QsxcgxwCMAsCWDFibdBFcx0AhmAaAWBqWQa0UZnwDe0hEUaumYT7zvAyIXocgAVSWJ2gImvXiOuBHYzD8B12LqqNWAzNhaWs6ccM1sJlempkXl4t6iSk5GHev97uGsLtjLlJ1Fkz99E0gEUoxkcOPWN+GCrqoZRsIp1JNnIoVDEU25omPrWU7LIeBuFilaK5GjfCULqsVA3FmO1dKRLq53gjEsXC2XNSRTiugqOHmCyaopes7fwg7GXR6yI0RWaN9dc27HUKjsgUZqXcstujpVVObYZ96IteAOBmvBXU4mfrzinGsXTmey+7IHOtp0JarnvMrAXTeelevEioXswxKHpr47/ULvFlV2CqjugF19ey1KoKSi2OcAoYTXGshD72NEl4bcCLuthQpj682keT/ug9HZhtbizUvQm/ptH6Zq60BCa0BtcM9NFix6eR5DKP9R3kdnMOBwEcMKQSvRSTUpOGdBDvW4Ep2j+l/T5VmwWrN5j0fpWrrefkwQTiWGpzDkoaIt0Kyed561tp1tpj7GAgoBjBhuXaMmvZqTVslNpy8fGmJdgxFY8kDrt5XzG8dUX+2VY6Gc/uKaki/zJed2d38/3pHOx/tLUf4aL1R8+Rs=);strokeColor=none;strokeWidth=2;spacingTop=-3;spacingBottom=-3;spacingLeft=-3;spacingRight=-3;points=[[-0.03,0.49,0],[0.5,0,0],[1.01,0.49,0],[0.5,1.03,0],[0.5,1.65,0],[0.5,0.5,0]];labelBackgroundColor=none;rounded=0;html=1;whiteSpace=wrap;" parent="F-L6EfSc8vcWyVoIchHZ-57" vertex="1">
          <mxGeometry x="12" y="6" width="46" height="31" as="geometry" />
        </mxCell>
        <mxCell id="F-L6EfSc8vcWyVoIchHZ-60" value="&lt;div style=&quot;font-size: 1px&quot;&gt;&lt;font style=&quot;font-size:12.7px;font-family:Segoe UI;color:#000000;direction:ltr;letter-spacing:0px;line-height:120%;opacity:1&quot;&gt;SaaS Services&lt;br&gt;&lt;/font&gt;&lt;/div&gt;" style="text;vsdxID=112;fillColor=none;gradientColor=none;strokeColor=none;strokeWidth=2;spacingTop=-3;spacingBottom=-3;spacingLeft=-3;spacingRight=-3;points=[[-0.03,0.49,0],[0.5,0,0],[1.01,0.49,0],[0.5,1.03,0],[0.5,1.65,0],[0.5,0.5,0]];labelBackgroundColor=none;rounded=0;html=1;whiteSpace=wrap;verticalAlign=top;align=center;overflow=width;;html=1;" parent="F-L6EfSc8vcWyVoIchHZ-57" vertex="1">
          <mxGeometry x="-12.23" y="38" width="84" height="15.25" as="geometry" />
        </mxCell>
        <UserObject label="&lt;div style=&quot;font-size: 1px&quot;&gt;&lt;font style=&quot;font-size:11.29px;font-family:Segoe UI;color:#000000;direction:ltr;letter-spacing:0px;line-height:120%;opacity:1&quot;&gt;&lt;br&gt;&lt;/font&gt;&lt;/div&gt;" tags="Connector" id="F-L6EfSc8vcWyVoIchHZ-61">
          <mxCell style="vsdxID=1026;edgeStyle=none;dashed=1;startArrow=classic;endArrow=block;startSize=9;endSize=9;strokeColor=#E54915;spacingTop=0;spacingBottom=0;spacingLeft=0;spacingRight=0;verticalAlign=middle;html=1;labelBackgroundColor=#ffffff;rounded=0;align=center;exitX=0.634;exitY=0.07;exitDx=0;exitDy=0;exitPerimeter=0;startFill=1;" parent="F-L6EfSc8vcWyVoIchHZ-1" source="F-L6EfSc8vcWyVoIchHZ-59" edge="1">
            <mxGeometry relative="1" as="geometry">
              <mxPoint x="-1" as="offset" />
              <Array as="points" />
              <mxPoint x="391" y="468" as="sourcePoint" />
              <mxPoint x="391.45851154833235" y="401" as="targetPoint" />
            </mxGeometry>
          </mxCell>
        </UserObject>
        <UserObject label="&lt;div style=&quot;font-size: 1px&quot;&gt;&lt;font style=&quot;font-size:11.29px;font-family:Segoe UI;color:#000000;direction:ltr;letter-spacing:0px;line-height:120%;opacity:1&quot;&gt;&lt;br&gt;&lt;/font&gt;&lt;/div&gt;" tags="Connector" id="F-L6EfSc8vcWyVoIchHZ-62">
          <mxCell style="vsdxID=1026;edgeStyle=none;dashed=1;startArrow=none;endArrow=block;startSize=9;endSize=9;strokeColor=#000000;spacingTop=0;spacingBottom=0;spacingLeft=0;spacingRight=0;verticalAlign=middle;html=1;labelBackgroundColor=#ffffff;rounded=0;align=center;entryX=1;entryY=0.5208333333333334;entryDx=0;entryDy=0;entryPerimeter=0;" parent="F-L6EfSc8vcWyVoIchHZ-1" edge="1">
            <mxGeometry relative="1" as="geometry">
              <mxPoint x="-1" as="offset" />
              <Array as="points" />
              <mxPoint x="507" y="395" as="sourcePoint" />
              <mxPoint x="487" y="395.25" as="targetPoint" />
            </mxGeometry>
          </mxCell>
        </UserObject>
        <mxCell id="F-L6EfSc8vcWyVoIchHZ-63" value="" style="edgeStyle=orthogonalEdgeStyle;rounded=0;orthogonalLoop=1;jettySize=auto;html=1;dashed=1;startArrow=classic;startFill=1;strokeColor=#E54915;" parent="F-L6EfSc8vcWyVoIchHZ-1" source="F-L6EfSc8vcWyVoIchHZ-65" target="F-L6EfSc8vcWyVoIchHZ-85" edge="1">
          <mxGeometry relative="1" as="geometry">
            <mxPoint x="876" y="490" as="targetPoint" />
          </mxGeometry>
        </mxCell>
        <mxCell id="F-L6EfSc8vcWyVoIchHZ-64" value="" style="group" parent="F-L6EfSc8vcWyVoIchHZ-1" vertex="1" connectable="0">
          <mxGeometry x="596.0799999999999" y="261" width="316.9200000000001" height="166" as="geometry" />
        </mxCell>
        <mxCell id="F-L6EfSc8vcWyVoIchHZ-65" value="" style="rounded=1;whiteSpace=wrap;html=1;" parent="F-L6EfSc8vcWyVoIchHZ-64" vertex="1">
          <mxGeometry x="12.920000000000073" y="7.75" width="304" height="158.25" as="geometry" />
        </mxCell>
        <mxCell id="F-L6EfSc8vcWyVoIchHZ-66" value="&lt;b&gt;&lt;font style=&quot;font-size: 10px;&quot;&gt;Extract, Transform &amp;amp; Load [ETL]&lt;/font&gt;&lt;/b&gt;" style="text;html=1;align=center;verticalAlign=middle;resizable=0;points=[];autosize=1;strokeColor=none;fillColor=none;" parent="F-L6EfSc8vcWyVoIchHZ-64" vertex="1">
          <mxGeometry x="93.16999999999996" width="180" height="30" as="geometry" />
        </mxCell>
        <UserObject label="" tags="Background" id="F-L6EfSc8vcWyVoIchHZ-67">
          <mxCell style="vsdxID=1021;fillColor=#dbeef3;gradientColor=none;shape=stencil(nZBLDoAgDERP0z3SIyjew0SURgSD+Lu9kMZoXLhwN9O+tukAlrNpJg1SzDH4QW/URgNYgZTkjA4UkwJUgGXng+6DX1zLfmoymdXo17xh5zmRJ6Q42BWCfc2oJfdAr+Yv+AP9Cb7OJ3H/2JG1HNGz/84klThPVCc=);points=[[0.5,1,0],[1,0.5,0],[0.5,0,0],[0,0.5,0],[0.5,0.5,0]];labelBackgroundColor=none;rounded=0;html=1;whiteSpace=wrap;" parent="F-L6EfSc8vcWyVoIchHZ-64" vertex="1">
            <mxGeometry x="24.920000000000073" y="29" width="71" height="123" as="geometry" />
          </mxCell>
        </UserObject>
        <mxCell id="F-L6EfSc8vcWyVoIchHZ-68" value="" style="sketch=0;pointerEvents=1;shadow=0;dashed=0;html=1;strokeColor=none;fillColor=#DF8C42;labelPosition=center;verticalLabelPosition=bottom;verticalAlign=top;align=center;outlineConnect=0;shape=mxgraph.veeam2.azure_blob;" parent="F-L6EfSc8vcWyVoIchHZ-64" vertex="1">
          <mxGeometry x="45.92000000000007" y="97.87" width="28.5" height="31.5" as="geometry" />
        </mxCell>
        <UserObject label="&lt;div style=&quot;&quot;&gt;&lt;font style=&quot;color: rgb(0, 0, 0); direction: ltr; letter-spacing: 0px; line-height: 120%; opacity: 1;&quot;&gt;&lt;font face=&quot;Helvetica&quot; style=&quot;font-size: 10px;&quot;&gt;&lt;b&gt;Ingest&lt;/b&gt;&lt;/font&gt;&lt;br&gt;&lt;/font&gt;&lt;/div&gt;" tags="Background" id="F-L6EfSc8vcWyVoIchHZ-69">
          <mxCell style="verticalAlign=middle;align=center;overflow=width;vsdxID=1036;fillColor=none;gradientColor=none;shape=stencil(nZBLDoAgDERP0z3SIyjew0SURgSD+Lu9kMZoXLhwN9O+tukAlrNpJg1SzDH4QW/URgNYgZTkjA4UkwJUgGXng+6DX1zLfmoymdXo17xh5zmRJ6Q42BWCfc2oJfdAr+Yv+AP9Cb7OJ3H/2JG1HNGz/84klThPVCc=);strokeColor=none;points=[];labelBackgroundColor=none;rounded=0;html=1;whiteSpace=wrap;" parent="F-L6EfSc8vcWyVoIchHZ-64" vertex="1">
            <mxGeometry x="24.920000000000073" y="27" width="66" height="15" as="geometry" />
          </mxCell>
        </UserObject>
        <mxCell id="F-L6EfSc8vcWyVoIchHZ-70" value="" style="image;sketch=0;aspect=fixed;html=1;points=[];align=center;fontSize=12;image=img/lib/mscae/Event_Hubs.svg;" parent="F-L6EfSc8vcWyVoIchHZ-64" vertex="1">
          <mxGeometry x="45.65000000000009" y="49" width="25.03" height="26.07" as="geometry" />
        </mxCell>
        <UserObject label="&lt;div style=&quot;&quot;&gt;&lt;font style=&quot;color: rgb(0, 0, 0); direction: ltr; letter-spacing: 0px; line-height: 120%; opacity: 1;&quot;&gt;&lt;font face=&quot;Helvetica&quot; style=&quot;font-size: 10px;&quot;&gt;Blob&lt;/font&gt;&lt;br&gt;&lt;/font&gt;&lt;/div&gt;" tags="Background" id="F-L6EfSc8vcWyVoIchHZ-71">
          <mxCell style="verticalAlign=middle;align=center;overflow=width;vsdxID=1036;fillColor=none;gradientColor=none;shape=stencil(nZBLDoAgDERP0z3SIyjew0SURgSD+Lu9kMZoXLhwN9O+tukAlrNpJg1SzDH4QW/URgNYgZTkjA4UkwJUgGXng+6DX1zLfmoymdXo17xh5zmRJ6Q42BWCfc2oJfdAr+Yv+AP9Cb7OJ3H/2JG1HNGz/84klThPVCc=);strokeColor=none;points=[];labelBackgroundColor=none;rounded=0;html=1;whiteSpace=wrap;" parent="F-L6EfSc8vcWyVoIchHZ-64" vertex="1">
            <mxGeometry x="27.170000000000073" y="129.37" width="66" height="15" as="geometry" />
          </mxCell>
        </UserObject>
        <UserObject label="" tags="Background" id="F-L6EfSc8vcWyVoIchHZ-72">
          <mxCell style="vsdxID=1021;fillColor=#dbeef3;gradientColor=none;shape=stencil(nZBLDoAgDERP0z3SIyjew0SURgSD+Lu9kMZoXLhwN9O+tukAlrNpJg1SzDH4QW/URgNYgZTkjA4UkwJUgGXng+6DX1zLfmoymdXo17xh5zmRJ6Q42BWCfc2oJfdAr+Yv+AP9Cb7OJ3H/2JG1HNGz/84klThPVCc=);points=[[0.5,1,0],[1,0.5,0],[0.5,0,0],[0,0.5,0],[0.5,0.5,0]];labelBackgroundColor=none;rounded=0;html=1;whiteSpace=wrap;" parent="F-L6EfSc8vcWyVoIchHZ-64" vertex="1">
            <mxGeometry x="127.59000000000003" y="28.25" width="71" height="123" as="geometry" />
          </mxCell>
        </UserObject>
        <UserObject label="&lt;div style=&quot;&quot;&gt;&lt;font style=&quot;color: rgb(0, 0, 0); direction: ltr; letter-spacing: 0px; line-height: 120%; opacity: 1;&quot;&gt;&lt;font face=&quot;Helvetica&quot; style=&quot;font-size: 10px;&quot;&gt;&lt;b&gt;Process&lt;/b&gt;&lt;/font&gt;&lt;br&gt;&lt;/font&gt;&lt;/div&gt;" tags="Background" id="F-L6EfSc8vcWyVoIchHZ-73">
          <mxCell style="verticalAlign=middle;align=center;overflow=width;vsdxID=1036;fillColor=none;gradientColor=none;shape=stencil(nZBLDoAgDERP0z3SIyjew0SURgSD+Lu9kMZoXLhwN9O+tukAlrNpJg1SzDH4QW/URgNYgZTkjA4UkwJUgGXng+6DX1zLfmoymdXo17xh5zmRJ6Q42BWCfc2oJfdAr+Yv+AP9Cb7OJ3H/2JG1HNGz/84klThPVCc=);strokeColor=none;points=[];labelBackgroundColor=none;rounded=0;html=1;whiteSpace=wrap;" parent="F-L6EfSc8vcWyVoIchHZ-64" vertex="1">
            <mxGeometry x="127.59000000000003" y="26.25" width="66" height="15" as="geometry" />
          </mxCell>
        </UserObject>
        <UserObject label="" tags="Background" id="F-L6EfSc8vcWyVoIchHZ-74">
          <mxCell style="vsdxID=1021;fillColor=#dbeef3;gradientColor=none;shape=stencil(nZBLDoAgDERP0z3SIyjew0SURgSD+Lu9kMZoXLhwN9O+tukAlrNpJg1SzDH4QW/URgNYgZTkjA4UkwJUgGXng+6DX1zLfmoymdXo17xh5zmRJ6Q42BWCfc2oJfdAr+Yv+AP9Cb7OJ3H/2JG1HNGz/84klThPVCc=);points=[[0.5,1,0],[1,0.5,0],[0.5,0,0],[0,0.5,0],[0.5,0.5,0]];labelBackgroundColor=none;rounded=0;html=1;whiteSpace=wrap;" parent="F-L6EfSc8vcWyVoIchHZ-64" vertex="1">
            <mxGeometry x="227.59000000000015" y="26.25" width="71" height="123" as="geometry" />
          </mxCell>
        </UserObject>
        <UserObject label="&lt;div style=&quot;&quot;&gt;&lt;font style=&quot;color: rgb(0, 0, 0); direction: ltr; letter-spacing: 0px; line-height: 120%; opacity: 1;&quot;&gt;&lt;font face=&quot;Helvetica&quot; style=&quot;font-size: 10px;&quot;&gt;&lt;b&gt;Serve&lt;/b&gt;&lt;/font&gt;&lt;br&gt;&lt;/font&gt;&lt;/div&gt;" tags="Background" id="F-L6EfSc8vcWyVoIchHZ-75">
          <mxCell style="verticalAlign=middle;align=center;overflow=width;vsdxID=1036;fillColor=none;gradientColor=none;shape=stencil(nZBLDoAgDERP0z3SIyjew0SURgSD+Lu9kMZoXLhwN9O+tukAlrNpJg1SzDH4QW/URgNYgZTkjA4UkwJUgGXng+6DX1zLfmoymdXo17xh5zmRJ6Q42BWCfc2oJfdAr+Yv+AP9Cb7OJ3H/2JG1HNGz/84klThPVCc=);strokeColor=none;points=[];labelBackgroundColor=none;rounded=0;html=1;whiteSpace=wrap;" parent="F-L6EfSc8vcWyVoIchHZ-64" vertex="1">
            <mxGeometry x="227.59000000000015" y="25.25" width="66" height="15" as="geometry" />
          </mxCell>
        </UserObject>
        <mxCell id="F-L6EfSc8vcWyVoIchHZ-76" value="" style="image;aspect=fixed;html=1;points=[];align=center;fontSize=12;image=img/lib/azure2/databases/Data_Factory.svg;" parent="F-L6EfSc8vcWyVoIchHZ-64" vertex="1">
          <mxGeometry x="143.85000000000002" y="45.299999999999955" width="33.47" height="33.47" as="geometry" />
        </mxCell>
        <UserObject label="&lt;div style=&quot;&quot;&gt;&lt;font style=&quot;color: rgb(0, 0, 0); direction: ltr; letter-spacing: 0px; line-height: 120%; opacity: 1;&quot;&gt;&lt;font face=&quot;Helvetica&quot; style=&quot;font-size: 10px;&quot;&gt;Data Factory&lt;/font&gt;&lt;br&gt;&lt;/font&gt;&lt;/div&gt;" tags="Background" id="F-L6EfSc8vcWyVoIchHZ-77">
          <mxCell style="verticalAlign=middle;align=center;overflow=width;vsdxID=1036;fillColor=none;gradientColor=none;shape=stencil(nZBLDoAgDERP0z3SIyjew0SURgSD+Lu9kMZoXLhwN9O+tukAlrNpJg1SzDH4QW/URgNYgZTkjA4UkwJUgGXng+6DX1zLfmoymdXo17xh5zmRJ6Q42BWCfc2oJfdAr+Yv+AP9Cb7OJ3H/2JG1HNGz/84klThPVCc=);strokeColor=none;points=[];labelBackgroundColor=none;rounded=0;html=1;whiteSpace=wrap;" parent="F-L6EfSc8vcWyVoIchHZ-64" vertex="1">
            <mxGeometry x="134.09000000000003" y="78.37" width="65.83" height="15" as="geometry" />
          </mxCell>
        </UserObject>
        <mxCell id="F-L6EfSc8vcWyVoIchHZ-78" value="" style="image;aspect=fixed;html=1;points=[];align=center;fontSize=12;image=img/lib/azure2/databases/SQL_Server.svg;" parent="F-L6EfSc8vcWyVoIchHZ-64" vertex="1">
          <mxGeometry x="245.34000000000015" y="49" width="35.5" height="35.5" as="geometry" />
        </mxCell>
        <mxCell id="F-L6EfSc8vcWyVoIchHZ-79" value="" style="image;aspect=fixed;html=1;points=[];align=center;fontSize=12;image=img/lib/azure2/databases/Azure_Cosmos_DB.svg;" parent="F-L6EfSc8vcWyVoIchHZ-64" vertex="1">
          <mxGeometry x="240.84000000000015" y="97.87" width="40" height="40" as="geometry" />
        </mxCell>
        <UserObject label="&lt;div style=&quot;font-size: 1px&quot;&gt;&lt;/div&gt;" tags="Connector" id="F-L6EfSc8vcWyVoIchHZ-80">
          <mxCell style="vsdxID=1025;edgeStyle=none;dashed=1;startArrow=none;endArrow=block;startSize=9;endSize=9;strokeColor=#000000;spacingTop=0;spacingBottom=0;spacingLeft=0;spacingRight=0;verticalAlign=middle;html=1;labelBackgroundColor=#ffffff;rounded=0;align=center;fillColor=#000000;" parent="F-L6EfSc8vcWyVoIchHZ-64" edge="1">
            <mxGeometry relative="1" as="geometry">
              <mxPoint as="offset" />
              <Array as="points">
                <mxPoint x="104" y="90.48000000000002" />
              </Array>
              <mxPoint x="94.92000000000007" y="90.07" as="sourcePoint" />
              <mxPoint x="126.92000000000007" y="90" as="targetPoint" />
            </mxGeometry>
          </mxCell>
        </UserObject>
        <UserObject label="&lt;div style=&quot;font-size: 1px&quot;&gt;&lt;/div&gt;" tags="Connector" id="F-L6EfSc8vcWyVoIchHZ-81">
          <mxCell style="vsdxID=1025;edgeStyle=none;dashed=1;startArrow=none;endArrow=block;startSize=9;endSize=9;strokeColor=#000000;spacingTop=0;spacingBottom=0;spacingLeft=0;spacingRight=0;verticalAlign=middle;html=1;labelBackgroundColor=#ffffff;rounded=0;align=center;fillColor=#000000;" parent="F-L6EfSc8vcWyVoIchHZ-64" edge="1">
            <mxGeometry relative="1" as="geometry">
              <mxPoint as="offset" />
              <Array as="points">
                <mxPoint x="209" y="89.48000000000002" />
              </Array>
              <mxPoint x="199.92000000000007" y="89.07" as="sourcePoint" />
              <mxPoint x="231.92000000000007" y="89" as="targetPoint" />
            </mxGeometry>
          </mxCell>
        </UserObject>
        <mxCell id="F-L6EfSc8vcWyVoIchHZ-82" value="" style="image;aspect=fixed;html=1;points=[];align=center;fontSize=12;image=img/lib/azure2/compute/Function_Apps.svg;" parent="F-L6EfSc8vcWyVoIchHZ-64" vertex="1">
          <mxGeometry x="145.6500000000001" y="100.87" width="38.53" height="34" as="geometry" />
        </mxCell>
        <mxCell id="F-L6EfSc8vcWyVoIchHZ-83" value="" style="edgeStyle=elbowEdgeStyle;rounded=0;orthogonalLoop=1;jettySize=auto;html=1;startArrow=classic;startFill=1;dashed=1;" parent="F-L6EfSc8vcWyVoIchHZ-64" edge="1">
          <mxGeometry relative="1" as="geometry">
            <mxPoint x="70.92000000000007" y="167" as="sourcePoint" />
            <mxPoint x="70.67714285714317" y="218.37" as="targetPoint" />
          </mxGeometry>
        </mxCell>
        <UserObject label="&lt;div style=&quot;&quot;&gt;&lt;font style=&quot;color: rgb(0, 0, 0); direction: ltr; letter-spacing: 0px; line-height: 120%; opacity: 1;&quot;&gt;&lt;font face=&quot;Helvetica&quot; style=&quot;font-size: 10px;&quot;&gt;&amp;nbsp;Function&lt;/font&gt;&lt;br&gt;&lt;/font&gt;&lt;/div&gt;" tags="Background" id="F-L6EfSc8vcWyVoIchHZ-84">
          <mxCell style="verticalAlign=middle;align=center;overflow=width;vsdxID=1036;fillColor=none;gradientColor=none;shape=stencil(nZBLDoAgDERP0z3SIyjew0SURgSD+Lu9kMZoXLhwN9O+tukAlrNpJg1SzDH4QW/URgNYgZTkjA4UkwJUgGXng+6DX1zLfmoymdXo17xh5zmRJ6Q42BWCfc2oJfdAr+Yv+AP9Cb7OJ3H/2JG1HNGz/84klThPVCc=);strokeColor=none;points=[];labelBackgroundColor=none;rounded=0;html=1;whiteSpace=wrap;" parent="F-L6EfSc8vcWyVoIchHZ-1" vertex="1">
            <mxGeometry x="728.17" y="394.37" width="65.83" height="15" as="geometry" />
          </mxCell>
        </UserObject>
        <mxCell id="F-L6EfSc8vcWyVoIchHZ-85" value="" style="dashed=0;outlineConnect=0;html=1;align=center;labelPosition=center;verticalLabelPosition=bottom;verticalAlign=top;shape=mxgraph.webicons.oracle;fillColor=#FA3743;gradientColor=#E10E11" parent="F-L6EfSc8vcWyVoIchHZ-1" vertex="1">
          <mxGeometry x="731.92" y="585" width="58.33" height="50" as="geometry" />
        </mxCell>
        <mxCell id="F-L6EfSc8vcWyVoIchHZ-92" value="" style="edgeStyle=orthogonalEdgeStyle;rounded=0;orthogonalLoop=1;jettySize=auto;html=1;exitX=0.444;exitY=-0.027;exitDx=0;exitDy=0;exitPerimeter=0;dashed=1;startArrow=classic;startFill=1;strokeColor=#e54915;" parent="F-L6EfSc8vcWyVoIchHZ-1" edge="1">
          <mxGeometry relative="1" as="geometry">
            <mxPoint x="315.9532800000002" y="574.8899999999999" as="sourcePoint" />
            <mxPoint x="317" y="424" as="targetPoint" />
          </mxGeometry>
        </mxCell>
        <mxCell id="F-L6EfSc8vcWyVoIchHZ-93" value="" style="shape=image;verticalLabelPosition=bottom;labelBackgroundColor=default;verticalAlign=top;aspect=fixed;imageAspect=0;image=data:image/png,iVBORw0KGgoAAAANSUhEUgAAAS0AAACnCAMAAABzYfrWAAAAyVBMVEX////zbCIjKkYlLEcAEDcdJULyYQAhKEUZIUAVHj7LzNDe3uFoa3tcYHCMjpoAADKdoKoACTR+gY/l5unw8fMKFjpRVWjzaRvY2NvzZhAAAC8CEzi6u8KrrLOlp68THD3zZAD8283+9O/96+P0f0T1g0z5vaT6x7L4tJc3PVXDxMr4rIv3poP+8u33oHn84tb71MP2lmv1jVzyWgDzcSz1jmD5t5z6w6z0dzcAACaztbyDhpM8QVhLUGRydoX839TxSwD6zLoAACJurshaAAAMo0lEQVR4nO2daUPiPBeGC3QDZClQQ1iklEXEEWURlRHm8f3/P+pNk7RNNyggFiH3JwzTNrk4Sc45STqCwMXFxcXFxcXFxcXFxcXFxcXFxcXFxcXFxcXFxcXFxcXFdY76l3QFfpN6/6Xuk67DL9LQkI3H56Rr8WvUG8hQHrw9JV2P36KhAYFh9Ie9pCvyO2RO5yAFoAxmQ94nY6jXl1NIiNj7S9J1+Q36AiCFgc2XSVflN8icEVypObeuGHqWCS34J+ma/AL1FtS24GPSVTl/PRoUVmrOPYntMu9TkLJKyTwSCtfz/dJysJ7/QCPlwBolXavzVHchG9CQB33ZsSsOK0pDmTpYwGUFeDcM18s8FRBc8GxXUE//uvcwwArI3NEK6Gn5DmXZCMIacM8hoKEMQYAUpjUbTWazSdL1Oys9hwxXNi4Ir7QvmlFz2yDcsOzO+KOVPBuZ89TQDJT20JC1BVYK9J+erjIdeD834PSLSbab3VHfiBiymM4oz5Krc4IayQAYxmIwfVw+Pk4GaB7chYrwek264snoC1i9DqCxGwnEIYUFH7+er3H9x5wYRmxIDC5DhovZ4/UlUM23VyDDWD3QK2AtAA2Trn4Ceh5OBoaMnHfD2DofBiVf6RAmmM8vX19fyz1xwfe3q/QniLryfrRSwJAXs2td858eMOYjYsbgGpNe5r6m5QID17cM9GfPYYuVsegmXf2fVe9Q0yL2JV/Xgv/W7EMMXdX6xv1RpoVxvSXdhp/T7EjTQjKsVHT3JZgJujwdbVokWXg/l8H06+KBRWeY40t+Eax4ABhw9pV0e06r4CLP/gIz4R+xUYAs7JLXHhffQCsl9wTnM5Qv2Mc/1oEghB6FV/c+QF5c6jQ5OcKTZyS8sV0aGBfK6+UbJkXUFbvP3vsAeXCRMdHC2xUP65hwIviLLnP7RHduAQIAQCuVmnqHh3XNkAHQ6CfdthOo+w5Si/5s+vj28myagrmUD7Av4+UxSBlOk27bKWR6fXB6AGMvIUc+xHOTryIj/XjA0D8M6cFXsmn8gMxEmJsLLnHkCtG/A1YbQwQvPs4m6n0Lrssc50PUi79HYouuJlX4PbiMa1l27H1HNud6Tp7tvYgdJpB0K35M3xFyyxeeTmU0Oh7X9XRFQZgenf4C70m34Qd1YAqH0dXMisJ3jPTyNW2+PGZTCRZklv4vfonWPN5HdW41nftc+1o1oNp+1auW7+7uyityt3IRqVwjn8vldv7Ith+go3dKGBSRCaDP+yp+lALSH25WexC7ETtIH5hLuZRFapStz7kPXdfJx59Vf2/revf+Ccg4P0KwUp4736jpoCRV7GyqcStXkDJIIqZVzFqfs4SWaN3r4+et63lf44K+fb/AevOZOYTQ8CVTQ2khKdnmKmblttPqJGBcy31xdb0RpnUw4R3OwcT/cqooWohXIyauHbSK3woiniZ7xdfg3buVFY6W74a8+BOcD6NppdOleqyqnSEtYboPLtD3Li5a3e8p1EWltETdkoYlZhVCS72NVbNzpLXXugai9cpODEZkXE1oafWaJeJAjCtqluBqxDKuIK1O8rSEFxDbS0W07llbNCLzp4RW1ltYK3QwLT3WCH2etJB5wZhHz8BCMFlaMPIcFaalqP7iBwl3xZs4tTpXWoK59LysZRstYcTg2kErLfqLVzr2uwpxKnW2tJC6k8Xus7J4TziTu9hFS/MX57X4w3wsWrV8Lhflp+baxb/FcmuLO1wdr1bjQGm9tVrldgYd3VHfOl0ciQwaeIH6y50Wdo3yur+Y0iI9Mb9qtVq+yubGSKSmMWit1p2SKJb0QtCFq29UTUeRky6WPstM0+vr29vb9Uaw4tBMQ2w2S2vrRgVLVl1yN02t2WxqWqHlXDNe5XykyJ4sszuc9hfWm0kCdgbkCfUV3DyiHLmTK2LcIj1Rv8N/qKiuzQ9PQ1v/E1HrH+LRakmiRCZZScx425MvlGx/BX2rZ91ppdKUkBpVVBUd/wvJoiVlUWFWEWo3DdtRVLVPapXt1t2q5bm9acCpc9LO7HW/ltOFZySD7rkf06UV+WoXQivjL15bzVNKuBo17E/obfb7O929bDutbLHScHigaz7Y+7Q1r3OsiGu7P1bwU8V62b4aGymZq6Wq0mGuUrOkj+eK7TsvLeGfDA2jP12+uM4mm/+S2Re4OH0xenmf0HrwlRaxaXU2wvG00rbzZqvh9uliKe2XquZZWtJt0/5GtK6j98pInoukDu7C7XK17e/q1lxnna6WF69/7rvYaNzOaHg3M9se7SIKVqhtjUkVpXTtO2gRo5FUidqIkrVHp6Jmtzbb0e0OKWWrDK20g0URqy4t0jVV1f62U8EPvKsWA1PFwDYlspfw1XT3+Rr+lPIr/mbLe13IKK8WKrY2BZWMMpJIPfnjaSmiVNjcqrT32D5vi1qWKn5WyuVNpkl4SZ8sLVyCQzL8MLcwK643m097QGyQ/GNI7GF6X+JiTOyDBalUKvBvYXi5jxb6RW3ZNqA82BP+0bQkFScXa9SWJNLvax3yoOYtbWNbIk3X/3poKdq6nKvWW3kPLa2CrShH++SWqOOp78GFJjw7WxiwLYHsrjR2+Fsh0p3x8lha0oPd9cpkECK5jb/E1Jqu91qlTce3smlJKuu72LQ0u3ZVMmFuizrMVzbCtoJC+2/gn/x2GVckLcWZ64+kpeiuF4WnWmII1LToTEJUJ1fgUYjSUlTPSERpNe+ckjaekJRONC1BWLKvkECWY28iD45Q5MyBEeVCbMkGlgrfMsrrbsuEMm6aurHvgEZ/T20IIkWtObREr0tAh35mDq81cFFjGy2hN2V4Gb0327iCfmgsWsgndhYxNLFDxq6sUv8GWmw7SBHuNrfYzHx56LyIH6zlHA/i01tdQstzFZkrSjsioN4E2BvFUV98pzF0cFcufnsCjLoLodUcV6t5W/VxeU2nxWZ+K604vrynvXU8zktW+El+kJIvdlw7DAktf0xOaGlsQKCSG+1cdDHvB5QX/GOOaBANlz4zwjudIzclEVolf3F9rTpNPY6WZ/x1aVWxvxAIIood+5pKyFNtWiKLJi4tpC6dHlEHNN8pLnnhOcRvrRdF7xuJyNjYGa7S+Fha2QpzmUsrX3KsjBUZs61iQqvpi2SOo2WHztZeXGcjIZD7bKST2m1bIbTGjmWchFadTXK4Wp2YFvG1sPG4qXjIvjXPCiMjd9lE0qrhgcUK/E9jW+TT2vfUU9sW3YJjZRmYNVp2arRi68jEfCQt4cEeWAgt7+xVzB5Jq6qT2c330A1+VnZzMlokFoRW7sHdR+jZPGlsOZIRTUvBtNKIFg5ivUMMnrukI2gJGcdXYEVKLTs+Fa0nHDca1tHzCcUFPEkH6yRelHHtGLew+ZABX2QaNnZbfSgtYkUq68rb98Wh0alooUDIerkB3hgyxKtC0PD4qCOLphw+ckXS+pR8DZMenArVFIXpnIfRomBET9qA/C7YZk9Gi7yuhHQ2czhbpKZelwufxAPhr0uNWMWorkm9slY+oEVzB2ka345p9KsR1/IwWgK5icd5rZBAW7QmlBPSeoL+iZAVGf3DX+dvr1UzRbX66qZk543wF+QnTyvaQ+Wu/TejkVSLvSJ0IK0V+Q2yn07MUqG/CnZZT0iL5ANhRNKP7iAxwtLN9j6IBiNNt0PtDvGH7LxdWsrqTpLTQXwgLeGWptb0stXS2uqTTJPYI96f1j4bGon5ROGitMIG+m17bNKSQutQEYNfluzcwqG0qllqwJ1S5vZTa9K/muSCPWk19tr+SV60BMNf7QlpMLknLVV3Yt6Npni/k0qO/3UoLfSXnVdXJCf/rtP18ZPSop6pHJokBQfQUiRtzdSg3dHZdS7x0x3pDqYl1P3rQah72y7FSWnZKxkwzFGw4m0QflAxjJaSVlRdvPVWtFaUtI4kKcgMOlqGyfBF09KCtHyxdK2geda6Oppz40pHQdL8tIhPy9LqHEKLGhcM+w8hUAAJpnLoIdhKQ/NLbGYzm3bIHDMuFh4ymc9COee7RbPZFDVc3VbJ2t9Mxun6h4jk2dRcLVlFJSaWbn2i34Aasy5W3KeONRVJ8lVjo6HbN9fBIv+K6C7Rd2fAkCzpaG4YQkRcnQ9o7w3z6Ipqnl6Dd83Rz2TznOef1vKBonrxoYNg69LtXQwvgLn9lqLdou83gCGvXDSHo7P+X1tqVfQb/ewjnZOMP/vYX6onSmt+yW92+zbhrZPACB/MufwaQCDfv5z1AHVGepoMZpd+nI6Li4uLi4uLi4uLi4uLi4uLi4uLi4uLi4uLi4uLi4uLi+s4/R9TKzNrALsU4QAAAABJRU5ErkJggg==;shadow=0;fillColor=#000000;imageBorder=default;" parent="F-L6EfSc8vcWyVoIchHZ-1" vertex="1">
          <mxGeometry x="237.8800000000001" y="576" width="90.12" height="50" as="geometry" />
        </mxCell>
        <mxCell id="F-L6EfSc8vcWyVoIchHZ-94" value="" style="shape=image;verticalLabelPosition=bottom;labelBackgroundColor=default;verticalAlign=top;aspect=fixed;imageAspect=0;image=data:image/png,iVBORw0KGgoAAAANSUhEUgAAALIAAADoCAYAAABLn775AAAV3UlEQVR4Ae2dr48dNxCAj4cFBQWeFHboykpOYaEhhUGRwgOPhUSFgUFBYf0HKuUPKCguCorCCluQSq/6XjNXP589Y+/u8669Y+luf71dz4w/e8dj7+7FIZO+fft24M9KS/+O/L5+/Wple5TN5Uubaev2Q+qff/45LfzEvRfWeZ8+fTq8fv36cHl5eXjw4MHh4uLC/zq3AWV5e3t7+P33363i7+Z4FmQAvrq6cmg7h9ZqeF69enX4559/ugE2J2gS5I8fPzrAgwMcAv7jjz92D/M9kH/99VeHeEcQC9C9w3wC8p9//ukQ7xDiEOa//vord/fe9P4TkN++fesg7xhkgP7hhx+6dDNOQJaa6ct9R2Z6dDPuQP7tt9/M1pgoxtOnTw83Nzf+15ENKLPr62uzfMMGDJh7cjPuQH737p2qKLFkT/1a4JdfflHLN4RY1nuC+Q5kQBUFUsuRguf94jhd8vfv36vlmypz9vXiZtyB/Pz5c1VRIhqe+rXAVJB7gfkOZHqruVrJfk99W2AOyJQ/fGzZZ74j1EHuG1RL+rkgC8xbHc52kC0CBjm+BMjAvFWf2UEeBFRLDQtk5tc8fvxYdS8BWWDempvhIFsEDHLcAvmPP/44fPny5fDw4cMuYXaQBwHVUsMCWcKrnz9/LgJ5az6zg2wRMMjxUpBRtwbmrfjMDvIgoFpq1IAsMJe6GVsIzTnIFgGDHK8FuRbmtYezHeRBQLXUmAKywCzRCmu5ppvhIFsEDHJ8Ksi9wOwgDwKqpcYckAXmLfvMDrJFwCDH54IsMFvuhRynA9hyONtBHgRUS40lQK6FuaXP7CBbBAxyfCmQBebSl/W0imY4yIOAaqmxJMgCc6nP3AJmB9kiYJDjS4MsMItPbC3P7TM7yIOAaqlxDpBrYT6nz+wgWwQMcvxcIAvMpW7GuYazHeRBQLXUOCfIAvOaHUAH2SJgkOPnBllgtnxlOb60m+EgDwKqpUYLkNeE2UG2CBjkeCuQBebWPrODPAiolhotQRaYxY2wlkuE5hxki4BBjrcGuRbmuT6zgzwIqJYaa4AsMJe6GXNGAB1ki4BBjq8FciuYHeRBQLXUWBNkgdnyleX4FDfDQbYIGOT42iCfG2YHeRBQLTW2ALLAXOoz1wxnO8gWAYMc3wrIAnPpcHZpaM5BHgRUS40tgSwwi09sLUt8ZgfZImCQ41sDWWAubZktmB3kQUC11NgiyAJzqc+sxZkdZIuAQY5vFWTMy1tAHz16VPTyxJzP7CAPAqqlhgUyHwvly09r/PHZ6Ddv3hSBjD/N5/HiVw04yBYBgxy3QLY6XFs7zrcDw+Qgh9YYeH00kKlY3EUkOchiicGXI4IMzPIJiF2ATGcC34/vZPCFV3yykdKnT5+Oen348OGoJy/qjtOoIFOupGFBpjMAuJeXl8lOxJMnTw69fwST1oiQVMp/JT4L2NJijQoyncRhQeYD8YCaKuBwX9xhOFqko3+vXr0ydSSshT2o1KHuo6zzxd4hQa4tsJ5b5RoYib/W/L6X3xKKGw5k/KXaApCvGR2t0dE//P5aXV+8eHFsnfGpe/mjodH0pIIOBTLfidMUzh2LA+sdsTxJX+zUW8qVHfuHAxlfSVM4dYwIRs9pyh3o+vq6O5VTZSf7hgIZ90AUK13Six8hTYG5t/CjVqZDgfz69WsTZFpsCjAVYx0BaHxm9CuJZDx79qwrlXcDsjWnVWKNXZXeDGGJH2uFz7Ge+gaaLsO0yFavFsj3mHIDJQJFT50+kTm1HAZkK1qB27HHZI3kEX7rJaUAln3DgGx19Ebp1NVCZ3UCe+rwCbSppYNcS0Znv3eQLy6SHYWtlqO3yOmScZAd5DQZne11kB3kzpBNi+sgO8hpMjrb6yA7yJ0hmxbXQXaQ02RU7uXJDAZr5AmNytNn/9xBdpBnQcQATTwTjydReEqjZXKQHeTJvFlPp4SPr0/OpPBEB9lBLkTl9GfWULmMSrUaGnaQHeRTQgu3Sh52FZgLLznrZw6yg1wNUO3zcy2eE3SQHeRqkK1hcmmJZdliwo6D7CBXg1zqHwvILfxkB9lBrgaZEwTSkmWLpzMc5M5AJj6rwUNIrEWywBEZWz25TasveaaWyNtLSskv+4aZjwwYolRq2eI2LkD89NNPqiw8ftQqWe5OT0/OpMpV9g0DsvVsWuunpnOPGLUcDKGy4L5IYaeWjx8/7uYB1JT8sm8IkOn9i0K5ZQt/NG5lCcdxJ+BpZmRke410dXWl2gf5eki5smV/9yAzIcf6GtDt7W0P5XQ2GS23CxBa37GmKDssyLRwJV8BajHwMKVgWp1TOlCDP73lNBzItMIlrQyK9/Y2nXOBVPLmIezFS2zWcoEs3bsHGT8TA798+fIIpqZQfGzrrYxVeEsdL22VxX5MOcXeuGUtRiBL9BTZUsvN+8ilLUlKuZ5CSyUFOfc3uUhKynbxPnkj/FwZ5pwfyxRubxpka15vqEi87i5FGpk5DUPr0GGsQVzG4famQY6fsAgF19Y5b41wW2z4rW5PhXntdyprZb5pkGlVNeFzx3qJi64FekncPWVb5lqv2UCkZJJ9mwa55H3Hoki83EoHZS1Yc/nWTjUN7bq2uxbKEq9vGmTrVbGxMvF26wc9c/BsZT+DHrGNarbXHjTRZN00yABA2Giqr9zTPIIWsBNS02DIHaMl3sKgUk4+9m8eZClgeT8EBqX3rCkVHlu7py3yr72siQARs+duxh2Rv62ksFzj9W5Ajo1JpwODxwqltrc6UhXrdK5tGgHrsxTYjWjGWi+SKdE9Vbayr1uQRfGS72TsPYpREqXo4c4l0KaW3YMM0AyjppSTfWt/a3rNkBX2YahZbJFa8iXUHlJKdtk3BMj4cdatcw1fjzkizAVmhh4x2FaPW8VQSmHnlmtHI2J5c9s5+dk/BMgobo1WtQ7F5Vwe/PqWyZostHZsuMYWuwDZ8gNbPmRJ668ZvWXn03oot6ePBGk2HaZFtgqsZYfPeuCz5aijVcFbylLT+qZ+uwuQraHXli0PvrFm9JaVyno9gYOcqjIr7nOQ08Z3kDt7QYuD7CBjgQsxA06zdluU321t6SCnS8RbZG+R02QU7HUfucBIE36iNbDDRC28RU6T4S2yt8hpMgr2eotcYKQJP/EW+eLi4OG39LfFPfw2oUad8xR3LdLWddfCXYs0GQV73bUoMNKEn7hr4a5FNqTqrsWEGnXOU7bkWljzPlpO53TXwl2LyfXOmjrZ8n10DrKDPBlkTsw9ldF6/q+D7CDPApmHOONvifB5iNZPqjjIg4Hc6itKMf08RkSHqqU7EcpggUyEpZe0i6iF9Radm5ubXsprUTmtR8DoJPeSdgEyt3JNUY71VGhLwGV1OrFJy8eu5uqkle8wk4YwkvVKKJ607ulWOqfgcWUuLy/Vyo09ekq7AbnmtVB0xPCbW3e+zgUOdyTmk+SiJSkIengpS2ivlA6yb6gWucS9EMXD5VodsbCQ5qzjHpR83SrUmfWe3ArsE8sfbg8FMsrm3icRKh2v89bOnhOx6Vgna7v1+zWWsK+m03AgYzBeAaUpnTrWy9t2YiB4HVdKH20f8ey1X+MV61Gyrek0JMgUEuE2TfH4WK/uhfUymFhPOoC99gtiXcLtIUGmdgNzTctc0iJs9Tel/jFRHfoRvaYQ3Hh9WJClsBhVswqa0a+ekzXbjkLvXUfKJ4Y33B4eZAGUwubjOrwdk9srcOMrjhJXZrCHFhe96LyiJ6N6o+jnIAvJ0bLnW2ykysnmqHqhZNgCx+u7aZFPSts3urRADG+47SB3WaT7FDoEN153kPfJRJdax/CG2w5yl0W6T6FDcON1B3mfTHSpdQxvuO0gd1mk+xQ6BDded5D3yUSXWsfwhtsOcpdFuk+hQ3DjdQd5n0x0qXUMb7jtIHdZpPsUOgQ3XneQ98lEl1rH8IbbDnKXRbpPoUNw43UHeZ9MdKl1DG+47SB3WaT7FDoEN153kPfJRJdax/CG2w5yl0W6T6FDcON1B3mfTHSpdQxvuO0gd1mk+xQ6BDded5D3yUSXWsfwhtsOcpdFuk+hQ3DjdQd5n0x0qXUMb7jtIHdZpPsUOgQ3Xq8Gmdex+p/bYA0GYnjD7WqQw5N9Pf19Z7dLe7s4yJmP/jiM7WGcY3MH2UFW3+AzB66W5zrIDrKD3LLGeV593epbl5e3yN4ie4vcutZ5ft4q5xiobpEJxfM2eP9zG7RkAO5yELN/Esj7HFdyrde2gIO8dgl4/otYwEFexIx+kbUt4CCvXQKe/yIWcJAXMaNfZG0LOMhrl4Dnv4gFHORFzOgXWdsCDvLaJeD5L2IBB3kRM/pF1rbAECDz0XM+x5v6W8rAfGzx8+fPB74iyh95ss0IVqsUykD+vX4A/Rz2GgLk29vb5BDlw4cPZ9kMUN6/f3/8nK9mKD6LyyeA+abzkl8XpZLwmV0+t6vlz+eGP3z4cPjy5cssfcOTyRudsG34xz4ajKmJyp+77hz5Nft0M0T95s2bZEE/efJkkr2BMVc5NIPJsXfv3k3KV04CIq4h16tZPn/+/HinkGtNXSKDlu/UCqt95J27zNSkybpLkDEmH1bXDGMde/v27dTyOLbAc/NHPio3ME5NFsi0qlOSg6xYbakWmdueBWnJ8am+68ePHxfJX2R89uyZYjX9kAUyeWCv2uQgKxZbAmRulfjUAsHU5VS3glZ8ap7aedfX15P89hKQcWNqk4OsWGwJkHPXEEiePn167FBJtILWiD8iGHQIr66ujiAqYmYP0XmSfHJLbuV0/MiTFp+OEbLQyaOzlzuP/bxnojaVgMy1kakmOciKtXIQlnb2rEIDVCvRok/prADlgwcPsiC+ePGiKBoB0BrMuC01ybKJ5FVqY8nbQRZLJJZzQdZaRAA5Z6K1FCjiJWG3mkTrGF8j3K4Jb5WCzPVrbOQgKyU6F+SXL18mAZjiAypi3jtECx6CFq5P7agRyw6vE67XRBpqQCaP0nCcg3wPg/93zAUZaMICl3WgOGfKVSDyr2k9Yxnx50WHeFkKXC3IxN1LkoOsWGkuyNJRiwt9SnhJEfPkEL5xnJ9s17ScJxf9vqG19CX+PpepBRnZS+zlIKdK7Pu+uSDf3NwkoartkSsi3jukxYyndBrjDHKRDMJxJWkKyCXREQdZsf5ckHNzGUpvl4po2UNEI6QFDpcAuESi5Q2vG66XuC0ayFq8HVC15CAr1pkLsha6KrldKqJlD+WGoZeqPJp7YcGG0BrIWiWxwnEOchaJw3FeQdjiyLplVLkkHSA5J7UsacHkWiVLKkcqH/Yt1cHU4tMlo48ayMioVX4tZu0gK4TMbZG5dO4aApxWOIpoyUNaYS55B8j5yURLrKSBLLagoRD7xMtcdETTfU7fIM4/3N7d7DctbIVhOE5BzE3awMWSrX9usAX/3EolIGt60DCkkoOcssr3fbnWtNS1kEtzO86F4sIaDtBzIhq5iAWdKGRYKuU6sSWDLSUgIyeDRqFtwvXU3cVBVkp3KZDJglti7pYcFhLrQD8F6NykeTqAuVuyon72UO7hAEJwgKqlUpC1TmWq5XeQFasvCbJkk4MthpltfLAa/y4HmPhyIsPcZU4HHs2yKkwpyMjIAE7KLuyLXTEHWSnVc4BMdtwatWHkuPBKR81y8tLCWy2lYoZ7h3JznHG5lgSZa8W2kO3YvXOQ7xXT/ztyYMRG/P+MujXmHFsdQSk4ZLFSLg5LS7mkj5xrKXGdrApT0yKjb04n7BKGFB1khY5zgyxZUwjc/gXa3NJqmSnY1LnMS14yapEbPSyZ1VcLMr+n4cjpJXcAB1loSixbgSxZA6I2TEth0ornklaYS4Kcm9WX6oTFstaCzPnavG55IFfTvaafEcubqkCyT/oeF3KS1RrJ71ovW4OMfrgAWuhJgwXIxcjxkoJeImktZMnsuikgI3eu8qAnlVTT3UFe+L0WNSDlBh0ouJy/y/4YYNkuGT4ukW/uMPhUkLVwHHFtB1kpvTVaZBGHAs+5GdobeXKx6pLhY8lbW869hU8FGZlyAzFU1lxIkGPeIq/YIlNwuTCXzElIAZc7hwKVjlHqvNJ9OZiIjACpleaArN1xtAdtHeSVQc4NOWtugtZihuEqC7jUcS2uq/nu4bXmgMx1tJZX3Kh46SBvFGTr6eJc68RQ9ZykTbEs7UzOBZnKlJtzHQMs27sHOXcbZaSsRcr56FbLmmvJKVirEuT00m7rNRVkLsjIp4XjBN5wOQTIGG5KouY/evQoGQXgWbwWCb8zLBBZt2LCmgvANaYUrBb+sipWaKslQOZ6pSOiU/UVmcXmqWXTODKtKv6bNpAgQofL3AQcFCqNAAAUPh3L2pTrtInxrOtprTKuRynMgKfFtYmS1KSlQEb+FFypfaW6pvRIXU/2SVmcfUAknqBNAQII+1NwYWR8Pau2l06xDPMHfm6JqXxDA3Jcq0Ra6C28DutaLJrCwBaaPCW3cOvuEMu0FMhct3TiVfcg5zo9UqO4dXPLpMVmLq3st5Zx4eS2cz1sWjH8X+ZOcFum9QSq3GQckadkLkMoC36tZQOujf7kjzwlcog8NS6FyLUkyJrfLjKy7BpkrVULlaxdr2kRc4MTtXny+6kz2Ggxc772FDnkHCrflLQkyOSfayxETpZdg6xN/wuVrFmnFS1Npa1Faf61t/BQTmQpedSqVJaayhzKwfrSIOMaWRW1a5AxGkoCn6VoSQFOCVvhb9fGPGNZ8AMp/CWSFgeO801tIwuVYk5aGmRkwcVJySv7ugdZDI7xgIoIRm5uqygdLoEQF2VO4ZE3hsYPDa9trQPNnAIQ3eMluuAHl7o9hCCxW+mAR5xfvH0OkMlD02eOHbVyaha1iI3INq00t2ngokABld49oNHZYh/+H8prPfrUta19QMR1pXPH3YI8kYF88fcAZk7FsWSQ4wCFHWilyRdZQhuILEvbgHy5Nq5f+Me+OcBxbu66c+y5WZClIH3pFiixgINcYiX/zeYt4CBvvohcwBILOMglVvLfbN4CDvLmi8gFLLGAg1xiJf/N5i1QBbI1z2HKYMTmLeQCbt4C1gCSfG7ibvZb7lsbYW1giJVZafzW/9wG52QAzkqG9JGBdAfyuSb4hBXB1y+qRhbdXra94PYEZO2dBG5Q26Buo3VsJA9r3LXIUF07F8ELb53Cc7v/Z3d4lXQCMmP6VqfPjejwboEBOA3noJyADN1MKMk9ubwFBVwGr0jwCadhugeyHGR2WM10SwfMATs3A/CYeyomC7IAzZRGpjlykZJnz86tjF9/PxUG3uAO/qy52FmQv337duDPSkv/jvy+fv1qZXuUzeVLm2mP9nOQv7NQWiG9oqUrz9r2c5Ad5DSZlXZxkBNm3OOtMWGGk11rg3IiTGJjbfkuRIB4+ffffx/4i/fH20v/juvzHFucT7y9dL6l13P5/us7TS2Pc9mvKciJiuy73AKLWOBfEJrP5jh8RLgAAAAASUVORK5CYII=;" parent="F-L6EfSc8vcWyVoIchHZ-1" vertex="1">
          <mxGeometry x="318" y="495.39" width="23.02" height="30" as="geometry" />
        </mxCell>
        <mxCell id="F-L6EfSc8vcWyVoIchHZ-95" value="&lt;div style=&quot;font-size: 1px&quot;&gt;&lt;font style=&quot;font-size:12.7px;font-family:Segoe UI;color:#000000;direction:ltr;letter-spacing:0px;line-height:120%;opacity:1&quot;&gt;Message-based Service&lt;br/&gt;&lt;/font&gt;&lt;/div&gt;" style="text;vsdxID=98;fillColor=none;gradientColor=none;strokeColor=none;spacingTop=-3;spacingBottom=-3;spacingLeft=-3;spacingRight=-3;points=[[0.5,1.75,0],[0.5,0,0],[0,0.5,0],[1,0.5,0]];labelBackgroundColor=none;rounded=0;html=1;whiteSpace=wrap;verticalAlign=middle;align=center;overflow=width;;html=1;" parent="F-L6EfSc8vcWyVoIchHZ-1" vertex="1">
          <mxGeometry x="504.57000000000005" y="616" width="109.73" height="30.49" as="geometry" />
        </mxCell>
        <mxCell id="F-L6EfSc8vcWyVoIchHZ-96" value="" style="verticalLabelPosition=bottom;html=1;verticalAlign=top;align=center;strokeColor=none;fillColor=#00BEF2;shape=mxgraph.azure.azure_subscription;" parent="F-L6EfSc8vcWyVoIchHZ-1" vertex="1">
          <mxGeometry x="880" y="62" width="50" height="35" as="geometry" />
        </mxCell>
        <mxCell id="F-L6EfSc8vcWyVoIchHZ-97" value="HTTP Rest" style="text;html=1;align=center;verticalAlign=middle;resizable=0;points=[];autosize=1;strokeColor=none;fillColor=none;spacing=0;fontSize=10;rotation=90;" parent="F-L6EfSc8vcWyVoIchHZ-1" vertex="1">
          <mxGeometry x="718" y="501.39" width="70" height="20" as="geometry" />
        </mxCell>
        <mxCell id="F-L6EfSc8vcWyVoIchHZ-98" value="" style="shape=image;verticalLabelPosition=bottom;labelBackgroundColor=default;verticalAlign=top;aspect=fixed;imageAspect=0;image=data:image/png,iVBORw0KGgoAAAANSUhEUgAAALIAAADoCAYAAABLn775AAAV3UlEQVR4Ae2dr48dNxCAj4cFBQWeFHboykpOYaEhhUGRwgOPhUSFgUFBYf0HKuUPKCguCorCCluQSq/6XjNXP589Y+/u8669Y+luf71dz4w/e8dj7+7FIZO+fft24M9KS/+O/L5+/Wple5TN5Uubaev2Q+qff/45LfzEvRfWeZ8+fTq8fv36cHl5eXjw4MHh4uLC/zq3AWV5e3t7+P33363i7+Z4FmQAvrq6cmg7h9ZqeF69enX4559/ugE2J2gS5I8fPzrAgwMcAv7jjz92D/M9kH/99VeHeEcQC9C9w3wC8p9//ukQ7xDiEOa//vord/fe9P4TkN++fesg7xhkgP7hhx+6dDNOQJaa6ct9R2Z6dDPuQP7tt9/M1pgoxtOnTw83Nzf+15ENKLPr62uzfMMGDJh7cjPuQH737p2qKLFkT/1a4JdfflHLN4RY1nuC+Q5kQBUFUsuRguf94jhd8vfv36vlmypz9vXiZtyB/Pz5c1VRIhqe+rXAVJB7gfkOZHqruVrJfk99W2AOyJQ/fGzZZ74j1EHuG1RL+rkgC8xbHc52kC0CBjm+BMjAvFWf2UEeBFRLDQtk5tc8fvxYdS8BWWDempvhIFsEDHLcAvmPP/44fPny5fDw4cMuYXaQBwHVUsMCWcKrnz9/LgJ5az6zg2wRMMjxUpBRtwbmrfjMDvIgoFpq1IAsMJe6GVsIzTnIFgGDHK8FuRbmtYezHeRBQLXUmAKywCzRCmu5ppvhIFsEDHJ8Ksi9wOwgDwKqpcYckAXmLfvMDrJFwCDH54IsMFvuhRynA9hyONtBHgRUS40lQK6FuaXP7CBbBAxyfCmQBebSl/W0imY4yIOAaqmxJMgCc6nP3AJmB9kiYJDjS4MsMItPbC3P7TM7yIOAaqlxDpBrYT6nz+wgWwQMcvxcIAvMpW7GuYazHeRBQLXUOCfIAvOaHUAH2SJgkOPnBllgtnxlOb60m+EgDwKqpUYLkNeE2UG2CBjkeCuQBebWPrODPAiolhotQRaYxY2wlkuE5hxki4BBjrcGuRbmuT6zgzwIqJYaa4AsMJe6GXNGAB1ki4BBjq8FciuYHeRBQLXUWBNkgdnyleX4FDfDQbYIGOT42iCfG2YHeRBQLTW2ALLAXOoz1wxnO8gWAYMc3wrIAnPpcHZpaM5BHgRUS40tgSwwi09sLUt8ZgfZImCQ41sDWWAubZktmB3kQUC11NgiyAJzqc+sxZkdZIuAQY5vFWTMy1tAHz16VPTyxJzP7CAPAqqlhgUyHwvly09r/PHZ6Ddv3hSBjD/N5/HiVw04yBYBgxy3QLY6XFs7zrcDw+Qgh9YYeH00kKlY3EUkOchiicGXI4IMzPIJiF2ATGcC34/vZPCFV3yykdKnT5+Oen348OGoJy/qjtOoIFOupGFBpjMAuJeXl8lOxJMnTw69fwST1oiQVMp/JT4L2NJijQoyncRhQeYD8YCaKuBwX9xhOFqko3+vXr0ydSSshT2o1KHuo6zzxd4hQa4tsJ5b5RoYib/W/L6X3xKKGw5k/KXaApCvGR2t0dE//P5aXV+8eHFsnfGpe/mjodH0pIIOBTLfidMUzh2LA+sdsTxJX+zUW8qVHfuHAxlfSVM4dYwIRs9pyh3o+vq6O5VTZSf7hgIZ90AUK13Six8hTYG5t/CjVqZDgfz69WsTZFpsCjAVYx0BaHxm9CuJZDx79qwrlXcDsjWnVWKNXZXeDGGJH2uFz7Ge+gaaLsO0yFavFsj3mHIDJQJFT50+kTm1HAZkK1qB27HHZI3kEX7rJaUAln3DgGx19Ebp1NVCZ3UCe+rwCbSppYNcS0Znv3eQLy6SHYWtlqO3yOmScZAd5DQZne11kB3kzpBNi+sgO8hpMjrb6yA7yJ0hmxbXQXaQ02RU7uXJDAZr5AmNytNn/9xBdpBnQcQATTwTjydReEqjZXKQHeTJvFlPp4SPr0/OpPBEB9lBLkTl9GfWULmMSrUaGnaQHeRTQgu3Sh52FZgLLznrZw6yg1wNUO3zcy2eE3SQHeRqkK1hcmmJZdliwo6D7CBXg1zqHwvILfxkB9lBrgaZEwTSkmWLpzMc5M5AJj6rwUNIrEWywBEZWz25TasveaaWyNtLSskv+4aZjwwYolRq2eI2LkD89NNPqiw8ftQqWe5OT0/OpMpV9g0DsvVsWuunpnOPGLUcDKGy4L5IYaeWjx8/7uYB1JT8sm8IkOn9i0K5ZQt/NG5lCcdxJ+BpZmRke410dXWl2gf5eki5smV/9yAzIcf6GtDt7W0P5XQ2GS23CxBa37GmKDssyLRwJV8BajHwMKVgWp1TOlCDP73lNBzItMIlrQyK9/Y2nXOBVPLmIezFS2zWcoEs3bsHGT8TA798+fIIpqZQfGzrrYxVeEsdL22VxX5MOcXeuGUtRiBL9BTZUsvN+8ilLUlKuZ5CSyUFOfc3uUhKynbxPnkj/FwZ5pwfyxRubxpka15vqEi87i5FGpk5DUPr0GGsQVzG4famQY6fsAgF19Y5b41wW2z4rW5PhXntdyprZb5pkGlVNeFzx3qJi64FekncPWVb5lqv2UCkZJJ9mwa55H3Hoki83EoHZS1Yc/nWTjUN7bq2uxbKEq9vGmTrVbGxMvF26wc9c/BsZT+DHrGNarbXHjTRZN00yABA2Giqr9zTPIIWsBNS02DIHaMl3sKgUk4+9m8eZClgeT8EBqX3rCkVHlu7py3yr72siQARs+duxh2Rv62ksFzj9W5Ajo1JpwODxwqltrc6UhXrdK5tGgHrsxTYjWjGWi+SKdE9Vbayr1uQRfGS72TsPYpREqXo4c4l0KaW3YMM0AyjppSTfWt/a3rNkBX2YahZbJFa8iXUHlJKdtk3BMj4cdatcw1fjzkizAVmhh4x2FaPW8VQSmHnlmtHI2J5c9s5+dk/BMgobo1WtQ7F5Vwe/PqWyZostHZsuMYWuwDZ8gNbPmRJ668ZvWXn03oot6ePBGk2HaZFtgqsZYfPeuCz5aijVcFbylLT+qZ+uwuQraHXli0PvrFm9JaVyno9gYOcqjIr7nOQ08Z3kDt7QYuD7CBjgQsxA06zdluU321t6SCnS8RbZG+R02QU7HUfucBIE36iNbDDRC28RU6T4S2yt8hpMgr2eotcYKQJP/EW+eLi4OG39LfFPfw2oUad8xR3LdLWddfCXYs0GQV73bUoMNKEn7hr4a5FNqTqrsWEGnXOU7bkWljzPlpO53TXwl2LyfXOmjrZ8n10DrKDPBlkTsw9ldF6/q+D7CDPApmHOONvifB5iNZPqjjIg4Hc6itKMf08RkSHqqU7EcpggUyEpZe0i6iF9Radm5ubXsprUTmtR8DoJPeSdgEyt3JNUY71VGhLwGV1OrFJy8eu5uqkle8wk4YwkvVKKJ607ulWOqfgcWUuLy/Vyo09ekq7AbnmtVB0xPCbW3e+zgUOdyTmk+SiJSkIengpS2ivlA6yb6gWucS9EMXD5VodsbCQ5qzjHpR83SrUmfWe3ArsE8sfbg8FMsrm3icRKh2v89bOnhOx6Vgna7v1+zWWsK+m03AgYzBeAaUpnTrWy9t2YiB4HVdKH20f8ey1X+MV61Gyrek0JMgUEuE2TfH4WK/uhfUymFhPOoC99gtiXcLtIUGmdgNzTctc0iJs9Tel/jFRHfoRvaYQ3Hh9WJClsBhVswqa0a+ekzXbjkLvXUfKJ4Y33B4eZAGUwubjOrwdk9srcOMrjhJXZrCHFhe96LyiJ6N6o+jnIAvJ0bLnW2ykysnmqHqhZNgCx+u7aZFPSts3urRADG+47SB3WaT7FDoEN153kPfJRJdax/CG2w5yl0W6T6FDcON1B3mfTHSpdQxvuO0gd1mk+xQ6BDded5D3yUSXWsfwhtsOcpdFuk+hQ3DjdQd5n0x0qXUMb7jtIHdZpPsUOgQ3XneQ98lEl1rH8IbbDnKXRbpPoUNw43UHeZ9MdKl1DG+47SB3WaT7FDoEN153kPfJRJdax/CG2w5yl0W6T6FDcON1B3mfTHSpdQxvuO0gd1mk+xQ6BDded5D3yUSXWsfwhtsOcpdFuk+hQ3DjdQd5n0x0qXUMb7jtIHdZpPsUOgQ3Xq8Gmdex+p/bYA0GYnjD7WqQw5N9Pf19Z7dLe7s4yJmP/jiM7WGcY3MH2UFW3+AzB66W5zrIDrKD3LLGeV593epbl5e3yN4ie4vcutZ5ft4q5xiobpEJxfM2eP9zG7RkAO5yELN/Esj7HFdyrde2gIO8dgl4/otYwEFexIx+kbUt4CCvXQKe/yIWcJAXMaNfZG0LOMhrl4Dnv4gFHORFzOgXWdsCDvLaJeD5L2IBB3kRM/pF1rbAECDz0XM+x5v6W8rAfGzx8+fPB74iyh95ss0IVqsUykD+vX4A/Rz2GgLk29vb5BDlw4cPZ9kMUN6/f3/8nK9mKD6LyyeA+abzkl8XpZLwmV0+t6vlz+eGP3z4cPjy5cssfcOTyRudsG34xz4ajKmJyp+77hz5Nft0M0T95s2bZEE/efJkkr2BMVc5NIPJsXfv3k3KV04CIq4h16tZPn/+/HinkGtNXSKDlu/UCqt95J27zNSkybpLkDEmH1bXDGMde/v27dTyOLbAc/NHPio3ME5NFsi0qlOSg6xYbakWmdueBWnJ8am+68ePHxfJX2R89uyZYjX9kAUyeWCv2uQgKxZbAmRulfjUAsHU5VS3glZ8ap7aedfX15P89hKQcWNqk4OsWGwJkHPXEEiePn167FBJtILWiD8iGHQIr66ujiAqYmYP0XmSfHJLbuV0/MiTFp+OEbLQyaOzlzuP/bxnojaVgMy1kakmOciKtXIQlnb2rEIDVCvRok/prADlgwcPsiC+ePGiKBoB0BrMuC01ybKJ5FVqY8nbQRZLJJZzQdZaRAA5Z6K1FCjiJWG3mkTrGF8j3K4Jb5WCzPVrbOQgKyU6F+SXL18mAZjiAypi3jtECx6CFq5P7agRyw6vE67XRBpqQCaP0nCcg3wPg/93zAUZaMICl3WgOGfKVSDyr2k9Yxnx50WHeFkKXC3IxN1LkoOsWGkuyNJRiwt9SnhJEfPkEL5xnJ9s17ScJxf9vqG19CX+PpepBRnZS+zlIKdK7Pu+uSDf3NwkoartkSsi3jukxYyndBrjDHKRDMJxJWkKyCXREQdZsf5ckHNzGUpvl4po2UNEI6QFDpcAuESi5Q2vG66XuC0ayFq8HVC15CAr1pkLsha6KrldKqJlD+WGoZeqPJp7YcGG0BrIWiWxwnEOchaJw3FeQdjiyLplVLkkHSA5J7UsacHkWiVLKkcqH/Yt1cHU4tMlo48ayMioVX4tZu0gK4TMbZG5dO4aApxWOIpoyUNaYS55B8j5yURLrKSBLLagoRD7xMtcdETTfU7fIM4/3N7d7DctbIVhOE5BzE3awMWSrX9usAX/3EolIGt60DCkkoOcssr3fbnWtNS1kEtzO86F4sIaDtBzIhq5iAWdKGRYKuU6sSWDLSUgIyeDRqFtwvXU3cVBVkp3KZDJglti7pYcFhLrQD8F6NykeTqAuVuyon72UO7hAEJwgKqlUpC1TmWq5XeQFasvCbJkk4MthpltfLAa/y4HmPhyIsPcZU4HHs2yKkwpyMjIAE7KLuyLXTEHWSnVc4BMdtwatWHkuPBKR81y8tLCWy2lYoZ7h3JznHG5lgSZa8W2kO3YvXOQ7xXT/ztyYMRG/P+MujXmHFsdQSk4ZLFSLg5LS7mkj5xrKXGdrApT0yKjb04n7BKGFB1khY5zgyxZUwjc/gXa3NJqmSnY1LnMS14yapEbPSyZ1VcLMr+n4cjpJXcAB1loSixbgSxZA6I2TEth0ornklaYS4Kcm9WX6oTFstaCzPnavG55IFfTvaafEcubqkCyT/oeF3KS1RrJ71ovW4OMfrgAWuhJgwXIxcjxkoJeImktZMnsuikgI3eu8qAnlVTT3UFe+L0WNSDlBh0ouJy/y/4YYNkuGT4ukW/uMPhUkLVwHHFtB1kpvTVaZBGHAs+5GdobeXKx6pLhY8lbW869hU8FGZlyAzFU1lxIkGPeIq/YIlNwuTCXzElIAZc7hwKVjlHqvNJ9OZiIjACpleaArN1xtAdtHeSVQc4NOWtugtZihuEqC7jUcS2uq/nu4bXmgMx1tJZX3Kh46SBvFGTr6eJc68RQ9ZykTbEs7UzOBZnKlJtzHQMs27sHOXcbZaSsRcr56FbLmmvJKVirEuT00m7rNRVkLsjIp4XjBN5wOQTIGG5KouY/evQoGQXgWbwWCb8zLBBZt2LCmgvANaYUrBb+sipWaKslQOZ6pSOiU/UVmcXmqWXTODKtKv6bNpAgQofL3AQcFCqNAAAUPh3L2pTrtInxrOtprTKuRynMgKfFtYmS1KSlQEb+FFypfaW6pvRIXU/2SVmcfUAknqBNAQII+1NwYWR8Pau2l06xDPMHfm6JqXxDA3Jcq0Ra6C28DutaLJrCwBaaPCW3cOvuEMu0FMhct3TiVfcg5zo9UqO4dXPLpMVmLq3st5Zx4eS2cz1sWjH8X+ZOcFum9QSq3GQckadkLkMoC36tZQOujf7kjzwlcog8NS6FyLUkyJrfLjKy7BpkrVULlaxdr2kRc4MTtXny+6kz2Ggxc772FDnkHCrflLQkyOSfayxETpZdg6xN/wuVrFmnFS1Npa1Faf61t/BQTmQpedSqVJaayhzKwfrSIOMaWRW1a5AxGkoCn6VoSQFOCVvhb9fGPGNZ8AMp/CWSFgeO801tIwuVYk5aGmRkwcVJySv7ugdZDI7xgIoIRm5uqygdLoEQF2VO4ZE3hsYPDa9trQPNnAIQ3eMluuAHl7o9hCCxW+mAR5xfvH0OkMlD02eOHbVyaha1iI3INq00t2ngokABld49oNHZYh/+H8prPfrUta19QMR1pXPH3YI8kYF88fcAZk7FsWSQ4wCFHWilyRdZQhuILEvbgHy5Nq5f+Me+OcBxbu66c+y5WZClIH3pFiixgINcYiX/zeYt4CBvvohcwBILOMglVvLfbN4CDvLmi8gFLLGAg1xiJf/N5i1QBbI1z2HKYMTmLeQCbt4C1gCSfG7ibvZb7lsbYW1giJVZafzW/9wG52QAzkqG9JGBdAfyuSb4hBXB1y+qRhbdXra94PYEZO2dBG5Q26Buo3VsJA9r3LXIUF07F8ELb53Cc7v/Z3d4lXQCMmP6VqfPjejwboEBOA3noJyADN1MKMk9ubwFBVwGr0jwCadhugeyHGR2WM10SwfMATs3A/CYeyomC7IAzZRGpjlykZJnz86tjF9/PxUG3uAO/qy52FmQv337duDPSkv/jvy+fv1qZXuUzeVLm2mP9nOQv7NQWiG9oqUrz9r2c5Ad5DSZlXZxkBNm3OOtMWGGk11rg3IiTGJjbfkuRIB4+ffffx/4i/fH20v/juvzHFucT7y9dL6l13P5/us7TS2Pc9mvKciJiuy73AKLWOBfEJrP5jh8RLgAAAAASUVORK5CYII=;" parent="F-L6EfSc8vcWyVoIchHZ-1" vertex="1">
          <mxGeometry x="763" y="489.39" width="23.02" height="30" as="geometry" />
        </mxCell>
        <mxCell id="F-L6EfSc8vcWyVoIchHZ-99" value="" style="edgeStyle=elbowEdgeStyle;rounded=0;orthogonalLoop=1;jettySize=auto;html=1;" parent="F-L6EfSc8vcWyVoIchHZ-1" source="F-L6EfSc8vcWyVoIchHZ-100" target="F-L6EfSc8vcWyVoIchHZ-18" edge="1">
          <mxGeometry relative="1" as="geometry" />
        </mxCell>
        <mxCell id="F-L6EfSc8vcWyVoIchHZ-100" value="" style="rounded=1;whiteSpace=wrap;html=1;fillColor=#CCFFFF;" parent="F-L6EfSc8vcWyVoIchHZ-1" vertex="1">
          <mxGeometry x="454" y="-40" width="190" height="63.13" as="geometry" />
        </mxCell>
        <mxCell id="F-L6EfSc8vcWyVoIchHZ-101" value="" style="image;aspect=fixed;html=1;points=[];align=center;fontSize=12;image=img/lib/azure2/databases/SQL_Database.svg;" parent="F-L6EfSc8vcWyVoIchHZ-1" vertex="1">
          <mxGeometry x="643.25" y="477.89" width="39.75" height="53" as="geometry" />
        </mxCell>
        <mxCell id="F-L6EfSc8vcWyVoIchHZ-102" value="" style="group" parent="F-L6EfSc8vcWyVoIchHZ-1" vertex="1" connectable="0">
          <mxGeometry x="58" y="80" width="193.36" height="270" as="geometry" />
        </mxCell>
        <mxCell id="F-L6EfSc8vcWyVoIchHZ-103" value="" style="rounded=1;whiteSpace=wrap;html=1;" parent="F-L6EfSc8vcWyVoIchHZ-102" vertex="1">
          <mxGeometry width="192" height="270" as="geometry" />
        </mxCell>
        <mxCell id="F-L6EfSc8vcWyVoIchHZ-104" value="" style="image;aspect=fixed;html=1;points=[];align=center;fontSize=12;image=img/lib/azure2/management_governance/Monitor.svg;" parent="F-L6EfSc8vcWyVoIchHZ-102" vertex="1">
          <mxGeometry x="23" y="35" width="32" height="32" as="geometry" />
        </mxCell>
        <mxCell id="F-L6EfSc8vcWyVoIchHZ-105" value="" style="image;aspect=fixed;html=1;points=[];align=center;fontSize=12;image=img/lib/azure2/management_governance/Log_Analytics_Workspaces.svg;" parent="F-L6EfSc8vcWyVoIchHZ-102" vertex="1">
          <mxGeometry x="103.36000000000001" y="36" width="33" height="33" as="geometry" />
        </mxCell>
        <mxCell id="F-L6EfSc8vcWyVoIchHZ-106" value="" style="image;aspect=fixed;html=1;points=[];align=center;fontSize=12;image=img/lib/azure2/management_governance/Application_Insights.svg;" parent="F-L6EfSc8vcWyVoIchHZ-102" vertex="1">
          <mxGeometry x="108" y="96" width="24.43" height="34.98" as="geometry" />
        </mxCell>
        <mxCell id="F-L6EfSc8vcWyVoIchHZ-107" value="" style="image;sketch=0;aspect=fixed;html=1;points=[];align=center;fontSize=12;image=img/lib/mscae/Azure_Cache_for_Redis.svg;" parent="F-L6EfSc8vcWyVoIchHZ-102" vertex="1">
          <mxGeometry x="20.370000000000005" y="97" width="37.25" height="37.25" as="geometry" />
        </mxCell>
        <mxCell id="F-L6EfSc8vcWyVoIchHZ-108" value="&lt;font style=&quot;font-size: 12px;&quot;&gt;Redis Cache&lt;/font&gt;" style="text;html=1;align=center;verticalAlign=middle;resizable=0;points=[];autosize=1;strokeColor=none;fillColor=none;" parent="F-L6EfSc8vcWyVoIchHZ-102" vertex="1">
          <mxGeometry x="3.3600000000000136" y="127" width="90" height="30" as="geometry" />
        </mxCell>
        <mxCell id="F-L6EfSc8vcWyVoIchHZ-109" value="&lt;font style=&quot;font-size: 12px;&quot;&gt;Monitoring&lt;/font&gt;" style="text;html=1;align=center;verticalAlign=middle;resizable=0;points=[];autosize=1;strokeColor=none;fillColor=none;" parent="F-L6EfSc8vcWyVoIchHZ-102" vertex="1">
          <mxGeometry x="3.3600000000000136" y="66" width="80" height="30" as="geometry" />
        </mxCell>
        <mxCell id="F-L6EfSc8vcWyVoIchHZ-110" value="&lt;font style=&quot;font-size: 12px;&quot;&gt;Log Analytics&lt;/font&gt;" style="text;html=1;align=center;verticalAlign=middle;resizable=0;points=[];autosize=1;strokeColor=none;fillColor=none;" parent="F-L6EfSc8vcWyVoIchHZ-102" vertex="1">
          <mxGeometry x="78.65" y="66" width="90" height="30" as="geometry" />
        </mxCell>
        <mxCell id="F-L6EfSc8vcWyVoIchHZ-111" value="&lt;font style=&quot;font-size: 12px;&quot;&gt;App Insights&lt;/font&gt;" style="text;html=1;align=center;verticalAlign=middle;resizable=0;points=[];autosize=1;strokeColor=none;fillColor=none;" parent="F-L6EfSc8vcWyVoIchHZ-102" vertex="1">
          <mxGeometry x="83.36000000000001" y="127" width="90" height="30" as="geometry" />
        </mxCell>
        <mxCell id="F-L6EfSc8vcWyVoIchHZ-112" value="" style="image;aspect=fixed;html=1;points=[];align=center;fontSize=12;image=img/lib/azure2/management_governance/Advisor.svg;" parent="F-L6EfSc8vcWyVoIchHZ-102" vertex="1">
          <mxGeometry x="20.370000000000005" y="157" width="38.79" height="37.61" as="geometry" />
        </mxCell>
        <mxCell id="F-L6EfSc8vcWyVoIchHZ-113" value="" style="image;aspect=fixed;html=1;points=[];align=center;fontSize=12;image=img/lib/azure2/security/Security_Center.svg;" parent="F-L6EfSc8vcWyVoIchHZ-102" vertex="1">
          <mxGeometry x="108" y="156.11" width="31.7" height="38.5" as="geometry" />
        </mxCell>
        <mxCell id="F-L6EfSc8vcWyVoIchHZ-114" value="&lt;font style=&quot;font-size: 12px;&quot;&gt;Advisor&lt;/font&gt;" style="text;html=1;align=center;verticalAlign=middle;resizable=0;points=[];autosize=1;strokeColor=none;fillColor=none;" parent="F-L6EfSc8vcWyVoIchHZ-102" vertex="1">
          <mxGeometry x="13.360000000000014" y="184.5" width="60" height="30" as="geometry" />
        </mxCell>
        <mxCell id="F-L6EfSc8vcWyVoIchHZ-115" value="&lt;font style=&quot;font-size: 12px;&quot;&gt;Security Center&lt;/font&gt;" style="text;html=1;align=center;verticalAlign=middle;resizable=0;points=[];autosize=1;strokeColor=none;fillColor=none;" parent="F-L6EfSc8vcWyVoIchHZ-102" vertex="1">
          <mxGeometry x="83.36000000000001" y="187.25" width="110" height="30" as="geometry" />
        </mxCell>
        <mxCell id="F-L6EfSc8vcWyVoIchHZ-116" value="" style="image;aspect=fixed;html=1;points=[];align=center;fontSize=12;image=img/lib/azure2/general/Cost_Management_and_Billing.svg;" parent="F-L6EfSc8vcWyVoIchHZ-102" vertex="1">
          <mxGeometry x="23.730000000000018" y="217.25" width="39.25" height="39.25" as="geometry" />
        </mxCell>
        <mxCell id="F-L6EfSc8vcWyVoIchHZ-117" value="&lt;font style=&quot;font-size: 12px;&quot;&gt;Cost Management &lt;br&gt;&amp;amp; Billing&lt;/font&gt;" style="text;html=1;align=center;verticalAlign=middle;resizable=0;points=[];autosize=1;strokeColor=none;fillColor=none;" parent="F-L6EfSc8vcWyVoIchHZ-102" vertex="1">
          <mxGeometry x="73.36000000000001" y="216.5" width="120" height="40" as="geometry" />
        </mxCell>
        <mxCell id="F-L6EfSc8vcWyVoIchHZ-118" value="&lt;span style=&quot;font-size: 10px;&quot;&gt;&lt;b&gt;Shared Services&lt;/b&gt;&lt;/span&gt;" style="text;html=1;align=center;verticalAlign=middle;resizable=0;points=[];autosize=1;strokeColor=none;fillColor=none;spacing=0;" parent="F-L6EfSc8vcWyVoIchHZ-102" vertex="1">
          <mxGeometry x="46" y="8" width="100" height="20" as="geometry" />
        </mxCell>
        <mxCell id="F-L6EfSc8vcWyVoIchHZ-119" value="&lt;font style=&quot;font-size: 12px;&quot;&gt;Mobile &amp;amp; Web REST API(s)&lt;/font&gt;" style="text;html=1;align=center;verticalAlign=middle;resizable=0;points=[];autosize=1;strokeColor=none;fillColor=none;" parent="F-L6EfSc8vcWyVoIchHZ-1" vertex="1">
          <mxGeometry x="464" y="2" width="170" height="30" as="geometry" />
        </mxCell>
        <mxCell id="F-L6EfSc8vcWyVoIchHZ-120" value="" style="sketch=0;aspect=fixed;pointerEvents=1;shadow=0;dashed=0;html=1;strokeColor=none;labelPosition=center;verticalLabelPosition=bottom;verticalAlign=top;align=center;fillColor=#00188D;shape=mxgraph.azure.mobile" parent="F-L6EfSc8vcWyVoIchHZ-1" vertex="1">
          <mxGeometry x="480" y="-38.620000000000005" width="26.26" height="37.51" as="geometry" />
        </mxCell>
        <mxCell id="F-L6EfSc8vcWyVoIchHZ-121" value="" style="verticalLabelPosition=bottom;aspect=fixed;html=1;shape=mxgraph.salesforce.web;" parent="F-L6EfSc8vcWyVoIchHZ-1" vertex="1">
          <mxGeometry x="550.12" y="-37.400000000000006" width="47.34" height="37.4" as="geometry" />
        </mxCell>
        <mxCell id="F-L6EfSc8vcWyVoIchHZ-122" value="&lt;font style=&quot;font-size: 10px;&quot;&gt;&lt;b&gt;Unified Integration Layer&lt;/b&gt;&lt;/font&gt;" style="text;html=1;align=center;verticalAlign=middle;resizable=0;points=[];autosize=1;strokeColor=none;fillColor=none;spacing=0;" parent="F-L6EfSc8vcWyVoIchHZ-1" vertex="1">
          <mxGeometry x="583.19" y="241" width="140" height="20" as="geometry" />
        </mxCell>
        <mxCell id="F-L6EfSc8vcWyVoIchHZ-125" value="HTTP Rest" style="text;html=1;align=center;verticalAlign=middle;resizable=0;points=[];autosize=1;strokeColor=none;fillColor=none;spacing=0;fontSize=10;rotation=90;" parent="F-L6EfSc8vcWyVoIchHZ-1" vertex="1">
          <mxGeometry x="275" y="508.39" width="70" height="20" as="geometry" />
        </mxCell>
        <mxCell id="F-L6EfSc8vcWyVoIchHZ-126" value="HTTP Rest" style="text;html=1;align=center;verticalAlign=middle;resizable=0;points=[];autosize=1;strokeColor=none;fillColor=none;spacing=0;fontSize=10;rotation=90;" parent="F-L6EfSc8vcWyVoIchHZ-1" vertex="1">
          <mxGeometry x="346" y="507.39" width="70" height="20" as="geometry" />
        </mxCell>
        <mxCell id="F-L6EfSc8vcWyVoIchHZ-127" value="" style="shape=image;verticalLabelPosition=bottom;labelBackgroundColor=default;verticalAlign=top;aspect=fixed;imageAspect=0;image=data:image/png,iVBORw0KGgoAAAANSUhEUgAAALIAAADoCAYAAABLn775AAAV3UlEQVR4Ae2dr48dNxCAj4cFBQWeFHboykpOYaEhhUGRwgOPhUSFgUFBYf0HKuUPKCguCorCCluQSq/6XjNXP589Y+/u8669Y+luf71dz4w/e8dj7+7FIZO+fft24M9KS/+O/L5+/Wple5TN5Uubaev2Q+qff/45LfzEvRfWeZ8+fTq8fv36cHl5eXjw4MHh4uLC/zq3AWV5e3t7+P33363i7+Z4FmQAvrq6cmg7h9ZqeF69enX4559/ugE2J2gS5I8fPzrAgwMcAv7jjz92D/M9kH/99VeHeEcQC9C9w3wC8p9//ukQ7xDiEOa//vord/fe9P4TkN++fesg7xhkgP7hhx+6dDNOQJaa6ct9R2Z6dDPuQP7tt9/M1pgoxtOnTw83Nzf+15ENKLPr62uzfMMGDJh7cjPuQH737p2qKLFkT/1a4JdfflHLN4RY1nuC+Q5kQBUFUsuRguf94jhd8vfv36vlmypz9vXiZtyB/Pz5c1VRIhqe+rXAVJB7gfkOZHqruVrJfk99W2AOyJQ/fGzZZ74j1EHuG1RL+rkgC8xbHc52kC0CBjm+BMjAvFWf2UEeBFRLDQtk5tc8fvxYdS8BWWDempvhIFsEDHLcAvmPP/44fPny5fDw4cMuYXaQBwHVUsMCWcKrnz9/LgJ5az6zg2wRMMjxUpBRtwbmrfjMDvIgoFpq1IAsMJe6GVsIzTnIFgGDHK8FuRbmtYezHeRBQLXUmAKywCzRCmu5ppvhIFsEDHJ8Ksi9wOwgDwKqpcYckAXmLfvMDrJFwCDH54IsMFvuhRynA9hyONtBHgRUS40lQK6FuaXP7CBbBAxyfCmQBebSl/W0imY4yIOAaqmxJMgCc6nP3AJmB9kiYJDjS4MsMItPbC3P7TM7yIOAaqlxDpBrYT6nz+wgWwQMcvxcIAvMpW7GuYazHeRBQLXUOCfIAvOaHUAH2SJgkOPnBllgtnxlOb60m+EgDwKqpUYLkNeE2UG2CBjkeCuQBebWPrODPAiolhotQRaYxY2wlkuE5hxki4BBjrcGuRbmuT6zgzwIqJYaa4AsMJe6GXNGAB1ki4BBjq8FciuYHeRBQLXUWBNkgdnyleX4FDfDQbYIGOT42iCfG2YHeRBQLTW2ALLAXOoz1wxnO8gWAYMc3wrIAnPpcHZpaM5BHgRUS40tgSwwi09sLUt8ZgfZImCQ41sDWWAubZktmB3kQUC11NgiyAJzqc+sxZkdZIuAQY5vFWTMy1tAHz16VPTyxJzP7CAPAqqlhgUyHwvly09r/PHZ6Ddv3hSBjD/N5/HiVw04yBYBgxy3QLY6XFs7zrcDw+Qgh9YYeH00kKlY3EUkOchiicGXI4IMzPIJiF2ATGcC34/vZPCFV3yykdKnT5+Oen348OGoJy/qjtOoIFOupGFBpjMAuJeXl8lOxJMnTw69fwST1oiQVMp/JT4L2NJijQoyncRhQeYD8YCaKuBwX9xhOFqko3+vXr0ydSSshT2o1KHuo6zzxd4hQa4tsJ5b5RoYib/W/L6X3xKKGw5k/KXaApCvGR2t0dE//P5aXV+8eHFsnfGpe/mjodH0pIIOBTLfidMUzh2LA+sdsTxJX+zUW8qVHfuHAxlfSVM4dYwIRs9pyh3o+vq6O5VTZSf7hgIZ90AUK13Six8hTYG5t/CjVqZDgfz69WsTZFpsCjAVYx0BaHxm9CuJZDx79qwrlXcDsjWnVWKNXZXeDGGJH2uFz7Ge+gaaLsO0yFavFsj3mHIDJQJFT50+kTm1HAZkK1qB27HHZI3kEX7rJaUAln3DgGx19Ebp1NVCZ3UCe+rwCbSppYNcS0Znv3eQLy6SHYWtlqO3yOmScZAd5DQZne11kB3kzpBNi+sgO8hpMjrb6yA7yJ0hmxbXQXaQ02RU7uXJDAZr5AmNytNn/9xBdpBnQcQATTwTjydReEqjZXKQHeTJvFlPp4SPr0/OpPBEB9lBLkTl9GfWULmMSrUaGnaQHeRTQgu3Sh52FZgLLznrZw6yg1wNUO3zcy2eE3SQHeRqkK1hcmmJZdliwo6D7CBXg1zqHwvILfxkB9lBrgaZEwTSkmWLpzMc5M5AJj6rwUNIrEWywBEZWz25TasveaaWyNtLSskv+4aZjwwYolRq2eI2LkD89NNPqiw8ftQqWe5OT0/OpMpV9g0DsvVsWuunpnOPGLUcDKGy4L5IYaeWjx8/7uYB1JT8sm8IkOn9i0K5ZQt/NG5lCcdxJ+BpZmRke410dXWl2gf5eki5smV/9yAzIcf6GtDt7W0P5XQ2GS23CxBa37GmKDssyLRwJV8BajHwMKVgWp1TOlCDP73lNBzItMIlrQyK9/Y2nXOBVPLmIezFS2zWcoEs3bsHGT8TA798+fIIpqZQfGzrrYxVeEsdL22VxX5MOcXeuGUtRiBL9BTZUsvN+8ilLUlKuZ5CSyUFOfc3uUhKynbxPnkj/FwZ5pwfyxRubxpka15vqEi87i5FGpk5DUPr0GGsQVzG4famQY6fsAgF19Y5b41wW2z4rW5PhXntdyprZb5pkGlVNeFzx3qJi64FekncPWVb5lqv2UCkZJJ9mwa55H3Hoki83EoHZS1Yc/nWTjUN7bq2uxbKEq9vGmTrVbGxMvF26wc9c/BsZT+DHrGNarbXHjTRZN00yABA2Giqr9zTPIIWsBNS02DIHaMl3sKgUk4+9m8eZClgeT8EBqX3rCkVHlu7py3yr72siQARs+duxh2Rv62ksFzj9W5Ajo1JpwODxwqltrc6UhXrdK5tGgHrsxTYjWjGWi+SKdE9Vbayr1uQRfGS72TsPYpREqXo4c4l0KaW3YMM0AyjppSTfWt/a3rNkBX2YahZbJFa8iXUHlJKdtk3BMj4cdatcw1fjzkizAVmhh4x2FaPW8VQSmHnlmtHI2J5c9s5+dk/BMgobo1WtQ7F5Vwe/PqWyZostHZsuMYWuwDZ8gNbPmRJ668ZvWXn03oot6ePBGk2HaZFtgqsZYfPeuCz5aijVcFbylLT+qZ+uwuQraHXli0PvrFm9JaVyno9gYOcqjIr7nOQ08Z3kDt7QYuD7CBjgQsxA06zdluU321t6SCnS8RbZG+R02QU7HUfucBIE36iNbDDRC28RU6T4S2yt8hpMgr2eotcYKQJP/EW+eLi4OG39LfFPfw2oUad8xR3LdLWddfCXYs0GQV73bUoMNKEn7hr4a5FNqTqrsWEGnXOU7bkWljzPlpO53TXwl2LyfXOmjrZ8n10DrKDPBlkTsw9ldF6/q+D7CDPApmHOONvifB5iNZPqjjIg4Hc6itKMf08RkSHqqU7EcpggUyEpZe0i6iF9Radm5ubXsprUTmtR8DoJPeSdgEyt3JNUY71VGhLwGV1OrFJy8eu5uqkle8wk4YwkvVKKJ607ulWOqfgcWUuLy/Vyo09ekq7AbnmtVB0xPCbW3e+zgUOdyTmk+SiJSkIengpS2ivlA6yb6gWucS9EMXD5VodsbCQ5qzjHpR83SrUmfWe3ArsE8sfbg8FMsrm3icRKh2v89bOnhOx6Vgna7v1+zWWsK+m03AgYzBeAaUpnTrWy9t2YiB4HVdKH20f8ey1X+MV61Gyrek0JMgUEuE2TfH4WK/uhfUymFhPOoC99gtiXcLtIUGmdgNzTctc0iJs9Tel/jFRHfoRvaYQ3Hh9WJClsBhVswqa0a+ekzXbjkLvXUfKJ4Y33B4eZAGUwubjOrwdk9srcOMrjhJXZrCHFhe96LyiJ6N6o+jnIAvJ0bLnW2ykysnmqHqhZNgCx+u7aZFPSts3urRADG+47SB3WaT7FDoEN153kPfJRJdax/CG2w5yl0W6T6FDcON1B3mfTHSpdQxvuO0gd1mk+xQ6BDded5D3yUSXWsfwhtsOcpdFuk+hQ3DjdQd5n0x0qXUMb7jtIHdZpPsUOgQ3XneQ98lEl1rH8IbbDnKXRbpPoUNw43UHeZ9MdKl1DG+47SB3WaT7FDoEN153kPfJRJdax/CG2w5yl0W6T6FDcON1B3mfTHSpdQxvuO0gd1mk+xQ6BDded5D3yUSXWsfwhtsOcpdFuk+hQ3DjdQd5n0x0qXUMb7jtIHdZpPsUOgQ3Xq8Gmdex+p/bYA0GYnjD7WqQw5N9Pf19Z7dLe7s4yJmP/jiM7WGcY3MH2UFW3+AzB66W5zrIDrKD3LLGeV593epbl5e3yN4ie4vcutZ5ft4q5xiobpEJxfM2eP9zG7RkAO5yELN/Esj7HFdyrde2gIO8dgl4/otYwEFexIx+kbUt4CCvXQKe/yIWcJAXMaNfZG0LOMhrl4Dnv4gFHORFzOgXWdsCDvLaJeD5L2IBB3kRM/pF1rbAECDz0XM+x5v6W8rAfGzx8+fPB74iyh95ss0IVqsUykD+vX4A/Rz2GgLk29vb5BDlw4cPZ9kMUN6/f3/8nK9mKD6LyyeA+abzkl8XpZLwmV0+t6vlz+eGP3z4cPjy5cssfcOTyRudsG34xz4ajKmJyp+77hz5Nft0M0T95s2bZEE/efJkkr2BMVc5NIPJsXfv3k3KV04CIq4h16tZPn/+/HinkGtNXSKDlu/UCqt95J27zNSkybpLkDEmH1bXDGMde/v27dTyOLbAc/NHPio3ME5NFsi0qlOSg6xYbakWmdueBWnJ8am+68ePHxfJX2R89uyZYjX9kAUyeWCv2uQgKxZbAmRulfjUAsHU5VS3glZ8ap7aedfX15P89hKQcWNqk4OsWGwJkHPXEEiePn167FBJtILWiD8iGHQIr66ujiAqYmYP0XmSfHJLbuV0/MiTFp+OEbLQyaOzlzuP/bxnojaVgMy1kakmOciKtXIQlnb2rEIDVCvRok/prADlgwcPsiC+ePGiKBoB0BrMuC01ybKJ5FVqY8nbQRZLJJZzQdZaRAA5Z6K1FCjiJWG3mkTrGF8j3K4Jb5WCzPVrbOQgKyU6F+SXL18mAZjiAypi3jtECx6CFq5P7agRyw6vE67XRBpqQCaP0nCcg3wPg/93zAUZaMICl3WgOGfKVSDyr2k9Yxnx50WHeFkKXC3IxN1LkoOsWGkuyNJRiwt9SnhJEfPkEL5xnJ9s17ScJxf9vqG19CX+PpepBRnZS+zlIKdK7Pu+uSDf3NwkoartkSsi3jukxYyndBrjDHKRDMJxJWkKyCXREQdZsf5ckHNzGUpvl4po2UNEI6QFDpcAuESi5Q2vG66XuC0ayFq8HVC15CAr1pkLsha6KrldKqJlD+WGoZeqPJp7YcGG0BrIWiWxwnEOchaJw3FeQdjiyLplVLkkHSA5J7UsacHkWiVLKkcqH/Yt1cHU4tMlo48ayMioVX4tZu0gK4TMbZG5dO4aApxWOIpoyUNaYS55B8j5yURLrKSBLLagoRD7xMtcdETTfU7fIM4/3N7d7DctbIVhOE5BzE3awMWSrX9usAX/3EolIGt60DCkkoOcssr3fbnWtNS1kEtzO86F4sIaDtBzIhq5iAWdKGRYKuU6sSWDLSUgIyeDRqFtwvXU3cVBVkp3KZDJglti7pYcFhLrQD8F6NykeTqAuVuyon72UO7hAEJwgKqlUpC1TmWq5XeQFasvCbJkk4MthpltfLAa/y4HmPhyIsPcZU4HHs2yKkwpyMjIAE7KLuyLXTEHWSnVc4BMdtwatWHkuPBKR81y8tLCWy2lYoZ7h3JznHG5lgSZa8W2kO3YvXOQ7xXT/ztyYMRG/P+MujXmHFsdQSk4ZLFSLg5LS7mkj5xrKXGdrApT0yKjb04n7BKGFB1khY5zgyxZUwjc/gXa3NJqmSnY1LnMS14yapEbPSyZ1VcLMr+n4cjpJXcAB1loSixbgSxZA6I2TEth0ornklaYS4Kcm9WX6oTFstaCzPnavG55IFfTvaafEcubqkCyT/oeF3KS1RrJ71ovW4OMfrgAWuhJgwXIxcjxkoJeImktZMnsuikgI3eu8qAnlVTT3UFe+L0WNSDlBh0ouJy/y/4YYNkuGT4ukW/uMPhUkLVwHHFtB1kpvTVaZBGHAs+5GdobeXKx6pLhY8lbW869hU8FGZlyAzFU1lxIkGPeIq/YIlNwuTCXzElIAZc7hwKVjlHqvNJ9OZiIjACpleaArN1xtAdtHeSVQc4NOWtugtZihuEqC7jUcS2uq/nu4bXmgMx1tJZX3Kh46SBvFGTr6eJc68RQ9ZykTbEs7UzOBZnKlJtzHQMs27sHOXcbZaSsRcr56FbLmmvJKVirEuT00m7rNRVkLsjIp4XjBN5wOQTIGG5KouY/evQoGQXgWbwWCb8zLBBZt2LCmgvANaYUrBb+sipWaKslQOZ6pSOiU/UVmcXmqWXTODKtKv6bNpAgQofL3AQcFCqNAAAUPh3L2pTrtInxrOtprTKuRynMgKfFtYmS1KSlQEb+FFypfaW6pvRIXU/2SVmcfUAknqBNAQII+1NwYWR8Pau2l06xDPMHfm6JqXxDA3Jcq0Ra6C28DutaLJrCwBaaPCW3cOvuEMu0FMhct3TiVfcg5zo9UqO4dXPLpMVmLq3st5Zx4eS2cz1sWjH8X+ZOcFum9QSq3GQckadkLkMoC36tZQOujf7kjzwlcog8NS6FyLUkyJrfLjKy7BpkrVULlaxdr2kRc4MTtXny+6kz2Ggxc772FDnkHCrflLQkyOSfayxETpZdg6xN/wuVrFmnFS1Npa1Faf61t/BQTmQpedSqVJaayhzKwfrSIOMaWRW1a5AxGkoCn6VoSQFOCVvhb9fGPGNZ8AMp/CWSFgeO801tIwuVYk5aGmRkwcVJySv7ugdZDI7xgIoIRm5uqygdLoEQF2VO4ZE3hsYPDa9trQPNnAIQ3eMluuAHl7o9hCCxW+mAR5xfvH0OkMlD02eOHbVyaha1iI3INq00t2ngokABld49oNHZYh/+H8prPfrUta19QMR1pXPH3YI8kYF88fcAZk7FsWSQ4wCFHWilyRdZQhuILEvbgHy5Nq5f+Me+OcBxbu66c+y5WZClIH3pFiixgINcYiX/zeYt4CBvvohcwBILOMglVvLfbN4CDvLmi8gFLLGAg1xiJf/N5i1QBbI1z2HKYMTmLeQCbt4C1gCSfG7ibvZb7lsbYW1giJVZafzW/9wG52QAzkqG9JGBdAfyuSb4hBXB1y+qRhbdXra94PYEZO2dBG5Q26Buo3VsJA9r3LXIUF07F8ELb53Cc7v/Z3d4lXQCMmP6VqfPjejwboEBOA3noJyADN1MKMk9ubwFBVwGr0jwCadhugeyHGR2WM10SwfMATs3A/CYeyomC7IAzZRGpjlykZJnz86tjF9/PxUG3uAO/qy52FmQv337duDPSkv/jvy+fv1qZXuUzeVLm2mP9nOQv7NQWiG9oqUrz9r2c5Ad5DSZlXZxkBNm3OOtMWGGk11rg3IiTGJjbfkuRIB4+ffffx/4i/fH20v/juvzHFucT7y9dL6l13P5/us7TS2Pc9mvKciJiuy73AKLWOBfEJrP5jh8RLgAAAAASUVORK5CYII=;" parent="F-L6EfSc8vcWyVoIchHZ-1" vertex="1">
          <mxGeometry x="393" y="485.39" width="23.02" height="30" as="geometry" />
        </mxCell>
        <mxCell id="F-L6EfSc8vcWyVoIchHZ-135" value="" style="group" parent="F-L6EfSc8vcWyVoIchHZ-1" vertex="1" connectable="0">
          <mxGeometry x="1023" y="251" width="149.67000000000007" height="212" as="geometry" />
        </mxCell>
        <mxCell id="F-L6EfSc8vcWyVoIchHZ-136" value="" style="rounded=1;whiteSpace=wrap;html=1;fillColor=#99FFFF;" parent="F-L6EfSc8vcWyVoIchHZ-135" vertex="1">
          <mxGeometry width="140" height="212" as="geometry" />
        </mxCell>
        <mxCell id="F-L6EfSc8vcWyVoIchHZ-137" value="&lt;span style=&quot;font-size: 10px;&quot;&gt;&lt;b&gt;On-Premise&lt;/b&gt;&lt;/span&gt;" style="text;html=1;align=center;verticalAlign=middle;resizable=0;points=[];autosize=1;strokeColor=none;fillColor=none;spacing=0;" parent="F-L6EfSc8vcWyVoIchHZ-135" vertex="1">
          <mxGeometry x="33.99000000000001" y="12" width="80" height="20" as="geometry" />
        </mxCell>
        <mxCell id="F-L6EfSc8vcWyVoIchHZ-138" value="" style="shape=image;verticalLabelPosition=bottom;labelBackgroundColor=default;verticalAlign=top;aspect=fixed;imageAspect=0;image=data:image/png,iVBORw0KGgoAAAANSUhEUgAAALIAAADoCAYAAABLn775AAAV3UlEQVR4Ae2dr48dNxCAj4cFBQWeFHboykpOYaEhhUGRwgOPhUSFgUFBYf0HKuUPKCguCorCCluQSq/6XjNXP589Y+/u8669Y+luf71dz4w/e8dj7+7FIZO+fft24M9KS/+O/L5+/Wple5TN5Uubaev2Q+qff/45LfzEvRfWeZ8+fTq8fv36cHl5eXjw4MHh4uLC/zq3AWV5e3t7+P33363i7+Z4FmQAvrq6cmg7h9ZqeF69enX4559/ugE2J2gS5I8fPzrAgwMcAv7jjz92D/M9kH/99VeHeEcQC9C9w3wC8p9//ukQ7xDiEOa//vord/fe9P4TkN++fesg7xhkgP7hhx+6dDNOQJaa6ct9R2Z6dDPuQP7tt9/M1pgoxtOnTw83Nzf+15ENKLPr62uzfMMGDJh7cjPuQH737p2qKLFkT/1a4JdfflHLN4RY1nuC+Q5kQBUFUsuRguf94jhd8vfv36vlmypz9vXiZtyB/Pz5c1VRIhqe+rXAVJB7gfkOZHqruVrJfk99W2AOyJQ/fGzZZ74j1EHuG1RL+rkgC8xbHc52kC0CBjm+BMjAvFWf2UEeBFRLDQtk5tc8fvxYdS8BWWDempvhIFsEDHLcAvmPP/44fPny5fDw4cMuYXaQBwHVUsMCWcKrnz9/LgJ5az6zg2wRMMjxUpBRtwbmrfjMDvIgoFpq1IAsMJe6GVsIzTnIFgGDHK8FuRbmtYezHeRBQLXUmAKywCzRCmu5ppvhIFsEDHJ8Ksi9wOwgDwKqpcYckAXmLfvMDrJFwCDH54IsMFvuhRynA9hyONtBHgRUS40lQK6FuaXP7CBbBAxyfCmQBebSl/W0imY4yIOAaqmxJMgCc6nP3AJmB9kiYJDjS4MsMItPbC3P7TM7yIOAaqlxDpBrYT6nz+wgWwQMcvxcIAvMpW7GuYazHeRBQLXUOCfIAvOaHUAH2SJgkOPnBllgtnxlOb60m+EgDwKqpUYLkNeE2UG2CBjkeCuQBebWPrODPAiolhotQRaYxY2wlkuE5hxki4BBjrcGuRbmuT6zgzwIqJYaa4AsMJe6GXNGAB1ki4BBjq8FciuYHeRBQLXUWBNkgdnyleX4FDfDQbYIGOT42iCfG2YHeRBQLTW2ALLAXOoz1wxnO8gWAYMc3wrIAnPpcHZpaM5BHgRUS40tgSwwi09sLUt8ZgfZImCQ41sDWWAubZktmB3kQUC11NgiyAJzqc+sxZkdZIuAQY5vFWTMy1tAHz16VPTyxJzP7CAPAqqlhgUyHwvly09r/PHZ6Ddv3hSBjD/N5/HiVw04yBYBgxy3QLY6XFs7zrcDw+Qgh9YYeH00kKlY3EUkOchiicGXI4IMzPIJiF2ATGcC34/vZPCFV3yykdKnT5+Oen348OGoJy/qjtOoIFOupGFBpjMAuJeXl8lOxJMnTw69fwST1oiQVMp/JT4L2NJijQoyncRhQeYD8YCaKuBwX9xhOFqko3+vXr0ydSSshT2o1KHuo6zzxd4hQa4tsJ5b5RoYib/W/L6X3xKKGw5k/KXaApCvGR2t0dE//P5aXV+8eHFsnfGpe/mjodH0pIIOBTLfidMUzh2LA+sdsTxJX+zUW8qVHfuHAxlfSVM4dYwIRs9pyh3o+vq6O5VTZSf7hgIZ90AUK13Six8hTYG5t/CjVqZDgfz69WsTZFpsCjAVYx0BaHxm9CuJZDx79qwrlXcDsjWnVWKNXZXeDGGJH2uFz7Ge+gaaLsO0yFavFsj3mHIDJQJFT50+kTm1HAZkK1qB27HHZI3kEX7rJaUAln3DgGx19Ebp1NVCZ3UCe+rwCbSppYNcS0Znv3eQLy6SHYWtlqO3yOmScZAd5DQZne11kB3kzpBNi+sgO8hpMjrb6yA7yJ0hmxbXQXaQ02RU7uXJDAZr5AmNytNn/9xBdpBnQcQATTwTjydReEqjZXKQHeTJvFlPp4SPr0/OpPBEB9lBLkTl9GfWULmMSrUaGnaQHeRTQgu3Sh52FZgLLznrZw6yg1wNUO3zcy2eE3SQHeRqkK1hcmmJZdliwo6D7CBXg1zqHwvILfxkB9lBrgaZEwTSkmWLpzMc5M5AJj6rwUNIrEWywBEZWz25TasveaaWyNtLSskv+4aZjwwYolRq2eI2LkD89NNPqiw8ftQqWe5OT0/OpMpV9g0DsvVsWuunpnOPGLUcDKGy4L5IYaeWjx8/7uYB1JT8sm8IkOn9i0K5ZQt/NG5lCcdxJ+BpZmRke410dXWl2gf5eki5smV/9yAzIcf6GtDt7W0P5XQ2GS23CxBa37GmKDssyLRwJV8BajHwMKVgWp1TOlCDP73lNBzItMIlrQyK9/Y2nXOBVPLmIezFS2zWcoEs3bsHGT8TA798+fIIpqZQfGzrrYxVeEsdL22VxX5MOcXeuGUtRiBL9BTZUsvN+8ilLUlKuZ5CSyUFOfc3uUhKynbxPnkj/FwZ5pwfyxRubxpka15vqEi87i5FGpk5DUPr0GGsQVzG4famQY6fsAgF19Y5b41wW2z4rW5PhXntdyprZb5pkGlVNeFzx3qJi64FekncPWVb5lqv2UCkZJJ9mwa55H3Hoki83EoHZS1Yc/nWTjUN7bq2uxbKEq9vGmTrVbGxMvF26wc9c/BsZT+DHrGNarbXHjTRZN00yABA2Giqr9zTPIIWsBNS02DIHaMl3sKgUk4+9m8eZClgeT8EBqX3rCkVHlu7py3yr72siQARs+duxh2Rv62ksFzj9W5Ajo1JpwODxwqltrc6UhXrdK5tGgHrsxTYjWjGWi+SKdE9Vbayr1uQRfGS72TsPYpREqXo4c4l0KaW3YMM0AyjppSTfWt/a3rNkBX2YahZbJFa8iXUHlJKdtk3BMj4cdatcw1fjzkizAVmhh4x2FaPW8VQSmHnlmtHI2J5c9s5+dk/BMgobo1WtQ7F5Vwe/PqWyZostHZsuMYWuwDZ8gNbPmRJ668ZvWXn03oot6ePBGk2HaZFtgqsZYfPeuCz5aijVcFbylLT+qZ+uwuQraHXli0PvrFm9JaVyno9gYOcqjIr7nOQ08Z3kDt7QYuD7CBjgQsxA06zdluU321t6SCnS8RbZG+R02QU7HUfucBIE36iNbDDRC28RU6T4S2yt8hpMgr2eotcYKQJP/EW+eLi4OG39LfFPfw2oUad8xR3LdLWddfCXYs0GQV73bUoMNKEn7hr4a5FNqTqrsWEGnXOU7bkWljzPlpO53TXwl2LyfXOmjrZ8n10DrKDPBlkTsw9ldF6/q+D7CDPApmHOONvifB5iNZPqjjIg4Hc6itKMf08RkSHqqU7EcpggUyEpZe0i6iF9Radm5ubXsprUTmtR8DoJPeSdgEyt3JNUY71VGhLwGV1OrFJy8eu5uqkle8wk4YwkvVKKJ607ulWOqfgcWUuLy/Vyo09ekq7AbnmtVB0xPCbW3e+zgUOdyTmk+SiJSkIengpS2ivlA6yb6gWucS9EMXD5VodsbCQ5qzjHpR83SrUmfWe3ArsE8sfbg8FMsrm3icRKh2v89bOnhOx6Vgna7v1+zWWsK+m03AgYzBeAaUpnTrWy9t2YiB4HVdKH20f8ey1X+MV61Gyrek0JMgUEuE2TfH4WK/uhfUymFhPOoC99gtiXcLtIUGmdgNzTctc0iJs9Tel/jFRHfoRvaYQ3Hh9WJClsBhVswqa0a+ekzXbjkLvXUfKJ4Y33B4eZAGUwubjOrwdk9srcOMrjhJXZrCHFhe96LyiJ6N6o+jnIAvJ0bLnW2ykysnmqHqhZNgCx+u7aZFPSts3urRADG+47SB3WaT7FDoEN153kPfJRJdax/CG2w5yl0W6T6FDcON1B3mfTHSpdQxvuO0gd1mk+xQ6BDded5D3yUSXWsfwhtsOcpdFuk+hQ3DjdQd5n0x0qXUMb7jtIHdZpPsUOgQ3XneQ98lEl1rH8IbbDnKXRbpPoUNw43UHeZ9MdKl1DG+47SB3WaT7FDoEN153kPfJRJdax/CG2w5yl0W6T6FDcON1B3mfTHSpdQxvuO0gd1mk+xQ6BDded5D3yUSXWsfwhtsOcpdFuk+hQ3DjdQd5n0x0qXUMb7jtIHdZpPsUOgQ3Xq8Gmdex+p/bYA0GYnjD7WqQw5N9Pf19Z7dLe7s4yJmP/jiM7WGcY3MH2UFW3+AzB66W5zrIDrKD3LLGeV593epbl5e3yN4ie4vcutZ5ft4q5xiobpEJxfM2eP9zG7RkAO5yELN/Esj7HFdyrde2gIO8dgl4/otYwEFexIx+kbUt4CCvXQKe/yIWcJAXMaNfZG0LOMhrl4Dnv4gFHORFzOgXWdsCDvLaJeD5L2IBB3kRM/pF1rbAECDz0XM+x5v6W8rAfGzx8+fPB74iyh95ss0IVqsUykD+vX4A/Rz2GgLk29vb5BDlw4cPZ9kMUN6/f3/8nK9mKD6LyyeA+abzkl8XpZLwmV0+t6vlz+eGP3z4cPjy5cssfcOTyRudsG34xz4ajKmJyp+77hz5Nft0M0T95s2bZEE/efJkkr2BMVc5NIPJsXfv3k3KV04CIq4h16tZPn/+/HinkGtNXSKDlu/UCqt95J27zNSkybpLkDEmH1bXDGMde/v27dTyOLbAc/NHPio3ME5NFsi0qlOSg6xYbakWmdueBWnJ8am+68ePHxfJX2R89uyZYjX9kAUyeWCv2uQgKxZbAmRulfjUAsHU5VS3glZ8ap7aedfX15P89hKQcWNqk4OsWGwJkHPXEEiePn167FBJtILWiD8iGHQIr66ujiAqYmYP0XmSfHJLbuV0/MiTFp+OEbLQyaOzlzuP/bxnojaVgMy1kakmOciKtXIQlnb2rEIDVCvRok/prADlgwcPsiC+ePGiKBoB0BrMuC01ybKJ5FVqY8nbQRZLJJZzQdZaRAA5Z6K1FCjiJWG3mkTrGF8j3K4Jb5WCzPVrbOQgKyU6F+SXL18mAZjiAypi3jtECx6CFq5P7agRyw6vE67XRBpqQCaP0nCcg3wPg/93zAUZaMICl3WgOGfKVSDyr2k9Yxnx50WHeFkKXC3IxN1LkoOsWGkuyNJRiwt9SnhJEfPkEL5xnJ9s17ScJxf9vqG19CX+PpepBRnZS+zlIKdK7Pu+uSDf3NwkoartkSsi3jukxYyndBrjDHKRDMJxJWkKyCXREQdZsf5ckHNzGUpvl4po2UNEI6QFDpcAuESi5Q2vG66XuC0ayFq8HVC15CAr1pkLsha6KrldKqJlD+WGoZeqPJp7YcGG0BrIWiWxwnEOchaJw3FeQdjiyLplVLkkHSA5J7UsacHkWiVLKkcqH/Yt1cHU4tMlo48ayMioVX4tZu0gK4TMbZG5dO4aApxWOIpoyUNaYS55B8j5yURLrKSBLLagoRD7xMtcdETTfU7fIM4/3N7d7DctbIVhOE5BzE3awMWSrX9usAX/3EolIGt60DCkkoOcssr3fbnWtNS1kEtzO86F4sIaDtBzIhq5iAWdKGRYKuU6sSWDLSUgIyeDRqFtwvXU3cVBVkp3KZDJglti7pYcFhLrQD8F6NykeTqAuVuyon72UO7hAEJwgKqlUpC1TmWq5XeQFasvCbJkk4MthpltfLAa/y4HmPhyIsPcZU4HHs2yKkwpyMjIAE7KLuyLXTEHWSnVc4BMdtwatWHkuPBKR81y8tLCWy2lYoZ7h3JznHG5lgSZa8W2kO3YvXOQ7xXT/ztyYMRG/P+MujXmHFsdQSk4ZLFSLg5LS7mkj5xrKXGdrApT0yKjb04n7BKGFB1khY5zgyxZUwjc/gXa3NJqmSnY1LnMS14yapEbPSyZ1VcLMr+n4cjpJXcAB1loSixbgSxZA6I2TEth0ornklaYS4Kcm9WX6oTFstaCzPnavG55IFfTvaafEcubqkCyT/oeF3KS1RrJ71ovW4OMfrgAWuhJgwXIxcjxkoJeImktZMnsuikgI3eu8qAnlVTT3UFe+L0WNSDlBh0ouJy/y/4YYNkuGT4ukW/uMPhUkLVwHHFtB1kpvTVaZBGHAs+5GdobeXKx6pLhY8lbW869hU8FGZlyAzFU1lxIkGPeIq/YIlNwuTCXzElIAZc7hwKVjlHqvNJ9OZiIjACpleaArN1xtAdtHeSVQc4NOWtugtZihuEqC7jUcS2uq/nu4bXmgMx1tJZX3Kh46SBvFGTr6eJc68RQ9ZykTbEs7UzOBZnKlJtzHQMs27sHOXcbZaSsRcr56FbLmmvJKVirEuT00m7rNRVkLsjIp4XjBN5wOQTIGG5KouY/evQoGQXgWbwWCb8zLBBZt2LCmgvANaYUrBb+sipWaKslQOZ6pSOiU/UVmcXmqWXTODKtKv6bNpAgQofL3AQcFCqNAAAUPh3L2pTrtInxrOtprTKuRynMgKfFtYmS1KSlQEb+FFypfaW6pvRIXU/2SVmcfUAknqBNAQII+1NwYWR8Pau2l06xDPMHfm6JqXxDA3Jcq0Ra6C28DutaLJrCwBaaPCW3cOvuEMu0FMhct3TiVfcg5zo9UqO4dXPLpMVmLq3st5Zx4eS2cz1sWjH8X+ZOcFum9QSq3GQckadkLkMoC36tZQOujf7kjzwlcog8NS6FyLUkyJrfLjKy7BpkrVULlaxdr2kRc4MTtXny+6kz2Ggxc772FDnkHCrflLQkyOSfayxETpZdg6xN/wuVrFmnFS1Npa1Faf61t/BQTmQpedSqVJaayhzKwfrSIOMaWRW1a5AxGkoCn6VoSQFOCVvhb9fGPGNZ8AMp/CWSFgeO801tIwuVYk5aGmRkwcVJySv7ugdZDI7xgIoIRm5uqygdLoEQF2VO4ZE3hsYPDa9trQPNnAIQ3eMluuAHl7o9hCCxW+mAR5xfvH0OkMlD02eOHbVyaha1iI3INq00t2ngokABld49oNHZYh/+H8prPfrUta19QMR1pXPH3YI8kYF88fcAZk7FsWSQ4wCFHWilyRdZQhuILEvbgHy5Nq5f+Me+OcBxbu66c+y5WZClIH3pFiixgINcYiX/zeYt4CBvvohcwBILOMglVvLfbN4CDvLmi8gFLLGAg1xiJf/N5i1QBbI1z2HKYMTmLeQCbt4C1gCSfG7ibvZb7lsbYW1giJVZafzW/9wG52QAzkqG9JGBdAfyuSb4hBXB1y+qRhbdXra94PYEZO2dBG5Q26Buo3VsJA9r3LXIUF07F8ELb53Cc7v/Z3d4lXQCMmP6VqfPjejwboEBOA3noJyADN1MKMk9ubwFBVwGr0jwCadhugeyHGR2WM10SwfMATs3A/CYeyomC7IAzZRGpjlykZJnz86tjF9/PxUG3uAO/qy52FmQv337duDPSkv/jvy+fv1qZXuUzeVLm2mP9nOQv7NQWiG9oqUrz9r2c5Ad5DSZlXZxkBNm3OOtMWGGk11rg3IiTGJjbfkuRIB4+ffffx/4i/fH20v/juvzHFucT7y9dL6l13P5/us7TS2Pc9mvKciJiuy73AKLWOBfEJrP5jh8RLgAAAAASUVORK5CYII=;" parent="F-L6EfSc8vcWyVoIchHZ-135" vertex="1">
          <mxGeometry x="14" y="44.89999999999998" width="30" height="39.1" as="geometry" />
        </mxCell>
        <mxCell id="F-L6EfSc8vcWyVoIchHZ-139" value="" style="image;aspect=fixed;html=1;points=[];align=center;fontSize=12;image=img/lib/azure2/general/File.svg;" parent="F-L6EfSc8vcWyVoIchHZ-135" vertex="1">
          <mxGeometry x="14.819999999999936" y="93.53999999999996" width="28.35" height="34.92" as="geometry" />
        </mxCell>
        <mxCell id="F-L6EfSc8vcWyVoIchHZ-140" value="" style="sketch=0;outlineConnect=0;fontColor=#232F3E;gradientColor=none;fillColor=#01A88D;strokeColor=none;dashed=0;verticalLabelPosition=bottom;verticalAlign=top;align=center;html=1;fontSize=12;fontStyle=0;aspect=fixed;shape=mxgraph.aws4.transfer_for_sftp_resource;" parent="F-L6EfSc8vcWyVoIchHZ-135" vertex="1">
          <mxGeometry x="15" y="148.5" width="39.95" height="41" as="geometry" />
        </mxCell>
        <mxCell id="F-L6EfSc8vcWyVoIchHZ-141" value="" style="image;html=1;image=img/lib/clip_art/computers/Database_128x128.png" parent="F-L6EfSc8vcWyVoIchHZ-135" vertex="1">
          <mxGeometry x="85" y="55" width="30" height="40" as="geometry" />
        </mxCell>
        <mxCell id="F-L6EfSc8vcWyVoIchHZ-142" value="" style="sketch=0;aspect=fixed;pointerEvents=1;shadow=0;dashed=0;html=1;strokeColor=none;labelPosition=center;verticalLabelPosition=bottom;verticalAlign=top;align=center;fillColor=#00188D;shape=mxgraph.azure.queue_generic" parent="F-L6EfSc8vcWyVoIchHZ-135" vertex="1">
          <mxGeometry x="73" y="129.5" width="55" height="16.5" as="geometry" />
        </mxCell>
        <mxCell id="F-L6EfSc8vcWyVoIchHZ-143" value="File" style="text;html=1;align=center;verticalAlign=middle;resizable=0;points=[];autosize=1;strokeColor=none;fillColor=none;spacing=0;fontSize=10;" parent="F-L6EfSc8vcWyVoIchHZ-135" vertex="1">
          <mxGeometry x="8.990000000000009" y="125" width="40" height="20" as="geometry" />
        </mxCell>
        <mxCell id="F-L6EfSc8vcWyVoIchHZ-144" value="Data Base" style="text;html=1;align=center;verticalAlign=middle;resizable=0;points=[];autosize=1;strokeColor=none;fillColor=none;spacing=0;fontSize=10;" parent="F-L6EfSc8vcWyVoIchHZ-135" vertex="1">
          <mxGeometry x="69.67000000000007" y="87.53999999999996" width="70" height="20" as="geometry" />
        </mxCell>
        <mxCell id="F-L6EfSc8vcWyVoIchHZ-145" value="Message Queue" style="text;html=1;align=center;verticalAlign=middle;resizable=0;points=[];autosize=1;strokeColor=none;fillColor=none;spacing=0;fontSize=10;" parent="F-L6EfSc8vcWyVoIchHZ-135" vertex="1">
          <mxGeometry x="59.67000000000007" y="146" width="90" height="20" as="geometry" />
        </mxCell>
        <mxCell id="F-L6EfSc8vcWyVoIchHZ-146" value="&lt;div style=&quot;font-size: 1px&quot;&gt;&lt;font style=&quot;font-size:12.7px;font-family:Segoe UI;color:#000000;direction:ltr;letter-spacing:0px;line-height:120%;opacity:1&quot;&gt;APP DB&lt;br&gt;&lt;/font&gt;&lt;/div&gt;" style="text;vsdxID=112;fillColor=none;gradientColor=none;strokeColor=none;strokeWidth=2;spacingTop=-3;spacingBottom=-3;spacingLeft=-3;spacingRight=-3;points=[[-0.03,0.49,0],[0.5,0,0],[1.01,0.49,0],[0.5,1.03,0],[0.5,1.65,0],[0.5,0.5,0]];labelBackgroundColor=none;rounded=0;html=1;whiteSpace=wrap;verticalAlign=top;align=center;overflow=width;;html=1;" parent="F-L6EfSc8vcWyVoIchHZ-1" vertex="1">
          <mxGeometry x="624" y="537" width="84" height="15.25" as="geometry" />
        </mxCell>
        <mxCell id="F-L6EfSc8vcWyVoIchHZ-128" value="" style="group" parent="F-L6EfSc8vcWyVoIchHZ-1" vertex="1" connectable="0">
          <mxGeometry x="917" y="314.46" width="110" height="61.799999999999955" as="geometry" />
        </mxCell>
        <mxCell id="F-L6EfSc8vcWyVoIchHZ-129" value="" style="rounded=1;whiteSpace=wrap;html=1;fillColor=#FFFF99;" parent="F-L6EfSc8vcWyVoIchHZ-128" vertex="1">
          <mxGeometry width="110" height="60" as="geometry" />
        </mxCell>
        <mxCell id="F-L6EfSc8vcWyVoIchHZ-130" value="" style="verticalLabelPosition=bottom;html=1;verticalAlign=top;align=center;strokeColor=none;fillColor=#00BEF2;shape=mxgraph.azure.express_route;pointerEvents=1;" parent="F-L6EfSc8vcWyVoIchHZ-128" vertex="1">
          <mxGeometry x="12" y="3.8000000000000114" width="30.88" height="20" as="geometry" />
        </mxCell>
        <mxCell id="F-L6EfSc8vcWyVoIchHZ-131" value="" style="sketch=0;outlineConnect=0;fontColor=#232F3E;gradientColor=none;fillColor=#8C4FFF;strokeColor=none;dashed=0;verticalLabelPosition=bottom;verticalAlign=top;align=center;html=1;fontSize=12;fontStyle=0;aspect=fixed;pointerEvents=1;shape=mxgraph.aws4.vpn_connection;" parent="F-L6EfSc8vcWyVoIchHZ-128" vertex="1">
          <mxGeometry x="51" y="2.8999999999999773" width="20.37" height="22.7" as="geometry" />
        </mxCell>
        <mxCell id="F-L6EfSc8vcWyVoIchHZ-132" value="" style="image;aspect=fixed;perimeter=ellipsePerimeter;html=1;align=center;shadow=0;dashed=0;spacingTop=3;image=img/lib/active_directory/tunnel.svg;" parent="F-L6EfSc8vcWyVoIchHZ-128" vertex="1">
          <mxGeometry x="6" y="32" width="83.5" height="16.7" as="geometry" />
        </mxCell>
        <mxCell id="F-L6EfSc8vcWyVoIchHZ-133" value="Connectivity" style="text;html=1;align=center;verticalAlign=middle;resizable=0;points=[];autosize=1;strokeColor=none;fillColor=none;fontSize=10;spacing=0;" parent="F-L6EfSc8vcWyVoIchHZ-128" vertex="1">
          <mxGeometry x="11" y="41.799999999999955" width="70" height="20" as="geometry" />
        </mxCell>
        <mxCell id="F-L6EfSc8vcWyVoIchHZ-134" value="" style="endArrow=none;html=1;rounded=0;" parent="F-L6EfSc8vcWyVoIchHZ-128" edge="1">
          <mxGeometry width="50" height="50" relative="1" as="geometry">
            <mxPoint x="41" y="32" as="sourcePoint" />
            <mxPoint x="51" y="2" as="targetPoint" />
          </mxGeometry>
        </mxCell>
      </root>
    </mxGraphModel>
  </diagram>
</mxfile>
